<svg width="61" height="45" viewBox="0 0 61 45" fill="none" xmlns="http://www.w3.org/2000/svg">
<path d="M3.81245 0.577148H57.1875C59.2921 0.577148 61 2.28507 61 4.39148V40.6102C61 42.7148 59.2921 44.4227 57.1875 44.4227H3.81245C1.70604 44.4229 0 42.7148 0 40.6105V4.39148C0 2.28507 1.70792 0.577148 3.81245 0.577148Z" fill="#26A6D1"/>
<path d="M9.83631 15.8271L3.8125 29.1577H11.0238L11.9178 27.0322H13.9613L14.8553 29.1577H22.793V27.5355L23.5003 29.1577H27.6063L28.3135 27.5012V29.1577H44.8217L46.829 27.0874L48.7086 29.1577L57.1876 29.1748L51.1447 22.5296L57.1876 15.8271H48.8401L46.8861 17.8591L45.0657 15.8271H27.107L25.5649 19.2679L23.9866 15.8271H16.7903V17.3942L15.9897 15.8271C15.9897 15.8271 9.83631 15.8271 9.83631 15.8271ZM11.2317 17.7201H14.7468L18.7424 26.7596V17.7201H22.5931L25.6792 24.2014L28.5235 17.7201H32.3549V27.2856H30.0236L30.0045 19.7901L26.6056 27.2856H24.5201L21.1022 19.7901V27.2856H16.3061L15.3968 25.1411H10.4844L9.57706 27.2837H7.00734L11.2317 17.7201ZM34.4879 17.7201H43.9677L46.8671 20.852L49.86 17.7201H52.7594L48.354 22.5277L52.7594 27.28H49.7285L46.829 24.1117L43.8209 27.28H34.4879V17.7201ZM12.9417 19.3385L11.3232 23.1587H14.5582L12.9417 19.3385ZM36.8289 19.7006V21.4468H42.0005V23.3931H36.8289V25.2994H42.6296L45.325 22.4916L42.744 19.699H36.8289V19.7006Z" fill="white"/>
</svg>
