<?xml version="1.0" encoding="iso-8859-1"?>
<!-- Generator: Adobe Illustrator 19.0.0, SVG Export Plug-In . SVG Version: 6.00 Build 0)  -->
<svg xmlns="http://www.w3.org/2000/svg" xmlns:xlink="http://www.w3.org/1999/xlink" version="1.1" id="Capa_1" x="0px" y="0px" viewBox="0 0 368 368" style="enable-background:new 0 0 368 368;" xml:space="preserve" width="512px" height="512px">
<g>
	<g>
		<path d="M328,0H40C17.944,0,0,17.944,0,40v288c0,22.056,17.944,40,40,40h288c22.056,0,40-17.944,40-40V40    C368,17.944,350.056,0,328,0z M352,328c0,13.232-10.768,24-24,24H40c-13.232,0-24-10.768-24-24v-8h336V328z M352,304H16V64h336    V304z M352,48H16v-8c0-13.232,10.768-24,24-24h288c13.232,0,24,10.768,24,24V48z" fill="#FFFFFF"/>
	</g>
</g>
<g>
	<g>
		<path d="M136,176H80v-48h56c4.416,0,8-3.584,8-8s-3.584-8-8-8H72c-4.416,0-8,3.584-8,8v128c0,4.416,3.584,8,8,8s8-3.584,8-8v-56    h56c4.416,0,8-3.584,8-8C144,179.584,140.416,176,136,176z" fill="#FFFFFF"/>
	</g>
</g>
<g>
	<g>
		<path d="M298.816,112.512c-3.096-1.168-6.632-0.296-8.832,2.216L240,171.848l-49.984-57.12c-2.192-2.504-5.728-3.384-8.832-2.216    C178.064,113.68,176,116.664,176,120v128c0,4.416,3.584,8,8,8s8-3.584,8-8V141.296l41.976,47.976c3.048,3.472,9,3.472,12.048,0    L288,141.296V248c0,4.416,3.576,8,8,8s8-3.584,8-8V120C304,116.664,301.936,113.68,298.816,112.512z" fill="#FFFFFF"/>
	</g>
</g>
<g>
</g>
<g>
</g>
<g>
</g>
<g>
</g>
<g>
</g>
<g>
</g>
<g>
</g>
<g>
</g>
<g>
</g>
<g>
</g>
<g>
</g>
<g>
</g>
<g>
</g>
<g>
</g>
<g>
</g>
</svg>
