<?xml version="1.0" encoding="UTF-8"?>
<svg width="100px" height="100px" viewBox="0 0 100 100" version="1.1" xmlns="http://www.w3.org/2000/svg" xmlns:xlink="http://www.w3.org/1999/xlink">
    <!-- Generator: Sketch 49.3 (51167) - http://www.bohemiancoding.com/sketch -->
    <title>Combined Shape</title>
    <desc>Created with Sketch.</desc>
    <defs></defs>
    <g id="Page-1" stroke="none" stroke-width="1" fill="none" fill-rule="evenodd">
        <g id="hearotoken" fill="#ED2224">
            <path d="M50,100 C22.3857625,100 0,77.6142375 0,50 C0,22.3857625 22.3857625,0 50,0 C77.6142375,0 100,22.3857625 100,50 C100,77.6142375 77.6142375,100 50,100 Z M84.4473684,50.5538462 C84.4473684,30.6153846 68.9736842,14.3692308 49.8157895,14.3692308 C30.6578947,14.3692308 15.1842105,30.6153846 15.1842105,50.5538462 C15.1842105,64.2153846 22.5526316,76.2153846 33.4210526,82.3076923 C36.1842105,84.3384615 39.3157895,85.0769231 41.7105263,83.9692308 C46.1315789,81.9384615 46.8684211,74.5538462 43.5526316,67.9076923 C40.2368421,61.0769231 34.1578947,57.3846154 29.7368421,59.4153846 C28.8157895,59.9692308 27.8947368,60.7076923 27.3421053,61.6307692 C25.6842105,58.8615385 24.7631579,55.7230769 24.7631579,52.2153846 C24.7631579,40.4 36,30.9846154 49.8157895,30.9846154 C63.6315789,30.9846154 74.8684211,40.5846154 74.8684211,52.2153846 C74.8684211,55.7230769 73.7631579,59.0461538 72.1052632,62 C71.3684211,60.7076923 70.4473684,59.7846154 69.3421053,59.2307692 C64.9210526,57.2 58.8421053,61.0769231 55.7105263,67.9076923 C52.5789474,74.7384615 53.5,81.9384615 57.9210526,83.9692308 C60.1315789,85.0769231 62.8947368,84.5230769 65.4736842,82.6769231 C76.7105263,76.7692308 84.4473684,64.5846154 84.4473684,50.5538462 Z" id="Combined-Shape"></path>
        </g>
    </g>
</svg>