<?xml version="1.0" encoding="utf-8"?>
<!-- Generator: Adobe Illustrator 23.0.2, SVG Export Plug-In . SVG Version: 6.00 Build 0)  -->
<svg version="1.1" id="main" xmlns="http://www.w3.org/2000/svg" xmlns:xlink="http://www.w3.org/1999/xlink" x="0px" y="0px"
	 viewBox="0 0 290.6 54.6" style="enable-background:new 0 0 290.6 54.6;" xml:space="preserve">
<style type="text/css">
	.st0{fill:#FF0000;}
</style>
<path class="st0" d="M28.4,43.9c0,6.8,3.1,8.8,7,9.8h2.5l0-21.7c0-11.8-6.7-15.9-13.1-15.9c-2.4,0-4.6,0.5-6.6,1.6
	c-1.9,1-3.6,2-4.7,4h-0.2l0-13.3c0-6.5-3.9-8.1-8.9-8.4L3.8,0l0,53.7l2.1,0c5.4-0.8,7.1-3.4,7.4-6.6l0-15.4c0-1,0.1-2,0.4-2.8
	c1.1-2.8,3.7-5.2,7.4-5.2c5.3,0,7.3,4.1,7.3,9.4L28.4,43.9z"/>
<path class="st0" d="M148.5,16.3L148.5,16.3c-1-0.2-1.5-0.3-2.4-0.3c-4.1,0-8.6,2.7-10.5,7.7h-0.2l-0.1-1.3
	c-0.5-4.6-3.9-5.4-8.5-5.5c0.2,3,0.3,6.9,0.3,11.8l0,25h1.7c5.7-1,7.5-3.4,7.8-6.8l0-12.3c0-1,0.1-2,0.2-2.8c0.7-3.5,3-6,6.4-6.8
	c1.1,0.7,2.4,1.1,3.9,1.1c3.4,0,6.3-2.2,6.3-4.9C153.4,18.7,151.5,16.7,148.5,16.3z"/>
<path class="st0" d="M67.9,47.4c-0.5,0-1,0-1.6,0c-6.1,0-11.4-2.9-11.6-9.5l25.2,0c0.2-0.8,0.3-2.2,0.3-3.9c0-8.1-4-17.9-16.2-17.9
	c-12.1,0-18.4,9.6-18.4,19.8c0,11.3,7.2,18.6,19.4,18.6c5.3,0,9.8-1,13-2.3C77.7,47.7,73.4,47.4,67.9,47.4 M63.5,22.4
	c6.3,0,7.9,5.6,7.8,9l-16.5,0C55.1,27.6,57.6,22.4,63.5,22.4z"/>
<path class="st0" d="M207.1,47c1,0,1.9,0.4,2.6,1.1c0.7,0.7,1.1,1.6,1.1,2.6c0,1-0.4,1.9-1.1,2.6c-0.7,0.7-1.6,1.1-2.6,1.1
	c-1,0-1.9-0.4-2.6-1.1s-1.1-1.6-1.1-2.6c0-1,0.4-1.9,1.1-2.6S206.1,47,207.1,47z"/>
<path class="st0" d="M232.5,9v4c-1.5-0.6-2.8-1-3.9-1c-0.8,0-1.5,0.2-2,0.5c-0.5,0.3-0.9,0.7-1,1.1c-0.1,0.4-0.2,1.5-0.2,3.4l0,4.3
	h6.7V25h-6.7l0,28.5h-4.1V25H217v-3.6h4.2v-5c0-2.3,0.2-3.9,0.6-4.9c0.4-1,1.1-1.8,2.2-2.4c1-0.6,2.2-0.9,3.7-0.9
	C229,8.2,230.6,8.5,232.5,9z"/>
<path class="st0" d="M238.2,21.4h4.1v5.5c1.4-2,2.9-3.5,4.4-4.5c2.1-1.3,4.3-1.9,6.6-1.9c1.6,0,3,0.3,4.4,0.9
	c1.4,0.6,2.5,1.4,3.4,2.4c0.9,1,1.7,2.5,2.3,4.4c1.4-2.5,3.1-4.4,5.2-5.7c2.1-1.3,4.3-2,6.7-2c2.2,0,4.2,0.6,5.9,1.7
	c1.7,1.1,3,2.7,3.8,4.7s1.2,5,1.2,9v17.5H282V36c0-3.4-0.2-5.8-0.7-7.1c-0.5-1.3-1.3-2.3-2.5-3.1c-1.2-0.8-2.6-1.2-4.2-1.2
	c-2,0-3.8,0.6-5.5,1.8c-1.7,1.2-2.9,2.8-3.6,4.7c-0.8,2-1.1,5.3-1.1,9.9v12.6h-4.1V37.1c0-3.9-0.2-6.5-0.7-7.9
	c-0.5-1.4-1.3-2.5-2.5-3.3c-1.2-0.8-2.6-1.3-4.3-1.3c-1.9,0-3.7,0.6-5.4,1.7s-2.9,2.7-3.7,4.6c-0.8,1.9-1.2,4.9-1.2,8.9v13.6h-4.1
	L238.2,21.4L238.2,21.4z"/>
<g>
	<path class="st0" d="M194.5,35.8c0-10.8-8.4-19.6-18.8-19.6c-10.4,0-18.8,8.8-18.8,19.6c0,7.4,4,13.9,9.9,17.2
		c1.5,1.1,3.2,1.5,4.5,0.9c2.4-1.1,2.8-5.1,1-8.7c-1.8-3.7-5.1-5.7-7.5-4.6c-0.5,0.3-1,0.7-1.3,1.2c-0.9-1.5-1.4-3.2-1.4-5.1
		c0-6.4,6.1-11.5,13.6-11.5c7.5,0,13.6,5.2,13.6,11.5c0,1.9-0.6,3.7-1.5,5.3c-0.4-0.7-0.9-1.2-1.5-1.5c-2.4-1.1-5.7,1-7.4,4.7
		c-1.7,3.7-1.2,7.6,1.2,8.7c1.2,0.6,2.7,0.3,4.1-0.7C190.3,50,194.5,43.4,194.5,35.8z"/>
</g>
<path class="st0" d="M108.4,48.7c0.9,4.3,3.7,5,9.3,5c-0.5-2.3-0.6-5.5-0.6-8.8l0-13.2c0-8.1-3.5-15.6-15.5-15.6
	c-5.9,0-10.8,1.6-13.5,3.2c1.6,3.4,4.2,4.1,7.1,4c1.6-0.4,3.2-0.6,4.8-0.6c6.6,0,7.6,4,7.6,6.4v0.6c-14-0.1-22.3,4.7-22.3,13.9
	c0,5.6,4.3,11,11.8,11c3.9,0,7.2-1.2,9.5-3.2C107.6,50.3,108.2,49.3,108.4,48.7 M94.5,42.6c0-5.6,7-6.9,13-6.9v5.1
	c0,0.7,0.1,1.4-0.1,2c-0.9,2.6-3.6,5.1-7.4,5.1C97,47.9,94.5,46.2,94.5,42.6z"/>
</svg>
