<?xml version="1.0" encoding="UTF-8"?>
<svg width="194px" height="165px" viewBox="0 0 194 165" version="1.1" xmlns="http://www.w3.org/2000/svg" xmlns:xlink="http://www.w3.org/1999/xlink">
    <!-- Generator: Sketch 50 (54983) - http://www.bohemiancoding.com/sketch -->
    <title>illustration-4</title>
    <desc>Created with Sketch.</desc>
    <defs></defs>
    <g id="Page-1" stroke="none" stroke-width="1" fill="none" fill-rule="evenodd">
        <g id="illustration-4" transform="translate(1.000000, 1.000000)">
            <polygon id="Fill-194" fill="#FFFFFF" points="35 163 26 163 22 158 22 121 17 115 39 115 39 158"></polygon>
            <polygon id="Fill-195" fill="#FFFFFF" points="48.5 163 54.5 155 60.5 163"></polygon>
            <polygon id="Fill-196" fill="#FFFFFF" points="141.5 163 135.5 155 129.5 163"></polygon>
            <polygon id="Fill-197" fill="#FFFFFF" points="179.25 163 166.5 137.063 166.5 125 170 121 154.5 121 158 125 158 137.063 145.25 163"></polygon>
            <polygon id="Fill-198" fill="#FFFFFF" points="102 69.8066 102 60.6196 106.267 55.9996 83.733 55.9996 88 60.6196 88 69.8066 69 80.7696 69 110.6696 95 125.4996 121 110.6696 121 80.7696"></polygon>
            <polygon id="Fill-223" fill="#FFFFFF" points="85.5 146 95.5 153 104.5 149 104.5 144 100.5 140 100.5 144 96.5 146 96.5 134 89.5 130 91.5 138"></polygon>
            <polygon id="Fill-199" fill="#CCEFFF" points="88.1235 147.8354 95.4995 153.0004 104.4995 149.0004 104.4995 144.0004 100.4995 140.0004 100.4995 144.0004 96.4995 146.0004 96.4995 134.0004 93.1195 132.0684 94.4165 138.5004"></polygon>
            <polygon id="Fill-200" fill="#CCEFFF" points="135.5 163 141.5 163 135.5 155"></polygon>
            <polygon id="Fill-201" fill="#CCEFFF" points="54.5 163 60.5 163 54.5 155"></polygon>
            <polygon id="Fill-202" fill="#CCEFFF" points="157.0146 151 150.9996 163 179.2496 163 173.3516 151"></polygon>
            <polygon id="Fill-203" fill="#CCEFFF" points="27 139 27 163 35 163 39 158 39 139"></polygon>
            <polygon id="Fill-204" fill="#CCEFFF" points="121 110.6699 121 95.9999 115.8 91.9999 110.6 95.9799 105.4 91.9999 100.2 95.9799 95 91.9999 89.8 95.9799 84.6 91.9999 79.4 95.9799 74.2 91.9999 74 92.1529 74 107.3779 100.28 122.4879"></polygon>
            <polygon id="Fill-205" fill="#CCEFFF" points="127.25 19.6665 119.579 11.8005 116.05 22.9355"></polygon>
            <polygon id="Stroke-206" stroke="#1050FF" stroke-width="2" stroke-linecap="round" stroke-linejoin="round" points="127.25 19.6665 119.579 11.8005 116.05 22.9355"></polygon>
            <polygon id="Fill-207" fill="#CCEFFF" points="128.1912 59.5508 130.3442 53.1348 123.2502 54.3338"></polygon>
            <polygon id="Stroke-208" stroke="#1050FF" stroke-width="2" stroke-linecap="round" stroke-linejoin="round" points="128.1912 59.5508 130.3442 53.1348 123.2502 54.3338"></polygon>
            <polygon id="Fill-209" fill="#CCEFFF" points="88.627 40.8213 88.674 34.0543 82.306 37.4023"></polygon>
            <polygon id="Stroke-210" stroke="#1050FF" stroke-width="2" stroke-linecap="round" stroke-linejoin="round" points="88.627 40.8213 88.674 34.0543 82.306 37.4023"></polygon>
            <polyline id="Stroke-211" stroke="#1050FF" stroke-width="2" stroke-linecap="round" stroke-linejoin="round" points="50.7798 25.7822 53.4948 29.9812 58.2858 28.5512 60.9998 32.7502 65.7908 31.3202 68.5058 35.5182"></polyline>
            <polyline id="Stroke-212" stroke="#1050FF" stroke-width="2" stroke-linecap="round" stroke-linejoin="round" points="132.2612 31.7959 129.5462 35.9949 124.7552 34.5649 122.0412 38.7639 117.2502 37.3339 114.5352 41.5319"></polyline>
            <polyline id="Stroke-213" stroke="#1050FF" stroke-width="2" stroke-linecap="round" stroke-linejoin="round" points="101.6228 0.5269 102.6428 5.4219 98.2298 7.7719 99.2498 12.6669 94.8368 15.0169 95.8568 19.9119"></polyline>
            <polygon id="Fill-214" fill="#CCEFFF" points="69.1287 13.7881 65.5937 13.0811 64.8857 9.5451 67.0077 7.4241 70.5427 8.1311 71.2497 11.6661"></polygon>
            <polygon id="Stroke-215" stroke="#1050FF" stroke-width="2" stroke-linejoin="round" points="69.1287 13.7881 65.5937 13.0811 64.8857 9.5451 67.0077 7.4241 70.5427 8.1311 71.2497 11.6661"></polygon>
            <polygon id="Fill-216" fill="#CCEFFF" points="59.1287 50.6211 55.5937 49.9141 54.8857 46.3791 57.0077 44.2571 60.5427 44.9641 61.2497 48.5001"></polygon>
            <polygon id="Stroke-217" stroke="#1050FF" stroke-width="2" stroke-linejoin="round" points="59.1287 50.6211 55.5937 49.9141 54.8857 46.3791 57.0077 44.2571 60.5427 44.9641 61.2497 48.5001"></polygon>
            <polygon id="Stroke-218" stroke="#1050FF" stroke-width="2" stroke-linejoin="round" points="35 163 26 163 22 158 22 121 17 115 39 115 39 158"></polygon>
            <path d="M26,127 L29,127" id="Stroke-219" stroke="#1050FF" stroke-width="2" stroke-linecap="round" stroke-linejoin="round"></path>
            <path d="M26,133 L29,133" id="Stroke-220" stroke="#1050FF" stroke-width="2" stroke-linecap="round" stroke-linejoin="round"></path>
            <path d="M26,145 L29,145" id="Stroke-221" stroke="#1050FF" stroke-width="2" stroke-linecap="round" stroke-linejoin="round"></path>
            <path d="M26,151 L29,151" id="Stroke-222" stroke="#1050FF" stroke-width="2" stroke-linecap="round" stroke-linejoin="round"></path>
            <polygon id="Stroke-224" stroke="#1050FF" stroke-width="2" stroke-linecap="round" stroke-linejoin="round" points="85.5 146 95.5 153 104.5 149 104.5 144 100.5 140 100.5 144 96.5 146 96.5 134 89.5 130 91.5 138"></polygon>
            <polygon id="Fill-225" fill="#FFFFFF" points="108 163 83 163 88 157 103 157"></polygon>
            <polygon id="Stroke-226" stroke="#1050FF" stroke-width="2" stroke-linecap="round" stroke-linejoin="round" points="108 163 83 163 88 157 103 157"></polygon>
            <polygon id="Stroke-227" stroke="#1050FF" stroke-width="2" stroke-linejoin="round" points="102 69.8066 102 60.6196 106.267 55.9996 83.733 55.9996 88 60.6196 88 69.8066 69 80.7696 69 110.6696 95 125.4996 121 110.6696 121 80.7696"></polygon>
            <polyline id="Stroke-228" stroke="#1050FF" stroke-width="2" stroke-linecap="round" stroke-linejoin="round" points="69 95.98 74.2 92 79.4 95.98 84.6 92 89.8 95.98 95 92 100.2 95.98 105.4 92 110.6 95.98 115.8 92 121 96"></polyline>
            <polygon id="Stroke-229" stroke="#1050FF" stroke-width="2" stroke-linecap="round" stroke-linejoin="round" points="48.5 163 54.5 155 60.5 163"></polygon>
            <polyline id="Stroke-230" stroke="#1050FF" stroke-width="2" stroke-linecap="round" stroke-linejoin="round" points="135.5 155 124 105 66 105 54.5 155"></polyline>
            <polygon id="Stroke-231" stroke="#1050FF" stroke-width="2" stroke-linecap="round" stroke-linejoin="round" points="141.5 163 135.5 155 129.5 163"></polygon>
            <path d="M153.0049,159 L155.0079,155.004" id="Stroke-232" stroke="#1050FF" stroke-width="2" stroke-linecap="round" stroke-linejoin="round"></path>
            <polygon id="Stroke-233" stroke="#1050FF" stroke-width="2" stroke-linejoin="round" points="179.25 163 166.5 137.063 166.5 125 170 121 154.5 121 158 125 158 137.063 145.25 163"></polygon>
            <path d="M9.25,163 L183.25,163" id="Stroke-234" stroke="#1050FF" stroke-width="2" stroke-linecap="round" stroke-linejoin="round"></path>
            <path d="M188.25,163 L191.25,163" id="Stroke-235" stroke="#1050FF" stroke-width="2" stroke-linecap="round" stroke-linejoin="round"></path>
            <path d="M0.25,163 L3.25,163" id="Stroke-236" stroke="#1050FF" stroke-width="2" stroke-linecap="round" stroke-linejoin="round"></path>
            <path d="M173.3513,151 L151.1483,151" id="Stroke-237" stroke="#1050FF" stroke-width="2" stroke-linecap="round" stroke-linejoin="round"></path>
            <polygon id="Stroke-238" stroke="#1050FF" stroke-width="2" stroke-linecap="round" stroke-linejoin="round" points="95.3325 73.9165 92.3325 76.9165 95.3325 79.9165 98.3325 76.9165"></polygon>
            <polygon id="Stroke-239" stroke="#1050FF" stroke-width="2" stroke-linecap="round" stroke-linejoin="round" points="79.5 83 76.5 86 79.5 89 82.5 86"></polygon>
            <path d="M96.9497,113.3701 C97.0007,113.3701 97.0517,113.3901 97.0907,113.4291 L98.9727,115.3101 C99.0507,115.3881 99.0507,115.5151 98.9727,115.5931 L97.0907,117.4741 C97.0517,117.5141 97.0007,117.5331 96.9497,117.5331 C96.8987,117.5331 96.8467,117.5141 96.8077,117.4741 L94.9267,115.5931 C94.8477,115.5151 94.8477,115.3881 94.9267,115.3101 L96.8077,113.4291 C96.8467,113.3901 96.8987,113.3701 96.9497,113.3701 Z" id="Fill-240" fill="#1050FF"></path>
            <path d="M105.167,97.4185 C105.116,97.4185 105.064,97.4385 105.025,97.4775 L103.144,99.3585 C103.065,99.4365 103.065,99.5635 103.144,99.6415 L105.025,101.5225 C105.064,101.5625 105.116,101.5815 105.167,101.5815 C105.218,101.5815 105.269,101.5625 105.308,101.5225 L107.19,99.6415 C107.268,99.5635 107.268,99.4365 107.19,99.3585 L105.308,97.4775 C105.269,97.4385 105.218,97.4185 105.167,97.4185" id="Fill-242" fill="#1050FF"></path>
            <path d="M85.3838,107.7036 C85.3328,107.7036 85.2808,107.7236 85.2418,107.7626 L83.3608,109.6436 C83.2828,109.7216 83.2828,109.8486 83.3608,109.9266 L85.2418,111.8076 C85.2808,111.8476 85.3328,111.8666 85.3838,111.8666 C85.4348,111.8666 85.4868,111.8476 85.5258,111.8076 L87.4068,109.9266 C87.4848,109.8486 87.4848,109.7216 87.4068,109.6436 L85.5258,107.7626 C85.4868,107.7236 85.4348,107.7036 85.3838,107.7036" id="Fill-244" fill="#1050FF"></path>
            <path d="M95.5,157 L95.5,159" id="Stroke-246" stroke="#1050FF" stroke-width="2" stroke-linecap="round" stroke-linejoin="round"></path>
            <path d="M91,157 L91,159" id="Stroke-248" stroke="#1050FF" stroke-width="2" stroke-linecap="round" stroke-linejoin="round"></path>
            <path d="M100,157 L100,159" id="Stroke-250" stroke="#1050FF" stroke-width="2" stroke-linecap="round" stroke-linejoin="round"></path>
            <path d="M22,139 L39,139" id="Stroke-252" stroke="#1050FF" stroke-width="2" stroke-linecap="round" stroke-linejoin="round"></path>
        </g>
    </g>
</svg>