<?xml version="1.0" encoding="UTF-8"?>
<svg width="199px" height="153px" viewBox="0 0 199 153" version="1.1" xmlns="http://www.w3.org/2000/svg" xmlns:xlink="http://www.w3.org/1999/xlink">
    <!-- Generator: Sketch 50 (54983) - http://www.bohemiancoding.com/sketch -->
    <title>illustration-6</title>
    <desc>Created with Sketch.</desc>
    <defs></defs>
    <g id="Page-1" stroke="none" stroke-width="1" fill="none" fill-rule="evenodd">
        <g id="illustration-6" transform="translate(1.000000, 1.000000)">
            <polygon id="Fill-138" fill="#FFFFFF" points="9 94 45 94 45 58 9 58"></polygon>
            <polygon id="Stroke-139" stroke="#FFFFFF" stroke-width="2" stroke-linecap="round" stroke-linejoin="round" points="9 94 45 94 45 58 9 58"></polygon>
            <polygon id="Fill-140" fill="#FFFFFF" points="119.4854 90.3804 111.0004 81.8954 132.2134 60.6824 139.2844 62.0964 140.6984 69.1674"></polygon>
            <polygon id="Stroke-141" stroke="#FFFFFF" stroke-width="2" stroke-linecap="round" stroke-linejoin="round" points="119.4854 90.3804 111.0004 81.8954 132.2134 60.6824 139.2844 62.0964 140.6984 69.1674"></polygon>
            <polygon id="Fill-142" fill="#FFFFFF" points="79 120 123 120 123 39.5 79 39.5"></polygon>
            <polygon id="Fill-143" fill="#CCEFFF" points="72 15.6699 71.932 4.6829 61.666 10.2539"></polygon>
            <polygon id="Stroke-144" stroke="#FFFFFF" stroke-width="2" stroke-linecap="round" stroke-linejoin="round" points="72 15.6699 71.932 4.6829 61.666 10.2539"></polygon>
            <polygon id="Fill-145" fill="#CCEFFF" points="165.9412 45 168.0942 38.584 161.0002 39.783"></polygon>
            <polygon id="Stroke-146" stroke="#FFFFFF" stroke-width="2" stroke-linecap="round" stroke-linejoin="round" points="165.9412 45 168.0942 38.584 161.0002 39.783"></polygon>
            <polygon id="Fill-147" fill="#CCEFFF" points="49.8474 134.4155 52.0004 127.9995 44.9064 129.1985"></polygon>
            <polygon id="Stroke-148" stroke="#FFFFFF" stroke-width="2" stroke-linecap="round" stroke-linejoin="round" points="49.8474 134.4155 52.0004 127.9995 44.9064 129.1985"></polygon>
            <polygon id="Fill-149" fill="#CCEFFF" points="104.2493 22.2959 107.5183 16.3709 100.3243 16.2759"></polygon>
            <polygon id="Stroke-150" stroke="#FFFFFF" stroke-width="2" stroke-linecap="round" stroke-linejoin="round" points="104.2493 22.2959 107.5183 16.3709 100.3243 16.2759"></polygon>
            <polyline id="Stroke-151" stroke="#FFFFFF" stroke-width="2" stroke-linecap="round" stroke-linejoin="round" points="36 20.9453 38.715 25.1443 43.506 23.7143 46.22 27.9133 51.011 26.4833 53.726 30.6823"></polyline>
            <polyline id="Stroke-152" stroke="#FFFFFF" stroke-width="2" stroke-linecap="round" stroke-linejoin="round" points="147.4414 123.2637 149.0594 127.9947 154.0544 127.7657 155.6714 132.4967 160.6664 132.2687 162.2844 136.9997"></polyline>
            <polyline id="Stroke-153" stroke="#FFFFFF" stroke-width="2" stroke-linecap="round" stroke-linejoin="round" points="19.2756 121.1152 24.1966 122.0002 26.4236 117.5232 31.3456 118.4082 33.5726 113.9322 38.4936 114.8172"></polyline>
            <polyline id="Stroke-154" stroke="#FFFFFF" stroke-width="2" stroke-linecap="round" stroke-linejoin="round" points="160.8733 20.9453 158.1583 25.1443 153.3673 23.7143 150.6533 27.9133 145.8623 26.4833 143.1473 30.6823"></polyline>
            <polygon id="Stroke-155" stroke="#FFFFFF" stroke-width="2" stroke-linejoin="round" points="104 112.6821 101 114.6821 98 112.6821 98 109.6821 101 107.6821 104 109.6821"></polygon>
            <polygon id="Fill-156" fill="#CCEFFF" points="130.0605 6.3638 126.5255 5.6568 125.8185 2.1208 127.9395 -0.0002 131.4745 0.7068 132.1815 4.2428"></polygon>
            <polygon id="Stroke-157" stroke="#FFFFFF" stroke-width="2" stroke-linejoin="round" points="130.0605 6.3638 126.5255 5.6568 125.8185 2.1208 127.9395 -0.0002 131.4745 0.7068 132.1815 4.2428"></polygon>
            <polygon id="Fill-158" fill="#CCEFFF" points="171.2427 124 167.7067 123.293 166.9997 119.757 169.1217 117.636 172.6567 118.343 173.3637 121.879"></polygon>
            <polygon id="Stroke-159" stroke="#FFFFFF" stroke-width="2" stroke-linejoin="round" points="171.2427 124 167.7067 123.293 166.9997 119.757 169.1217 117.636 172.6567 118.343 173.3637 121.879"></polygon>
            <path d="M9,151 L183,151" id="Stroke-160" stroke="#FFFFFF" stroke-width="2" stroke-linecap="round" stroke-linejoin="round"></path>
            <path d="M188,151 L191,151" id="Stroke-161" stroke="#FFFFFF" stroke-width="2" stroke-linecap="round" stroke-linejoin="round"></path>
            <path d="M0,151 L3,151" id="Stroke-162" stroke="#FFFFFF" stroke-width="2" stroke-linecap="round" stroke-linejoin="round"></path>
            <polygon id="Fill-163" fill="#CCEFFF" points="123 39.5 123 103 79 103"></polygon>
            <polygon id="Stroke-164" stroke="#FFFFFF" stroke-width="2" stroke-linecap="round" stroke-linejoin="round" points="79 120 123 120 123 39.5 79 39.5"></polygon>
            <path d="M79,103 L123,103" id="Stroke-165" stroke="#FFFFFF" stroke-width="2" stroke-linecap="round" stroke-linejoin="round"></path>
            <polygon id="Fill-166" fill="#FFFFFF" points="113 151 113 137.682 124 121.682 123 120 90 120 90 113.682 79 106.682 79 86.182 73 81.682 67 86.682 67 116.682 79 132.682 79 151"></polygon>
            <polygon id="Fill-167" fill="#FFFFFF" points="132 89.5 134 95.5 132 101.5 109 101.5 106 95.5 109 89.5"></polygon>
            <polygon id="Stroke-168" stroke="#FFFFFF" stroke-width="2" stroke-linecap="round" stroke-linejoin="round" points="132 89.5 134 95.5 132 101.5 109 101.5 106 95.5 109 89.5"></polygon>
            <polygon id="Fill-169" fill="#FFFFFF" points="130 101.5 132 107.5 130 113.5 111 113.5 108 107.5 111 101.5"></polygon>
            <polygon id="Stroke-170" stroke="#FFFFFF" stroke-width="2" stroke-linecap="round" stroke-linejoin="round" points="130 101.5 132 107.5 130 113.5 111 113.5 108 107.5 111 101.5"></polygon>
            <g id="Group-173" transform="translate(17.000000, 82.000000)">
                <polyline id="Fill-171" fill="#FFFFFF" points="6 0 0 0 0 7 6 5"></polyline>
                <polyline id="Stroke-172" stroke="#FFFFFF" stroke-width="2" stroke-linecap="round" stroke-linejoin="round" points="6 0 0 0 0 7 6 5"></polyline>
            </g>
            <g id="Group-176" transform="translate(31.000000, 76.000000)">
                <polyline id="Fill-174" fill="#FFFFFF" points="6 0 0 0 0 7 6 5"></polyline>
                <polyline id="Stroke-175" stroke="#FFFFFF" stroke-width="2" stroke-linecap="round" stroke-linejoin="round" points="6 0 0 0 0 7 6 5"></polyline>
            </g>
            <polyline id="Stroke-177" stroke="#FFFFFF" stroke-width="2" stroke-linecap="round" stroke-linejoin="round" points="23 87 23 69 37 64 37 81"></polyline>
            <polyline id="Stroke-178" stroke="#FFFFFF" stroke-width="2" stroke-linecap="round" stroke-linejoin="round" points="50 69 50 99 20 99"></polyline>
            <polygon id="Fill-179" fill="#FFFFFF" points="197 91 163.001 91 155 99.5 155 59 197 59"></polygon>
            <polygon id="Fill-180" fill="#CCEFFF" points="169 66 169 70 165 72.5 161 70"></polygon>
            <polygon id="Fill-181" fill="#CCEFFF" points="161.001 87 155 93.5 155 99.5 163.001 91 197 91 197 87"></polygon>
            <polygon id="Fill-182" fill="#CCEFFF" points="185.822 70.9258 181 82.4998 176 79.4998 173 83.4998 191 83.4998"></polygon>
            <polygon id="Stroke-183" stroke="#FFFFFF" stroke-width="2" stroke-linecap="round" stroke-linejoin="round" points="197 91 163.001 91 155 99.5 155 59 197 59"></polygon>
            <polygon id="Stroke-184" stroke="#FFFFFF" stroke-width="2" stroke-linecap="round" stroke-linejoin="round" points="169 70 165 72.5 161 70 161 66 165 63.5 169 66"></polygon>
            <polygon id="Stroke-185" stroke="#FFFFFF" stroke-width="2" stroke-linecap="round" stroke-linejoin="round" points="184 66.5 179 78.5 174 75.5 168 83.5 191 83.5"></polygon>
            <path d="M163,83.5 L192.999,83.5" id="Stroke-186" stroke="#FFFFFF" stroke-width="2" stroke-linecap="round" stroke-linejoin="round"></path>
            <polygon id="Stroke-187" stroke="#FFFFFF" stroke-width="2" stroke-linecap="round" stroke-linejoin="round" points="184 66.5 179 78.5 174 75.5 168 83.5 191 83.5"></polygon>
            <polygon id="Fill-188" fill="#CCEFFF" points="90 125.5 90 120 110.25 120 113 125.5"></polygon>
            <path d="M90.0003,124.0002 L90.0003,119.9992 L90.0003,124.0002 Z" id="Fill-189" fill="#FFFFFF"></path>
            <path d="M90,124 L90,120" id="Stroke-190" stroke="#FFFFFF" stroke-width="2" stroke-linecap="round" stroke-linejoin="round"></path>
            <polygon id="Stroke-191" stroke="#FFFFFF" stroke-width="2" stroke-linecap="round" stroke-linejoin="round" points="113 151 113 137.682 124 121.682 123 120 90 120 90 113.682 79 106.682 79 86.182 73 81.682 67 86.682 67 116.682 79 132.682 79 151"></polygon>
            <polygon id="Fill-192" fill="#FFFFFF" points="128 113.5 130 119.5 128 125.5 113 125.5 110 119.5 113 113.5"></polygon>
            <polygon id="Stroke-193" stroke="#FFFFFF" stroke-width="2" stroke-linecap="round" stroke-linejoin="round" points="128 113.5 130 119.5 128 125.5 113 125.5 110 119.5 113 113.5"></polygon>
        </g>
    </g>
</svg>