<?xml version="1.0" encoding="UTF-8"?>
<svg width="193px" height="109px" viewBox="0 0 193 109" version="1.1" xmlns="http://www.w3.org/2000/svg" xmlns:xlink="http://www.w3.org/1999/xlink">
    <!-- Generator: Sketch 50 (54983) - http://www.bohemiancoding.com/sketch -->
    <title>illustration-1</title>
    <desc>Created with Sketch.</desc>
    <defs></defs>
    <g id="Page-1" stroke="none" stroke-width="1" fill="none" fill-rule="evenodd">
        <g id="illustration-1" transform="translate(1.000000, 1.000000)">
            <polygon id="Fill-1" fill="#FFFFFF" points="99.5 60 119 60 125 60 140 54 140 35 122 28 104 34.97 103 41"></polygon>
            <polyline id="Fill-2" fill="#FFFFFF" points="132 13 135 13 135 16 132 17.47"></polyline>
            <polyline id="Fill-3" fill="#FFFFFF" points="70 69 63 107 77 69"></polyline>
            <polyline id="Fill-4" fill="#FFFFFF" points="134 69 138 107 120 75 102 107 107 69"></polyline>
            <polygon id="Fill-5" fill="#FFFFFF" points="157 69 65 69 57 60 165 60"></polygon>
            <polyline id="Fill-6" fill="#FFFFFF" points="153 69 160 107 146 69"></polyline>
            <polygon id="Fill-7" fill="#FFFFFF" points="157 60 150 60 148 47 159 47"></polygon>
            <polygon id="Fill-8" fill="#FFFFFF" points="132 22 122 26 112 22 112 5.47 122 0 132 5.47"></polygon>
            <polygon id="Fill-9" fill="#FFFFFF" points="36 107 27 107 22 88 41 88"></polygon>
            <polygon id="Fill-10" fill="#CCEFFF" points="120 75 138 107 134 69 112 69 108.527 95.397"></polygon>
            <polygon id="Fill-11" fill="#CCEFFF" points="154.1055 75 153.0005 69 146.0005 69 148.2105 75"></polygon>
            <polygon id="Fill-12" fill="#CCEFFF" points="68.8945 75 69.9995 69 76.9995 69 74.7895 75"></polygon>
            <polygon id="Fill-13" fill="#CCEFFF" points="31.5 88 41 88 36 107 31.5 107"></polygon>
            <polygon id="Fill-14" fill="#CCEFFF" points="153 60 157 60 159 47 153 47"></polygon>
            <polygon id="Fill-15" fill="#CCEFFF" points="112 11 112 9.5 122 4 132 9.5 132 11"></polygon>
            <polygon id="Stroke-16" stroke="#1050FF" stroke-width="2" stroke-linejoin="round" points="132 22 122 26 112 22 112 5.47 122 0 132 5.47"></polygon>
            <path d="M117,15.5 L117,14" id="Stroke-17" stroke="#1050FF" stroke-width="2" stroke-linecap="round" stroke-linejoin="round"></path>
            <path d="M125,15.5 L125,14" id="Stroke-18" stroke="#1050FF" stroke-width="2" stroke-linecap="round" stroke-linejoin="round"></path>
            <polygon id="Fill-19" fill="#FFFFFF" points="71.3264 60 64.0004 34 97.0004 34 104.3264 60"></polygon>
            <polygon id="Stroke-20" stroke="#1050FF" stroke-width="2" stroke-linecap="round" stroke-linejoin="round" points="71.3264 60 64.0004 34 97.0004 34 104.3264 60"></polygon>
            <polygon id="Fill-21" fill="#CCEFFF" points="86.5 46.5 83.5 48.5 80.5 46.5 80.5 43.5 83.5 41.5 86.5 43.5"></polygon>
            <polygon id="Stroke-22" stroke="#1050FF" stroke-width="2" stroke-linejoin="round" points="86.5 46.5 83.5 48.5 80.5 46.5 80.5 43.5 83.5 41.5 86.5 43.5"></polygon>
            <polyline id="Stroke-23" stroke="#1050FF" stroke-width="2" stroke-linecap="round" stroke-linejoin="round" points="128.2705 30.4282 121.9995 43.0002 115.7295 30.4282"></polyline>
            <path d="M132,11 L103,11" id="Stroke-24" stroke="#1050FF" stroke-width="2" stroke-linecap="round" stroke-linejoin="round"></path>
            <polyline id="Stroke-25" stroke="#1050FF" stroke-width="2" stroke-linecap="round" stroke-linejoin="round" points="123.5 20 121 21 118.5 20"></polyline>
            <polyline id="Stroke-26" stroke="#1050FF" stroke-width="2" stroke-linecap="round" stroke-linejoin="round" points="132 13 135 13 135 16 132 17.47"></polyline>
            <path d="M103.1992,56 L70.2002,56" id="Stroke-27" stroke="#1050FF" stroke-width="2" stroke-linecap="round" stroke-linejoin="round"></path>
            <polygon id="Fill-28" fill="#FFFFFF" points="104.3264 60 120.0004 60 118.0004 56 103.1994 56"></polygon>
            <polygon id="Stroke-29" stroke="#1050FF" stroke-width="2" stroke-linecap="round" stroke-linejoin="round" points="104.3264 60 120.0004 60 118.0004 56 103.1994 56"></polygon>
            <polyline id="Stroke-30" stroke="#1050FF" stroke-width="2" stroke-linecap="round" stroke-linejoin="round" points="134 42 134 49 119 60 125 60 140 54 140 35 122 28 104 34.97 103 41"></polyline>
            <path d="M134,42 L134,47" id="Stroke-31" stroke="#1050FF" stroke-width="2" stroke-linecap="round" stroke-linejoin="round"></path>
            <polygon id="Stroke-32" stroke="#1050FF" stroke-width="2" stroke-linecap="round" stroke-linejoin="round" points="157 69 65 69 57 60 165 60"></polygon>
            <polyline id="Stroke-33" stroke="#1050FF" stroke-width="2" stroke-linecap="round" stroke-linejoin="round" points="70 69 63 107 77 69"></polyline>
            <polyline id="Stroke-34" stroke="#1050FF" stroke-width="2" stroke-linecap="round" stroke-linejoin="round" points="153 69 160 107 146 69"></polyline>
            <path d="M9,107 L183,107" id="Stroke-35" stroke="#1050FF" stroke-width="2" stroke-linecap="round" stroke-linejoin="round"></path>
            <path d="M188,107 L191,107" id="Stroke-36" stroke="#1050FF" stroke-width="2" stroke-linecap="round" stroke-linejoin="round"></path>
            <path d="M0,107 L3,107" id="Stroke-37" stroke="#1050FF" stroke-width="2" stroke-linecap="round" stroke-linejoin="round"></path>
            <polyline id="Stroke-38" stroke="#1050FF" stroke-width="2" stroke-linecap="round" stroke-linejoin="round" points="134 69 138 107 120 75 102 107 107 69"></polyline>
            <polyline id="Stroke-39" stroke="#1050FF" stroke-width="2" stroke-linecap="round" stroke-linejoin="round" points="150 41 152 39 148 35 150 33"></polyline>
            <polyline id="Stroke-40" stroke="#1050FF" stroke-width="2" stroke-linecap="round" stroke-linejoin="round" points="157 41 159 39 155 35 157 33"></polyline>
            <polygon id="Stroke-41" stroke="#1050FF" stroke-width="2" stroke-linecap="round" stroke-linejoin="round" points="157 60 150 60 148 47 159 47"></polygon>
            <polygon id="Stroke-42" stroke="#1050FF" stroke-width="2" stroke-linecap="round" stroke-linejoin="round" points="36 107 27 107 22 88 41 88"></polygon>
            <polygon id="Fill-43" fill="#FFFFFF" points="36 71 40 71 44 63 36 67"></polygon>
            <polygon id="Stroke-44" stroke="#1050FF" stroke-width="2" stroke-linecap="round" stroke-linejoin="round" points="36 71 40 71 44 63 36 67"></polygon>
            <polygon id="Fill-45" fill="#FFFFFF" points="27 78 23 78 16 68 27 74"></polygon>
            <polygon id="Stroke-46" stroke="#1050FF" stroke-width="2" stroke-linecap="round" stroke-linejoin="round" points="27 78 23 78 16 68 27 74"></polygon>
            <polygon id="Fill-47" fill="#FFFFFF" points="37 52 41 52 48 42 37 48"></polygon>
            <polygon id="Stroke-48" stroke="#1050FF" stroke-width="2" stroke-linecap="round" stroke-linejoin="round" points="37 52 41 52 48 42 37 48"></polygon>
            <polygon id="Fill-49" fill="#FFFFFF" points="23 62 12 50 28 57 28 62"></polygon>
            <polygon id="Stroke-50" stroke="#1050FF" stroke-width="2" stroke-linecap="round" stroke-linejoin="round" points="23 62 12 50 28 57 28 62"></polygon>
            <path d="M32,88 L32,35" id="Stroke-51" stroke="#1050FF" stroke-width="2" stroke-linecap="round" stroke-linejoin="round"></path>
            <polygon id="Fill-52" fill="#FFFFFF" points="28 40 18 32 23 43 28 45"></polygon>
            <polygon id="Stroke-53" stroke="#1050FF" stroke-width="2" stroke-linecap="round" stroke-linejoin="round" points="28 40 18 32 23 43 28 45"></polygon>
            <polyline id="Stroke-54" stroke="#1050FF" stroke-width="2" stroke-linecap="round" stroke-linejoin="round" points="24.5 97 28.5 93 31.5 96 34.5 93 38.5 97"></polyline>
        </g>
    </g>
</svg>