<?xml version="1.0" encoding="iso-8859-1"?>
<!-- Generator: Adobe Illustrator 19.0.0, SVG Export Plug-In . SVG Version: 6.00 Build 0)  -->
<svg xmlns="http://www.w3.org/2000/svg" xmlns:xlink="http://www.w3.org/1999/xlink" version="1.1" id="Capa_1" x="0px" y="0px" viewBox="0 0 480 480" style="enable-background:new 0 0 480 480;" xml:space="preserve" width="512px" height="512px">
<g>
	<g>
		<path d="M416,293.552V8c0-4.416-3.576-8-8-8h-48h-40c-4.424,0-8,3.584-8,8v24h-24c-4.424,0-8,3.584-8,8v32c0,4.416,3.576,8,8,8h24    v24c0,4.416,3.576,8,8,8h32v181.552c-37.968,13.44-64,49.792-64,90.448c0,52.936,43.064,96,96,96c52.936,0,96-43.064,96-96    C480,343.344,453.968,306.992,416,293.552z M328,96V72c0-4.416-3.576-8-8-8h-24V48h24c4.424,0,8-3.584,8-8V16h24v80H328z M384,464    c-44.112,0-80-35.888-80-80c0-35.576,23.92-67.2,58.176-76.904c3.448-0.976,5.824-4.12,5.824-7.696V104V16h32v283.4    c0,3.576,2.376,6.72,5.824,7.696C440.08,316.8,464,348.424,464,384C464,428.112,428.112,464,384,464z" fill="#FFFFFF"/>
	</g>
</g>
<g>
	<g>
		<path d="M192,48c4.424,0,8-3.584,8-8V8c0-4.416-3.576-8-8-8h-72H72c-4.424,0-8,3.584-8,8v285.552C26.032,306.992,0,343.344,0,384    c0,52.936,43.064,96,96,96c52.936,0,96-43.064,96-96c0-40.656-26.032-77.008-64-90.448V112h64c4.424,0,8-3.584,8-8V72    c0-4.416-3.576-8-8-8h-24V48H192z M176,384c0,44.112-35.888,80-80,80s-80-35.888-80-80c0-35.576,23.92-67.2,58.176-76.904    C77.624,306.12,80,302.976,80,299.4V16h32v88v195.4c0,3.576,2.376,6.72,5.824,7.696C152.08,316.8,176,348.424,176,384z M160,80h24    v16h-56V16h56v16h-24c-4.424,0-8,3.584-8,8v32C152,76.416,155.576,80,160,80z" fill="#FFFFFF"/>
	</g>
</g>
<g>
	<g>
		<path d="M296,184h-8v-24c0-26.472-21.528-48-48-48s-48,21.528-48,48v24h-8c-4.424,0-8,3.584-8,8v112c0,4.416,3.576,8,8,8h112    c4.424,0,8-3.584,8-8V192C304,187.584,300.424,184,296,184z M208,160c0-17.648,14.352-32,32-32s32,14.352,32,32v24h-64V160z     M288,296h-96v-96h96V296z" fill="#FFFFFF"/>
	</g>
</g>
<g>
	<g>
		<path d="M240,216c-13.232,0-24,10.768-24,24c0,10.416,6.712,19.216,16,22.528V280h16v-17.472c9.288-3.312,16-12.112,16-22.528    C264,226.768,253.232,216,240,216z M240,248c-4.416,0-8-3.592-8-8c0-4.408,3.584-8,8-8s8,3.592,8,8    C248,244.408,244.416,248,240,248z" fill="#FFFFFF"/>
	</g>
</g>
<g>
	<g>
		<path d="M96,392c-13.232,0-24,10.768-24,24s10.768,24,24,24s24-10.768,24-24S109.232,392,96,392z M96,424c-4.416,0-8-3.592-8-8    c0-4.408,3.584-8,8-8s8,3.592,8,8C104,420.408,100.416,424,96,424z" fill="#FFFFFF"/>
	</g>
</g>
<g>
	<g>
		<path d="M384,392c-13.232,0-24,10.768-24,24s10.768,24,24,24s24-10.768,24-24S397.232,392,384,392z M384,424c-4.416,0-8-3.592-8-8    c0-4.408,3.584-8,8-8c4.416,0,8,3.592,8,8C392,420.408,388.416,424,384,424z" fill="#FFFFFF"/>
	</g>
</g>
<g>
</g>
<g>
</g>
<g>
</g>
<g>
</g>
<g>
</g>
<g>
</g>
<g>
</g>
<g>
</g>
<g>
</g>
<g>
</g>
<g>
</g>
<g>
</g>
<g>
</g>
<g>
</g>
<g>
</g>
</svg>
