<svg width="78" height="49" viewBox="0 0 78 49" fill="none" xmlns="http://www.w3.org/2000/svg">
<path d="M78.0001 24.5C78.0001 37.5413 67.6001 48.2 54.6001 48.2C41.7239 48.2 31.2001 37.5413 31.2001 24.5C31.2001 11.4588 41.6001 0.800049 54.4763 0.800049C67.6001 0.800049 78.0001 11.4588 78.0001 24.5Z" fill="#FFB600"/>
<path d="M54.6001 0.800049C67.4762 0.800049 78.0001 11.4588 78.0001 24.5C78.0001 37.5413 67.6001 48.2 54.6001 48.2C41.7239 48.2 31.2001 37.5413 31.2001 24.5" fill="#F7981D"/>
<path d="M54.6 0.800049C67.4762 0.800049 78 11.4588 78 24.5C78 37.5413 67.6 48.2 54.6 48.2" fill="#FF8500"/>
<path d="M23.1524 0.800049C10.4 0.925446 0 11.4588 0 24.5C0 37.5413 10.4 48.2 23.4 48.2C29.4667 48.2 34.9143 45.8175 39.1238 42.0556C39.9905 41.3032 40.7333 40.4254 41.4762 39.5476H36.6476C36.0286 38.7953 35.4095 37.9175 34.9143 37.1651H43.2095C43.7048 36.4127 44.2 35.535 44.5714 34.6572H33.5524C33.181 33.9048 32.8095 33.027 32.5619 32.1492H45.4381C46.181 29.7667 46.6762 27.2588 46.6762 24.6254C46.6762 22.8699 46.4286 21.2397 46.181 19.6096H31.819C31.9429 18.7318 32.1905 17.9794 32.4381 17.1016H45.3143C45.0667 16.2239 44.6952 15.3461 44.3238 14.5937H33.4286C33.8 13.7159 34.2952 12.9635 34.7905 12.0858H43.0857C42.5905 11.208 41.9714 10.3302 41.2286 9.57782H36.6476C37.3905 8.70005 38.1333 7.94766 39 7.19528C34.9143 3.30798 29.3429 1.05084 23.2762 1.05084C23.2762 0.800049 23.2762 0.800049 23.1524 0.800049Z" fill="#FF5050"/>
<path d="M0 24.5C0 37.5413 10.4 48.2 23.4 48.2C29.4667 48.2 34.9143 45.8174 39.1238 42.0555C39.9905 41.3032 40.7333 40.4254 41.4762 39.5476H36.6476C36.0286 38.7952 35.4095 37.9174 34.9143 37.1651H43.2095C43.7048 36.4127 44.2 35.5349 44.5714 34.6571H33.5524C33.181 33.9047 32.8095 33.027 32.5619 32.1492H45.4381C46.181 29.7666 46.6762 27.2587 46.6762 24.6254C46.6762 22.8698 46.4286 21.2397 46.181 19.6095H31.819C31.9429 18.7317 32.1905 17.9793 32.4381 17.1016H45.3143C45.0667 16.2238 44.6952 15.346 44.3238 14.5936H33.4286C33.8 13.7159 34.2952 12.9635 34.7905 12.0857H43.0857C42.5905 11.2079 41.9714 10.3301 41.2286 9.57776H36.6476C37.3905 8.69999 38.1333 7.94761 39 7.19523C34.9143 3.30792 29.3429 1.05078 23.2762 1.05078H23.1524" fill="#E52836"/>
<path d="M23.4 48.2C29.4666 48.2 34.9143 45.8174 39.1238 42.0555C39.9904 41.3032 40.7333 40.4254 41.4762 39.5476H36.6476C36.0285 38.7952 35.4095 37.9174 34.9143 37.1651H43.2095C43.7047 36.4127 44.2 35.5349 44.5714 34.6571H33.5523C33.1809 33.9047 32.8095 33.027 32.5619 32.1492H45.4381C46.1809 29.7666 46.6762 27.2587 46.6762 24.6254C46.6762 22.8698 46.4285 21.2397 46.1809 19.6095H31.819C31.9428 18.7317 32.1904 17.9793 32.4381 17.1016H45.3143C45.0666 16.2238 44.6952 15.346 44.3238 14.5936H33.4285C33.8 13.7159 34.2952 12.9635 34.7904 12.0857H43.0857C42.5904 11.2079 41.9714 10.3301 41.2285 9.57776H36.6476C37.3904 8.69999 38.1333 7.94761 39 7.19523C34.9143 3.30792 29.3428 1.05078 23.2762 1.05078H23.1523" fill="#CB2026"/>
<path d="M31.6953 30.519L32.0668 28.3873C31.943 28.3873 31.6953 28.5127 31.4477 28.5127C30.5811 28.5127 30.4572 28.0111 30.5811 27.7603L31.3239 23.3714H32.6858L33.0572 20.9889H31.8191L32.0668 19.4841H29.5906C29.5906 19.4841 28.1049 27.7603 28.1049 28.7635C28.1049 30.2682 28.9715 30.8952 30.0858 30.8952C30.8287 30.8952 31.4477 30.6444 31.6953 30.519Z" fill="white"/>
<path d="M32.5619 26.5064C32.5619 30.0175 34.9143 30.8953 36.8952 30.8953C38.7524 30.8953 39.4952 30.5191 39.4952 30.5191L39.9905 28.1365C39.9905 28.1365 38.6286 28.7635 37.3905 28.7635C34.6667 28.7635 35.1619 26.7572 35.1619 26.7572H40.2381C40.2381 26.7572 40.6095 25.127 40.6095 24.5C40.6095 22.8699 39.7428 20.8635 37.019 20.8635C34.419 20.6127 32.5619 23.3715 32.5619 26.5064ZM36.8952 22.8699C38.2571 22.8699 38.0095 24.5 38.0095 24.6254H35.2857C35.2857 24.5 35.5333 22.8699 36.8952 22.8699Z" fill="white"/>
<path d="M52.6191 30.5191L53.1143 27.7603C53.1143 27.7603 51.8762 28.3873 51.0096 28.3873C49.2762 28.3873 48.5334 27.008 48.5334 25.5032C48.5334 22.4937 50.0191 20.8635 51.7524 20.8635C52.9905 20.8635 53.981 21.6159 53.981 21.6159L54.3524 18.9826C54.3524 18.9826 52.8667 18.3556 51.5048 18.3556C48.6572 18.3556 45.8096 20.8635 45.8096 25.6286C45.8096 28.7635 47.2953 30.8953 50.2667 30.8953C51.2572 30.8953 52.6191 30.5191 52.6191 30.5191Z" fill="white"/>
<path d="M18.0763 20.6129C16.343 20.6129 15.1049 21.1145 15.1049 21.1145L14.7335 23.2462C14.7335 23.2462 15.8478 22.7447 17.4573 22.7447C18.324 22.7447 19.0668 22.8701 19.0668 23.6224C19.0668 24.124 18.943 24.2494 18.943 24.2494C18.943 24.2494 18.2001 24.2494 17.8287 24.2494C15.724 24.2494 13.3716 25.1272 13.3716 28.0113C13.3716 30.2684 14.8573 30.77 15.724 30.77C17.4573 30.77 18.2001 29.6415 18.324 29.6415L18.2001 30.6446H20.4287L21.4192 23.7478C21.4192 20.7383 18.943 20.6129 18.0763 20.6129ZM18.5716 26.2558C18.5716 26.632 18.324 28.6383 16.8382 28.6383C16.0954 28.6383 15.8478 28.0113 15.8478 27.6351C15.8478 27.0081 16.2192 26.1304 18.0763 26.1304C18.4478 26.2558 18.5716 26.2558 18.5716 26.2558Z" fill="white"/>
<path d="M23.7714 30.7698C24.3905 30.7698 27.4857 30.8952 27.4857 27.5095C27.4857 24.3746 24.5143 25.0016 24.5143 23.7476C24.5143 23.1206 25.0095 22.8698 25.8762 22.8698C26.2476 22.8698 27.6095 22.9952 27.6095 22.9952L27.981 20.7381C27.981 20.7381 27.1143 20.4873 25.6286 20.4873C23.7714 20.4873 21.9143 21.2397 21.9143 23.7476C21.9143 26.6317 25.0095 26.3809 25.0095 27.5095C25.0095 28.2619 24.1429 28.3873 23.5238 28.3873C22.4095 28.3873 21.2953 28.0111 21.2953 28.0111L20.9238 30.2682C21.0476 30.519 21.6667 30.7698 23.7714 30.7698Z" fill="white"/>
<path d="M73.1715 18.6063L72.6763 21.992C72.6763 21.992 71.6858 20.7381 70.3239 20.7381C68.0953 20.7381 66.1144 23.4968 66.1144 26.7571C66.1144 28.7635 67.1049 30.8952 69.2096 30.8952C70.6953 30.8952 71.562 29.892 71.562 29.892L71.4382 30.7698H73.9144L75.7715 18.7317L73.1715 18.6063ZM72.0572 25.2524C72.0572 26.6317 71.4382 28.3873 70.0763 28.3873C69.2096 28.3873 68.7144 27.6349 68.7144 26.3809C68.7144 24.3746 69.581 23.1206 70.6953 23.1206C71.562 23.1206 72.0572 23.7476 72.0572 25.2524Z" fill="white"/>
<path d="M4.58102 30.6444L6.06673 21.6159L6.31435 30.6444H8.04769L11.2667 21.6159L9.90483 30.6444H12.5048L14.4858 18.6063H10.4001L7.92388 26.0047L7.80007 18.6063H4.20959L2.22864 30.6444H4.58102Z" fill="white"/>
<path d="M42.962 30.6446C43.7048 26.5065 43.8286 23.1208 45.562 23.7478C45.8096 22.1176 46.181 21.4906 46.4286 20.8636C46.4286 20.8636 46.3048 20.8636 45.9334 20.8636C44.8191 20.8636 43.9524 22.3684 43.9524 22.3684L44.2001 20.989H41.8477L40.2382 30.77H42.962V30.6446Z" fill="white"/>
<path d="M58.3144 20.6129C56.581 20.6129 55.343 21.1145 55.343 21.1145L54.9715 23.2462C54.9715 23.2462 56.0858 22.7447 57.6953 22.7447C58.562 22.7447 59.3049 22.8701 59.3049 23.6224C59.3049 24.124 59.181 24.2494 59.181 24.2494C59.181 24.2494 58.4382 24.2494 58.0668 24.2494C55.962 24.2494 53.6096 25.1272 53.6096 28.0113C53.6096 30.2684 55.0953 30.77 55.962 30.77C57.6953 30.77 58.4382 29.6415 58.562 29.6415L58.4382 30.6446H60.6668L61.6572 23.7478C61.781 20.7383 59.181 20.6129 58.3144 20.6129ZM58.9334 26.2558C58.9334 26.632 58.6858 28.6383 57.2001 28.6383C56.4572 28.6383 56.2096 28.0113 56.2096 27.6351C56.2096 27.0081 56.581 26.1304 58.4382 26.1304C58.8096 26.2558 58.8096 26.2558 58.9334 26.2558Z" fill="white"/>
<path d="M63.7619 30.6446C64.5048 26.5065 64.6286 23.1208 66.3619 23.7478C66.6095 22.1176 66.9809 21.4906 67.2286 20.8636C67.2286 20.8636 67.1048 20.8636 66.7333 20.8636C65.619 20.8636 64.7524 22.3684 64.7524 22.3684L65 20.989H62.6476L61.0381 30.77H63.7619V30.6446Z" fill="white"/>
<path d="M27.8572 28.7635C27.8572 30.2682 28.7238 30.8952 29.8381 30.8952C30.7048 30.8952 31.4477 30.6444 31.6953 30.519L32.0667 28.3873C31.9429 28.3873 31.6953 28.5127 31.4477 28.5127C30.581 28.5127 30.4572 28.0111 30.581 27.7603L31.3238 23.3714H32.6857L33.0572 20.9889H31.8191L32.0667 19.4841" fill="#DCE5E5"/>
<path d="M33.7999 26.5064C33.7999 30.0175 34.9142 30.8953 36.8952 30.8953C38.7523 30.8953 39.4952 30.5191 39.4952 30.5191L39.9904 28.1365C39.9904 28.1365 38.6285 28.7635 37.3904 28.7635C34.6666 28.7635 35.1618 26.7572 35.1618 26.7572H40.238C40.238 26.7572 40.6095 25.127 40.6095 24.5C40.6095 22.8699 39.7428 20.8635 37.019 20.8635C34.419 20.6127 33.7999 23.3715 33.7999 26.5064ZM36.8952 22.8699C38.2571 22.8699 38.5047 24.5 38.5047 24.6254H35.2856C35.2856 24.5 35.5333 22.8699 36.8952 22.8699Z" fill="#DCE5E5"/>
<path d="M52.6192 30.5191L53.1144 27.7603C53.1144 27.7603 51.8763 28.3873 51.0096 28.3873C49.2763 28.3873 48.5334 27.008 48.5334 25.5032C48.5334 22.4937 50.0192 20.8635 51.7525 20.8635C52.9906 20.8635 53.9811 21.6159 53.9811 21.6159L54.3525 18.9826C54.3525 18.9826 52.8668 18.3556 51.5049 18.3556C48.6573 18.3556 47.0477 20.8635 47.0477 25.6286C47.0477 28.7635 47.2953 30.8953 50.2668 30.8953C51.2573 30.8953 52.6192 30.5191 52.6192 30.5191Z" fill="#DCE5E5"/>
<path d="M14.7335 23.3716C14.7335 23.3716 15.8478 22.87 17.4573 22.87C18.324 22.87 19.0668 22.9954 19.0668 23.7478C19.0668 24.2494 18.943 24.3748 18.943 24.3748C18.943 24.3748 18.2001 24.3748 17.8287 24.3748C15.724 24.3748 13.3716 25.2525 13.3716 28.1367C13.3716 30.3938 14.8573 30.8954 15.724 30.8954C17.4573 30.8954 18.2001 29.7668 18.324 29.7668L18.2001 30.77H20.4287L21.4192 23.8732C21.4192 20.989 18.943 20.8636 17.9525 20.8636L14.7335 23.3716ZM19.8097 26.2557C19.8097 26.6319 18.324 28.6382 16.8382 28.6382C16.0954 28.6382 15.8478 28.0113 15.8478 27.6351C15.8478 27.0081 16.2192 26.1303 18.0763 26.1303C18.4478 26.2557 19.8097 26.2557 19.8097 26.2557Z" fill="#DCE5E5"/>
<path d="M21.0477 30.519C21.0477 30.519 21.7906 30.7698 23.8953 30.7698C24.5144 30.7698 27.6096 30.8952 27.6096 27.5095C27.6096 24.3746 24.6382 25.0016 24.6382 23.7476C24.6382 23.1206 25.1334 22.8698 26.0001 22.8698C26.3715 22.8698 27.7334 22.9952 27.7334 22.9952L28.1049 20.7381C28.1049 20.7381 27.2382 20.4873 25.7525 20.4873C23.8953 20.4873 23.2763 21.2397 23.2763 23.7476C23.2763 26.6317 25.1334 26.3809 25.1334 27.5095C25.1334 28.2619 24.2668 28.3873 23.6477 28.3873" fill="#DCE5E5"/>
<path d="M72.6763 21.992C72.6763 21.992 71.6858 20.738 70.3239 20.738C68.0953 20.738 67.3525 23.4968 67.3525 26.7571C67.3525 28.7634 67.1049 30.8952 69.2096 30.8952C70.6953 30.8952 71.562 29.892 71.562 29.892L71.4382 30.7698H73.9144L75.7715 18.7317L72.6763 21.992ZM72.5525 25.2523C72.5525 26.6317 71.4382 28.3872 70.0763 28.3872C69.2096 28.3872 68.7144 27.6349 68.7144 26.3809C68.7144 24.3745 69.5811 23.1206 70.6953 23.1206C71.562 23.1206 72.5525 23.7476 72.5525 25.2523Z" fill="#DCE5E5"/>
<path d="M4.58102 30.6444L6.06673 21.6159L6.31435 30.6444H8.04769L11.2667 21.6159L9.90483 30.6444H12.5048L14.4858 18.6063H11.3905L7.92388 26.0047L7.80007 18.6063H6.43816L2.22864 30.6444H4.58102Z" fill="#DCE5E5"/>
<path d="M40.3621 30.6446H42.9621C43.7049 26.5065 43.8287 23.1208 45.5621 23.7478C45.8097 22.1176 46.1811 21.4906 46.4287 20.8636C46.4287 20.8636 46.3049 20.8636 45.9335 20.8636C44.8192 20.8636 43.9525 22.3684 43.9525 22.3684L44.2002 20.989" fill="#DCE5E5"/>
<path d="M54.9715 23.3716C54.9715 23.3716 56.0858 22.87 57.6953 22.87C58.562 22.87 59.3049 22.9954 59.3049 23.7478C59.3049 24.2494 59.1811 24.3748 59.1811 24.3748C59.1811 24.3748 58.4382 24.3748 58.0668 24.3748C55.962 24.3748 53.6096 25.2525 53.6096 28.1367C53.6096 30.3938 55.0953 30.8954 55.962 30.8954C57.6953 30.8954 58.4382 29.7668 58.562 29.7668L58.4382 30.77H60.6668L61.6572 23.8732C61.6572 20.989 59.1811 20.8636 58.1906 20.8636L54.9715 23.3716ZM60.0477 26.2557C60.0477 26.6319 58.562 28.6382 57.0763 28.6382C56.3334 28.6382 56.0858 28.0113 56.0858 27.6351C56.0858 27.0081 56.4572 26.1303 58.3144 26.1303C58.8096 26.2557 60.0477 26.2557 60.0477 26.2557Z" fill="#DCE5E5"/>
<path d="M61.1619 30.6446H63.7619C64.5047 26.5065 64.6285 23.1208 66.3619 23.7478C66.6095 22.1176 66.9809 21.4906 67.2285 20.8636C67.2285 20.8636 67.1047 20.8636 66.7333 20.8636C65.619 20.8636 64.7523 22.3684 64.7523 22.3684L65 20.989" fill="#DCE5E5"/>
</svg>
