<?xml version="1.0" encoding="iso-8859-1"?>
<!-- Generator: Adobe Illustrator 19.0.0, SVG Export Plug-In . SVG Version: 6.00 Build 0)  -->
<svg xmlns="http://www.w3.org/2000/svg" xmlns:xlink="http://www.w3.org/1999/xlink" version="1.1" id="Capa_1" x="0px" y="0px" viewBox="0 0 368 368" style="enable-background:new 0 0 368 368;" xml:space="preserve" width="512px" height="512px">
<g>
	<g>
		<path d="M184,160c-4.424,0-8,3.584-8,8v32h-32v-80c0-26.472-21.528-48-48-48s-48,21.528-48,48v80H16.008v-32c0-4.416-3.576-8-8-8    s-8,3.584-8,8v39.96C0.008,207.976,0,207.984,0,208s0.008,0.032,0.008,0.048C0.032,258.264,38.824,299.512,88,303.592V352H56    c-4.424,0-8,3.584-8,8c0,4.416,3.576,8,8,8h80c4.424,0,8-3.584,8-8c0-4.416-3.576-8-8-8h-32v-48.408    c49.2-4.088,88-45.352,88-95.592v-40C192,163.584,188.424,160,184,160z M64,120c0-17.648,14.352-32,32-32s32,14.352,32,32v88    c0,17.648-14.352,32-32,32s-32-14.352-32-32V120z M96.016,288c-41.408,0-75.576-31.632-79.6-72h32.312    c3.824,22.664,23.536,40,47.28,40s43.456-17.336,47.28-40h32.32C171.584,256.368,137.424,288,96.016,288z" fill="#FFFFFF"/>
	</g>
</g>
<g>
	<g>
		<path d="M365.656,50.344l-48-48C316.16,0.84,314.128,0,312,0H96c-4.424,0-8,3.584-8,8v24c0,4.416,3.576,8,8,8s8-3.584,8-8V16    h204.688L352,59.312V352H184c-4.424,0-8,3.584-8,8c0,4.416,3.576,8,8,8h176c4.424,0,8-3.584,8-8V56    C368,53.88,367.16,51.84,365.656,50.344z" fill="#FFFFFF"/>
	</g>
</g>
<g>
	<g>
		<path d="M317.656,74.344l-24-24C292.16,48.84,290.128,48,288,48H160c-4.424,0-8,3.584-8,8s3.576,8,8,8h124.688L304,83.312V304h-88    c-4.424,0-8,3.584-8,8c0,4.416,3.576,8,8,8h96c4.424,0,8-3.584,8-8V80C320,77.88,319.16,75.84,317.656,74.344z" fill="#FFFFFF"/>
	</g>
</g>
<g>
</g>
<g>
</g>
<g>
</g>
<g>
</g>
<g>
</g>
<g>
</g>
<g>
</g>
<g>
</g>
<g>
</g>
<g>
</g>
<g>
</g>
<g>
</g>
<g>
</g>
<g>
</g>
<g>
</g>
</svg>
