<?xml version="1.0" encoding="iso-8859-1"?>
<!-- Generator: Adobe Illustrator 19.0.0, SVG Export Plug-In . SVG Version: 6.00 Build 0)  -->
<svg xmlns="http://www.w3.org/2000/svg" xmlns:xlink="http://www.w3.org/1999/xlink" version="1.1" id="Capa_1" x="0px" y="0px" viewBox="0 0 477.669 477.669" style="enable-background:new 0 0 477.669 477.669;" xml:space="preserve" width="512px" height="512px">
<g>
	<g>
		<path d="M445.669,434.316c-11.967-11.944-31.345-11.944-43.312,0l-16,16c-5.836,5.59-15.098,5.391-20.688-0.445    c-5.421-5.659-5.421-14.584,0-20.243l16-16c11.96-11.952,11.967-31.337,0.014-43.298c-0.005-0.005-0.01-0.01-0.014-0.014    l-22.344-22.344l22.344-22.344c3.078-3.082,3.124-8.061,0.104-11.2l-206.64-214.6c6.526-48.139-27.208-92.453-75.347-98.979    C51.648-5.677,7.333,28.057,0.808,76.196c-6.526,48.139,27.208,92.453,75.347,98.979c3.93,0.533,7.892,0.799,11.859,0.797    c3.965-0.034,7.923-0.333,11.848-0.896l214.6,206.656c3.139,3.02,8.118,2.974,11.2-0.104l22.352-22.344l22.344,22.344    c5.702,5.717,5.702,14.971,0,20.688l-16,16c-11.96,11.96-11.96,31.352,0,43.312c11.96,11.96,31.352,11.96,43.312,0l16-16    c5.791-5.52,14.897-5.52,20.688,0l32,32l11.312-11.312L445.669,434.316z M88.013,159.972c-16.327,0.006-32.165-5.568-44.888-15.8    l74.544-74.544l-11.312-11.312L31.813,132.86C6.974,101.87,11.959,56.612,42.949,31.772C55.732,21.526,71.63,15.952,88.013,15.972    c16.327-0.006,32.165,5.568,44.888,15.8l-10.544,10.544l11.312,11.312l10.544-10.544c10.232,12.723,15.806,28.561,15.8,44.888    c-0.029,4.763-0.527,9.511-1.488,14.176l-56.432,56.432C97.456,159.501,92.741,159.967,88.013,159.972z M319.909,364.772    L115.437,167.86l52.464-52.464l196.912,204.472L319.909,364.772z" fill="#FFFFFF"/>
	</g>
</g>
<g>
	<g>
		<rect x="236.017" y="227.003" transform="matrix(0.7071 -0.7071 0.7071 0.7071 -101.0451 244.0047)" width="16" height="33.944" fill="#FFFFFF"/>
	</g>
</g>
<g>
	<g>
		<rect x="208.032" y="204.66" transform="matrix(0.7071 -0.7071 0.7071 0.7071 -89.4408 216.0153)" width="16" height="22.624" fill="#FFFFFF"/>
	</g>
</g>
<g>
	<g>
		<rect x="184.011" y="180.66" transform="matrix(0.7071 -0.7071 0.7071 0.7071 -79.5059 191.9995)" width="16" height="22.624" fill="#FFFFFF"/>
	</g>
</g>
<g>
	<g>
		<path d="M244.685,385.484c-2.084-1.503-4.762-1.913-7.2-1.104l-48,16c-3.268,1.089-5.473,4.147-5.472,7.592v43.056l-11.576,5.784    l7.152,14.32l16-8c2.712-1.355,4.425-4.128,4.424-7.16V413.74l32-10.672v31.96l-11.576,5.784l7.152,14.32l16-8    c2.712-1.355,4.425-4.128,4.424-7.16v-48C248.011,389.4,246.773,386.986,244.685,385.484z" fill="#FFFFFF"/>
	</g>
</g>
<g>
	<g>
		<path d="M309.485,8.364l-24,8c-3.274,1.09-5.48,4.157-5.472,7.608v43.056l-11.576,5.784l7.152,14.36l16-8    c2.725-1.362,4.441-4.153,4.424-7.2V29.74l18.528-6.176L309.485,8.364z" fill="#FFFFFF"/>
	</g>
</g>
<g>
	<g>
		<path d="M426.357,227.684c-5.785,5.537-14.903,5.537-20.688,0c-11.967-11.944-31.345-11.944-43.312,0l11.312,11.312    c5.719-5.698,14.969-5.698,20.688,0c11.952,11.96,31.337,11.967,43.298,0.014c0.005-0.005,0.01-0.01,0.014-0.014    c5.719-5.698,14.969-5.698,20.688,0l11.312-11.312C457.702,215.74,438.324,215.74,426.357,227.684z" fill="#FFFFFF"/>
	</g>
</g>
<g>
	<g>
		<polygon points="456.013,31.972 456.013,15.972 440.013,15.972 440.013,31.972 424.013,31.972 424.013,47.972 440.013,47.972     440.013,63.972 456.013,63.972 456.013,47.972 472.013,47.972 472.013,31.972   " fill="#FFFFFF"/>
	</g>
</g>
<g>
	<g>
		<polygon points="53.669,437.628 42.357,426.316 28.013,440.66 13.669,426.316 2.357,437.628 16.701,451.972 2.357,466.316     13.669,477.628 28.013,463.284 42.357,477.628 53.669,466.316 39.325,451.972   " fill="#FFFFFF"/>
	</g>
</g>
<g>
	<g>
		<path d="M92.013,247.972c-15.464,0-28,12.536-28,28c0,15.464,12.536,28,28,28s28-12.536,28-28    C120.013,260.508,107.477,247.972,92.013,247.972z M92.013,287.972c-6.627,0-12-5.373-12-12c0-6.627,5.373-12,12-12    s12,5.373,12,12C104.013,282.599,98.641,287.972,92.013,287.972z" fill="#FFFFFF"/>
	</g>
</g>
<g>
</g>
<g>
</g>
<g>
</g>
<g>
</g>
<g>
</g>
<g>
</g>
<g>
</g>
<g>
</g>
<g>
</g>
<g>
</g>
<g>
</g>
<g>
</g>
<g>
</g>
<g>
</g>
<g>
</g>
</svg>
