<?xml version="1.0" encoding="iso-8859-1"?>
<!-- Generator: Adobe Illustrator 19.0.0, SVG Export Plug-In . SVG Version: 6.00 Build 0)  -->
<svg xmlns="http://www.w3.org/2000/svg" xmlns:xlink="http://www.w3.org/1999/xlink" version="1.1" id="Capa_1" x="0px" y="0px" viewBox="0 0 368.003 368.003" style="enable-background:new 0 0 368.003 368.003;" xml:space="preserve" width="512px" height="512px">
<g>
	<g>
		<path d="M280.001,96.003h-13.96L91.834,0.979c-3.88-2.12-8.736-0.68-10.856,3.192c-2.12,3.88-0.688,8.736,3.192,10.856    l148.456,80.976H88.001c-48.52,0-88,39.48-88,88v160c0,13.232,10.768,24,24,24h320c13.232,0,24-10.768,24-24v-160    C368.001,135.483,328.521,96.003,280.001,96.003z M64.001,352.003h-40c-4.408,0-8-3.592-8-8v-40h48V352.003z M288.001,352.003    h-208v-48h208V352.003z M352.001,344.003c0,4.408-3.592,8-8,8h-40v-48h48V344.003z M352.001,288.003h-336v-104    c0-39.696,32.304-72,72-72h192c39.696,0,72,32.296,72,72V288.003z" fill="#FFFFFF"/>
	</g>
</g>
<g>
	<g>
		<path d="M264.001,144.003h-160c-30.88,0-56,25.12-56,56s25.12,56,56,56h160c30.88,0,56-25.12,56-56    S294.881,144.003,264.001,144.003z M224.881,160.003c-8.592,8.408-14.448,19.544-16.248,32h-49.28    c-1.792-12.456-7.648-23.592-16.248-32H224.881z M104.001,240.003c-22.056,0-40-17.944-40-40c0-22.056,17.944-40,40-40    c22.056,0,40,17.944,40,40C144.001,222.059,126.058,240.003,104.001,240.003z M143.121,240.003    c8.592-8.408,14.448-19.544,16.248-32h49.28c1.792,12.456,7.648,23.592,16.248,32H143.121z M264.001,240.003    c-22.056,0-40-17.944-40-40c0-22.056,17.944-40,40-40c22.056,0,40,17.944,40,40C304.001,222.059,286.057,240.003,264.001,240.003z    " fill="#FFFFFF"/>
	</g>
</g>
<g>
</g>
<g>
</g>
<g>
</g>
<g>
</g>
<g>
</g>
<g>
</g>
<g>
</g>
<g>
</g>
<g>
</g>
<g>
</g>
<g>
</g>
<g>
</g>
<g>
</g>
<g>
</g>
<g>
</g>
</svg>
