<svg width="64" height="20" viewBox="0 0 64 20" fill="none" xmlns="http://www.w3.org/2000/svg">
<path d="M23.4667 19.1936L26.7175 0.907898H31.7968L28.6476 19.1936H23.4667Z" fill="#3C58BF"/>
<path d="M23.4667 19.1936L27.6318 0.907898H31.7968L28.6476 19.1936H23.4667Z" fill="#293688"/>
<path d="M47.0349 1.11116C46.019 0.70481 44.3937 0.298462 42.3619 0.298462C37.2825 0.298462 33.6254 2.83814 33.6254 6.49529C33.6254 9.23814 36.1651 10.6604 38.1968 11.5747C40.2286 12.4889 40.8381 13.0985 40.8381 13.9112C40.8381 15.1302 39.2127 15.7397 37.7905 15.7397C35.7587 15.7397 34.6413 15.435 32.9143 14.7239L32.2032 14.4191L31.4921 18.5842C32.7111 19.0921 34.946 19.6 37.2825 19.6C42.6667 19.6 46.2222 17.0604 46.2222 13.2001C46.2222 11.0667 44.9016 9.44132 41.854 8.12068C40.0254 7.2064 38.9079 6.69846 38.9079 5.78418C38.9079 4.97148 39.8222 4.15878 41.854 4.15878C43.581 4.15878 44.8 4.46354 45.7143 4.86989L46.2222 5.07306L47.0349 1.11116Z" fill="#3C58BF"/>
<path d="M47.0349 1.11116C46.019 0.70481 44.3937 0.298462 42.3619 0.298462C37.2825 0.298462 34.5397 2.83814 34.5397 6.49529C34.5397 9.23814 36.1651 10.6604 38.1968 11.5747C40.2286 12.4889 40.8381 13.0985 40.8381 13.9112C40.8381 15.1302 39.2127 15.7397 37.7905 15.7397C35.7587 15.7397 34.6413 15.435 32.9143 14.7239L32.2032 14.4191L31.4921 18.5842C32.7111 19.0921 34.946 19.6 37.2825 19.6C42.6667 19.6 46.2222 17.0604 46.2222 13.2001C46.2222 11.0667 44.9016 9.44132 41.854 8.12068C40.0254 7.2064 38.9079 6.69846 38.9079 5.78418C38.9079 4.97148 39.8222 4.15878 41.854 4.15878C43.581 4.15878 44.8 4.46354 45.7143 4.86989L46.2222 5.07306L47.0349 1.11116Z" fill="#293688"/>
<path d="M55.7714 0.907898C54.5524 0.907898 53.6381 1.00949 53.1301 2.22853L45.5111 19.1936H50.9968L52.0127 16.146H58.5143L59.1238 19.1936H64L59.7333 0.907898H55.7714ZM53.4349 13.0984C53.7397 12.1841 55.4666 7.71425 55.4666 7.71425C55.4666 7.71425 55.873 6.59679 56.1778 5.88568L56.4825 7.61266C56.4825 7.61266 57.4984 12.1841 57.7016 13.2H53.4349V13.0984Z" fill="#3C58BF"/>
<path d="M56.9905 0.907898C55.7714 0.907898 54.8571 1.00949 54.3492 2.22853L45.5111 19.1936H50.9968L52.0127 16.146H58.5143L59.1238 19.1936H64L59.7333 0.907898H56.9905ZM53.4349 13.0984C53.8413 12.0825 55.4666 7.71425 55.4666 7.71425C55.4666 7.71425 55.873 6.59679 56.1778 5.88568L56.4825 7.61266C56.4825 7.61266 57.4984 12.1841 57.7016 13.2H53.4349V13.0984Z" fill="#293688"/>
<path d="M14.1206 13.7079L13.6127 11.0667C12.6984 8.01904 9.75238 4.66666 6.50159 3.04127L11.073 19.2952H16.5587L24.7873 1.00952H19.3016L14.1206 13.7079Z" fill="#3C58BF"/>
<path d="M14.1206 13.7079L13.6127 11.0667C12.6984 8.01904 9.75238 4.66666 6.50159 3.04127L11.073 19.2952H16.5587L24.7873 1.00952H20.3175L14.1206 13.7079Z" fill="#293688"/>
<path d="M0 0.907898L0.914286 1.11107C7.41587 2.63488 11.8857 6.4952 13.6127 11.0666L11.7841 2.43171C11.4794 1.21266 10.5651 0.907898 9.44762 0.907898H0Z" fill="#FFBC00"/>
<path d="M0 0.907898C6.50159 2.43171 11.8857 6.39361 13.6127 10.965L11.8857 3.75234C11.581 2.5333 10.5651 1.82219 9.44762 1.82219L0 0.907898Z" fill="#F7981D"/>
<path d="M0 0.907898C6.50159 2.43171 11.8857 6.39361 13.6127 10.965L12.3937 7.00313C12.0889 5.78409 11.6825 4.56504 10.2603 4.0571L0 0.907898Z" fill="#ED7C00"/>
<path d="M19.2 13.0984L15.746 9.6444L14.1206 13.5047L13.7143 10.965C12.8 7.91741 9.85394 4.56503 6.60315 2.93964L11.1746 19.1936H16.6603L19.2 13.0984Z" fill="#051244"/>
<path d="M28.6476 19.1936L24.2794 14.7238L23.4667 19.1936H28.6476Z" fill="#051244"/>
<path d="M40.3302 12.8951C40.7365 13.3015 40.9397 13.6063 40.8381 14.0126C40.8381 15.2317 39.2127 15.8412 37.7905 15.8412C35.7587 15.8412 34.6413 15.5364 32.9143 14.8253L32.2032 14.5205L31.4921 18.6856C32.7111 19.1936 34.946 19.7015 37.2825 19.7015C40.5333 19.7015 43.1746 18.7872 44.6984 17.1618L40.3302 12.8951Z" fill="#051244"/>
<path d="M46.2222 19.1936H50.9968L52.0126 16.146H58.5142L59.1238 19.1936H63.9999L62.273 11.7777L56.1777 5.88568L56.4825 7.51108C56.4825 7.51108 57.4984 12.0825 57.7015 13.0984H53.4349C53.8412 12.0825 55.4666 7.71425 55.4666 7.71425C55.4666 7.71425 55.873 6.59679 56.1777 5.88568" fill="#051244"/>
</svg>
