<?xml version="1.0" encoding="utf-8"?>
<!-- Generator: Adobe Illustrator 15.1.0, SVG Export Plug-In . SVG Version: 6.00 Build 0)  -->
<!DOCTYPE svg PUBLIC "-//W3C//DTD SVG 1.1//EN" "http://www.w3.org/Graphics/SVG/1.1/DTD/svg11.dtd">
<svg version="1.1" id="Layer_1" xmlns="http://www.w3.org/2000/svg" xmlns:xlink="http://www.w3.org/1999/xlink" x="0px" y="0px"
	 width="40px" height="40px" viewBox="0 0 40 40" enable-background="new 0 0 40 40" xml:space="preserve">
<path id="path5" fill="#FFFFFF" d="M40,7.595c-1.473,0.651-3.053,1.094-4.713,1.292c1.693-1.017,2.994-2.624,3.607-4.54
	c-1.586,0.939-3.342,1.623-5.211,1.99c-1.496-1.595-3.631-2.592-5.99-2.592c-4.531,0-8.208,3.675-8.208,8.206
	c0,0.645,0.073,1.271,0.213,1.87c-6.819-0.342-12.867-3.608-16.914-8.574C2.078,6.459,1.673,7.869,1.673,9.373
	c0,2.848,1.449,5.358,3.65,6.83c-1.346-0.042-2.61-0.411-3.718-1.025c-0.001,0.033-0.001,0.068-0.001,0.104
	c0,3.978,2.829,7.293,6.583,8.047c-0.688,0.188-1.413,0.288-2.161,0.288c-0.529,0-1.043-0.052-1.545-0.146
	c1.045,3.261,4.075,5.633,7.668,5.698c-2.81,2.201-6.348,3.514-10.193,3.514c-0.661,0-1.314-0.039-1.957-0.114
	c3.632,2.328,7.945,3.688,12.58,3.688c15.094,0,23.35-12.505,23.35-23.35c0-0.355-0.01-0.71-0.025-1.062
	C37.508,10.686,38.9,9.24,40,7.595L40,7.595z"/>
</svg>
