<?xml version="1.0" encoding="utf-8"?>
<!-- Generator: Adobe Illustrator 15.1.0, SVG Export Plug-In . SVG Version: 6.00 Build 0)  -->
<!DOCTYPE svg PUBLIC "-//W3C//DTD SVG 1.1//EN" "http://www.w3.org/Graphics/SVG/1.1/DTD/svg11.dtd">
<svg version="1.1" id="Layer_1" xmlns="http://www.w3.org/2000/svg" xmlns:xlink="http://www.w3.org/1999/xlink" x="0px" y="0px"
	 width="80px" height="80px" viewBox="0 0 80 80" enable-background="new 0 0 80 80" xml:space="preserve">
<path fill="#FFFFFF" d="M59.16,38.491L30.569,20.048c-0.941-0.608-2.172-0.683-3.189-0.193c-1.019,0.483-1.656,1.451-1.656,2.507
	v36.886c0,1.057,0.64,2.022,1.66,2.512c0.447,0.212,0.931,0.313,1.417,0.313c0.623,0,1.243-0.174,1.771-0.512L59.16,43.12
	c0.82-0.527,1.307-1.392,1.307-2.312S59.98,39.022,59.16,38.491z"/>
<path fill="#CF202E" d="M40,0C17.909,0,0,17.909,0,40c0,22.092,17.909,40,40,40c22.092,0,40-17.908,40-40C80,17.909,62.092,0,40,0z
	 M59.16,43.12L30.572,61.562c-0.528,0.338-1.148,0.512-1.771,0.512c-0.486,0-0.971-0.102-1.417-0.313
	c-1.02-0.489-1.66-1.455-1.66-2.512V22.362c0-1.056,0.637-2.024,1.656-2.507c1.017-0.489,2.248-0.415,3.189,0.193L59.16,38.491
	c0.82,0.531,1.307,1.396,1.307,2.316S59.98,42.593,59.16,43.12z"/>
</svg>
