<?xml version="1.0" encoding="UTF-8" standalone="no"?><svg xmlns="http://www.w3.org/2000/svg" xmlns:xlink="http://www.w3.org/1999/xlink" contentScriptType="application/ecmascript" contentStyleType="text/css" height="410px" preserveAspectRatio="none" style="width:1148px;height:410px;background:#00000000;" version="1.1" viewBox="0 0 1148 410" width="1148px" zoomAndPan="magnify"><defs/><g><!--MD5=[1b0f1d4bc34feaedb5789fed429cabc9]
cluster Account--><polygon points="16,71.39,79,71.39,86,93.8783,612,93.8783,612,403.39,16,403.39,16,71.39" style="stroke:#000000;stroke-width:1.5;fill:none;"/><line style="stroke:#000000;stroke-width:1.5;fill:none;" x1="16" x2="86" y1="93.8783" y2="93.8783"/><text fill="#000000" font-family="sans-serif" font-size="14" font-weight="bold" lengthAdjust="spacing" textLength="57" x="20" y="86.9252">Account</text><!--MD5=[d19d31fbbeff6e993dfb0b0ab55cabdc]
cluster Support--><polygon points="636,107.39,698,107.39,705,129.8783,1131,129.8783,1131,367.39,636,367.39,636,107.39" style="stroke:#000000;stroke-width:1.5;fill:none;"/><line style="stroke:#000000;stroke-width:1.5;fill:none;" x1="636" x2="705" y1="129.8783" y2="129.8783"/><text fill="#000000" font-family="sans-serif" font-size="14" font-weight="bold" lengthAdjust="spacing" textLength="56" x="640" y="122.9252">Support</text><!--MD5=[3fd616f346a44cd59a91eb10b19e157c]
class User--><rect codeLine="72" height="40.1328" id="User" style="stroke:#383838;stroke-width:1.5;fill:none;" width="32" x="32" y="226.89"/><text fill="#000000" font-family="sans-serif" font-size="12" lengthAdjust="spacing" textLength="26" x="35" y="243.4916">User</text><line style="stroke:#383838;stroke-width:1.5;" x1="33" x2="63" y1="251.0228" y2="251.0228"/><line style="stroke:#383838;stroke-width:1.5;" x1="33" x2="63" y1="259.0228" y2="259.0228"/><!--MD5=[f3b404240c1dc9d617c021dc65e9e964]
class WalletRecovery--><rect codeLine="14" height="125.8633" id="WalletRecovery" style="stroke:#383838;stroke-width:1.5;fill:none;" width="202" x="99" y="183.89"/><text fill="#000000" font-family="sans-serif" font-size="12" lengthAdjust="spacing" textLength="86" x="157" y="200.4916">WalletRecovery</text><line style="stroke:#383838;stroke-width:1.5;" x1="100" x2="300" y1="208.0228" y2="208.0228"/><ellipse cx="110" cy="219.0228" rx="3" ry="3" style="stroke:#545454;stroke-width:1.0;fill:none;"/><text fill="#000000" font-family="sans-serif" font-size="11" lengthAdjust="spacing" textLength="29" x="119" y="222.6576">id: pk</text><line style="stroke:#383838;stroke-width:1.0;" x1="100" x2="300" y1="228.9779" y2="228.9779"/><ellipse cx="110" cy="239.9779" rx="3" ry="3" style="stroke:#545454;stroke-width:1.0;fill:none;"/><text fill="#000000" font-family="sans-serif" font-size="11" lengthAdjust="spacing" textLength="67" x="119" y="243.6127">wallet: Wallet</text><ellipse cx="110" cy="252.933" rx="3" ry="3" style="stroke:#545454;stroke-width:1.0;fill:none;"/><text fill="#000000" font-family="sans-serif" font-size="11" lengthAdjust="spacing" textLength="91" x="119" y="256.5677">date_added: date</text><ellipse cx="110" cy="265.888" rx="3" ry="3" style="stroke:#545454;stroke-width:1.0;fill:none;"/><text fill="#000000" font-family="sans-serif" font-size="11" lengthAdjust="spacing" textLength="125" x="119" y="269.5228">encrypted_key: varchar</text><ellipse cx="110" cy="278.8431" rx="3" ry="3" style="stroke:#545454;stroke-width:1.0;fill:none;"/><text fill="#000000" font-family="sans-serif" font-size="11" lengthAdjust="spacing" textLength="176" x="119" y="282.4779">recovery_key_hashes: ArrayField</text><line style="stroke:#383838;stroke-width:1.0;" x1="100" x2="300" y1="288.7982" y2="288.7982"/><ellipse cx="110" cy="299.7982" fill="#A6A6A6" rx="3" ry="3" style="stroke:#545454;stroke-width:1.0;"/><text fill="#000000" font-family="sans-serif" font-size="11" lengthAdjust="spacing" textLength="148" x="119" y="303.433">get_encrypted_key_object()</text><!--MD5=[9f070bf9f108c27faa2eb76515c78fb3]
class Wallet--><rect codeLine="25" height="281.3242" id="Wallet" style="stroke:#383838;stroke-width:1.5;fill:none;" width="260" x="336" y="106.39"/><text fill="#000000" font-family="sans-serif" font-size="12" lengthAdjust="spacing" textLength="34" x="449" y="122.9916">Wallet</text><line style="stroke:#383838;stroke-width:1.5;" x1="337" x2="595" y1="130.5228" y2="130.5228"/><ellipse cx="347" cy="141.5228" rx="3" ry="3" style="stroke:#545454;stroke-width:1.0;fill:none;"/><text fill="#000000" font-family="sans-serif" font-size="11" lengthAdjust="spacing" textLength="29" x="356" y="145.1576">id: pk</text><line style="stroke:#383838;stroke-width:1.0;" x1="337" x2="595" y1="151.4779" y2="151.4779"/><ellipse cx="347" cy="162.4779" rx="3" ry="3" style="stroke:#545454;stroke-width:1.0;fill:none;"/><text fill="#000000" font-family="sans-serif" font-size="11" lengthAdjust="spacing" textLength="55" x="356" y="166.1127">user: User</text><ellipse cx="347" cy="175.433" rx="3" ry="3" style="stroke:#545454;stroke-width:1.0;fill:none;"/><text fill="#000000" font-family="sans-serif" font-size="11" lengthAdjust="spacing" textLength="102" x="356" y="179.0677">openpgp_key: Text</text><ellipse cx="347" cy="188.388" rx="3" ry="3" style="stroke:#545454;stroke-width:1.0;fill:none;"/><text fill="#000000" font-family="sans-serif" font-size="11" lengthAdjust="spacing" textLength="149" x="356" y="192.0228">hedera_account_id: varchar</text><ellipse cx="347" cy="201.3431" rx="3" ry="3" style="stroke:#545454;stroke-width:1.0;fill:none;"/><text fill="#000000" font-family="sans-serif" font-size="11" lengthAdjust="spacing" textLength="134" x="356" y="204.9779">hedera_private_key: Text</text><ellipse cx="347" cy="214.2982" rx="3" ry="3" style="stroke:#545454;stroke-width:1.0;fill:none;"/><text fill="#000000" font-family="sans-serif" font-size="11" lengthAdjust="spacing" textLength="130" x="356" y="217.933">hedera_public_key: Text</text><ellipse cx="347" cy="227.2533" rx="3" ry="3" style="stroke:#545454;stroke-width:1.0;fill:none;"/><text fill="#000000" font-family="sans-serif" font-size="11" lengthAdjust="spacing" textLength="118" x="356" y="230.888">solidity_address: Text</text><ellipse cx="347" cy="240.2084" rx="3" ry="3" style="stroke:#545454;stroke-width:1.0;fill:none;"/><text fill="#000000" font-family="sans-serif" font-size="11" lengthAdjust="spacing" textLength="97" x="356" y="243.8431">token_balance: int</text><ellipse cx="347" cy="253.1634" rx="3" ry="3" style="stroke:#545454;stroke-width:1.0;fill:none;"/><text fill="#000000" font-family="sans-serif" font-size="11" lengthAdjust="spacing" textLength="197" x="356" y="256.7982">token_balance_last_update: datetime</text><ellipse cx="347" cy="266.1185" rx="3" ry="3" style="stroke:#545454;stroke-width:1.0;fill:none;"/><text fill="#000000" font-family="sans-serif" font-size="11" lengthAdjust="spacing" textLength="72" x="356" y="269.7533">allowance: int</text><ellipse cx="347" cy="279.0736" rx="3" ry="3" style="stroke:#545454;stroke-width:1.0;fill:none;"/><text fill="#000000" font-family="sans-serif" font-size="11" lengthAdjust="spacing" textLength="172" x="356" y="282.7084">allowance_last_update: datetime</text><ellipse cx="347" cy="292.0287" rx="3" ry="3" style="stroke:#545454;stroke-width:1.0;fill:none;"/><text fill="#000000" font-family="sans-serif" font-size="11" lengthAdjust="spacing" textLength="81" x="356" y="295.6634">contract_id: int</text><ellipse cx="347" cy="304.9838" rx="3" ry="3" style="stroke:#545454;stroke-width:1.0;fill:none;"/><text fill="#000000" font-family="sans-serif" font-size="11" lengthAdjust="spacing" textLength="114" x="356" y="308.6185">date_added: datetime</text><ellipse cx="347" cy="317.9388" rx="3" ry="3" style="stroke:#545454;stroke-width:1.0;fill:none;"/><text fill="#000000" font-family="sans-serif" font-size="11" lengthAdjust="spacing" textLength="159" x="356" y="321.5736">received_starter_tokens: bool</text><line style="stroke:#383838;stroke-width:1.0;" x1="337" x2="595" y1="327.8939" y2="327.8939"/><rect fill="#808080" height="6" style="stroke:#595959;stroke-width:1.0;" width="6" x="344" y="335.8939"/><text fill="#000000" font-family="sans-serif" font-size="11" lengthAdjust="spacing" textLength="142" x="356" y="342.5287">get_openpgp_key_object()</text><rect fill="#808080" height="6" style="stroke:#595959;stroke-width:1.0;" width="6" x="344" y="348.849"/><text fill="#000000" font-family="sans-serif" font-size="11" lengthAdjust="spacing" textLength="213" x="356" y="355.4838">unlock_openpgp_key_object(password)</text><rect fill="#808080" height="6" style="stroke:#595959;stroke-width:1.0;" width="6" x="344" y="361.8041"/><text fill="#000000" font-family="sans-serif" font-size="11" lengthAdjust="spacing" textLength="234" x="356" y="368.4388">get_encrypted_hedera_private_key_object()</text><rect fill="#808080" height="6" style="stroke:#595959;stroke-width:1.0;" width="6" x="344" y="374.7591"/><text fill="#000000" font-family="sans-serif" font-size="11" lengthAdjust="spacing" textLength="163" x="356" y="381.3939">unlock_hedera_key(password)</text><!--MD5=[623138e15cfa829042c5b23cce34ac88]
class PasswordResetRequest--><rect codeLine="53" height="208.5488" id="PasswordResetRequest" style="stroke:#383838;stroke-width:1.5;fill:none;" width="140" x="975" y="142.39"/><text fill="#000000" font-family="sans-serif" font-size="12" lengthAdjust="spacing" textLength="134" x="978" y="158.9916">PasswordResetRequest</text><line style="stroke:#383838;stroke-width:1.5;" x1="976" x2="1114" y1="166.5228" y2="166.5228"/><ellipse cx="986" cy="177.5228" rx="3" ry="3" style="stroke:#545454;stroke-width:1.0;fill:none;"/><text fill="#000000" font-family="sans-serif" font-size="11" lengthAdjust="spacing" textLength="29" x="995" y="181.1576">id: pk</text><line style="stroke:#383838;stroke-width:1.0;" x1="976" x2="1114" y1="187.4779" y2="187.4779"/><ellipse cx="986" cy="198.4779" rx="3" ry="3" style="stroke:#545454;stroke-width:1.0;fill:none;"/><text fill="#000000" font-family="sans-serif" font-size="11" lengthAdjust="spacing" textLength="114" x="995" y="202.1127">date_added: datetime</text><ellipse cx="986" cy="211.433" rx="3" ry="3" style="stroke:#545454;stroke-width:1.0;fill:none;"/><text fill="#000000" font-family="sans-serif" font-size="11" lengthAdjust="spacing" textLength="52" x="995" y="215.0677">date: date</text><ellipse cx="986" cy="224.388" rx="3" ry="3" style="stroke:#545454;stroke-width:1.0;fill:none;"/><text fill="#000000" font-family="sans-serif" font-size="11" lengthAdjust="spacing" textLength="55" x="995" y="228.0228">user: User</text><ellipse cx="986" cy="237.3431" rx="3" ry="3" style="stroke:#545454;stroke-width:1.0;fill:none;"/><text fill="#000000" font-family="sans-serif" font-size="11" lengthAdjust="spacing" textLength="94" x="995" y="240.9779">kyc_image: Image</text><ellipse cx="986" cy="250.2982" rx="3" ry="3" style="stroke:#545454;stroke-width:1.0;fill:none;"/><text fill="#000000" font-family="sans-serif" font-size="11" lengthAdjust="spacing" textLength="107" x="995" y="253.933">kyc_image_2: Image</text><ellipse cx="986" cy="263.2533" rx="3" ry="3" style="stroke:#545454;stroke-width:1.0;fill:none;"/><text fill="#000000" font-family="sans-serif" font-size="11" lengthAdjust="spacing" textLength="85" x="995" y="266.888">kyc_date: Image</text><ellipse cx="986" cy="276.2084" rx="3" ry="3" style="stroke:#545454;stroke-width:1.0;fill:none;"/><text fill="#000000" font-family="sans-serif" font-size="11" lengthAdjust="spacing" textLength="98" x="995" y="279.8431">kyc_date_2: Image</text><ellipse cx="986" cy="289.1634" rx="3" ry="3" style="stroke:#545454;stroke-width:1.0;fill:none;"/><text fill="#000000" font-family="sans-serif" font-size="11" lengthAdjust="spacing" textLength="69" x="995" y="292.7982">status: Enum</text><ellipse cx="986" cy="302.1185" rx="3" ry="3" style="stroke:#545454;stroke-width:1.0;fill:none;"/><text fill="#000000" font-family="sans-serif" font-size="11" lengthAdjust="spacing" textLength="67" x="995" y="305.7533">reason: Text</text><ellipse cx="986" cy="315.0736" rx="3" ry="3" style="stroke:#545454;stroke-width:1.0;fill:none;"/><text fill="#000000" font-family="sans-serif" font-size="11" lengthAdjust="spacing" textLength="83" x="995" y="318.7084">added_by: User</text><rect fill="none" height="6" style="stroke:#595959;stroke-width:1.0;" width="6" x="983" y="325.0287"/><text fill="#000000" font-family="sans-serif" font-size="11" lengthAdjust="spacing" textLength="88" x="995" y="331.6634">partial_key: Text</text><ellipse cx="986" cy="340.9838" rx="3" ry="3" style="stroke:#545454;stroke-width:1.0;fill:none;"/><text fill="#000000" font-family="sans-serif" font-size="11" lengthAdjust="spacing" textLength="96" x="995" y="344.6185">assigned_to: User</text><!--MD5=[f8a50b708fea335f700d83e9f6a752ee]
class PasswordResetRequestAuthorizer--><rect codeLine="78" height="130.8184" id="PasswordResetRequestAuthorizer" style="stroke:#383838;stroke-width:1.5;fill:none;" width="287" x="652.5" y="181.39"/><text fill="#000000" font-family="sans-serif" font-size="12" lengthAdjust="spacing" textLength="194" x="699" y="197.9916">PasswordResetRequestAuthorizer</text><line style="stroke:#383838;stroke-width:1.5;" x1="653.5" x2="938.5" y1="205.5228" y2="205.5228"/><ellipse cx="663.5" cy="216.5228" rx="3" ry="3" style="stroke:#545454;stroke-width:1.0;fill:none;"/><text fill="#000000" font-family="sans-serif" font-size="11" lengthAdjust="spacing" textLength="29" x="672.5" y="220.1576">id: pk</text><line style="stroke:#383838;stroke-width:1.0;" x1="653.5" x2="938.5" y1="226.4779" y2="226.4779"/><ellipse cx="663.5" cy="237.4779" rx="3" ry="3" style="stroke:#545454;stroke-width:1.0;fill:none;"/><text fill="#000000" font-family="sans-serif" font-size="11" lengthAdjust="spacing" textLength="261" x="672.5" y="241.1127">password_reset_request: PasswordResetRequest</text><ellipse cx="663.5" cy="250.433" rx="3" ry="3" style="stroke:#545454;stroke-width:1.0;fill:none;"/><text fill="#000000" font-family="sans-serif" font-size="11" lengthAdjust="spacing" textLength="75" x="672.5" y="254.0677">date: datetime</text><ellipse cx="663.5" cy="263.388" rx="3" ry="3" style="stroke:#545454;stroke-width:1.0;fill:none;"/><text fill="#000000" font-family="sans-serif" font-size="11" lengthAdjust="spacing" textLength="87" x="672.5" y="267.0228">authorizer: User</text><ellipse cx="663.5" cy="276.3431" rx="3" ry="3" style="stroke:#545454;stroke-width:1.0;fill:none;"/><text fill="#000000" font-family="sans-serif" font-size="11" lengthAdjust="spacing" textLength="83" x="672.5" y="279.9779">added_by: User</text><rect fill="none" height="6" style="stroke:#595959;stroke-width:1.0;" width="6" x="660.5" y="286.2982"/><text fill="#000000" font-family="sans-serif" font-size="11" lengthAdjust="spacing" textLength="85" x="672.5" y="292.933">password: temp</text><ellipse cx="663.5" cy="302.2533" rx="3" ry="3" style="stroke:#545454;stroke-width:1.0;fill:none;"/><text fill="#000000" font-family="sans-serif" font-size="11" lengthAdjust="spacing" textLength="76" x="672.5" y="305.888">pgp_file: temp</text><!--MD5=[23890db2112df57f5fb84259e8b2151c]
link WalletRecovery to Wallet--><path codeLine="48" d="M301.05,246.89 C310.93,246.89 320.8,246.89 330.68,246.89 " fill="none" id="WalletRecovery-to-Wallet" style="stroke:#383838;stroke-width:1.0;"/><polygon fill="#383838" points="335.84,246.89,326.84,242.89,330.84,246.89,326.84,250.89,335.84,246.89" style="stroke:#383838;stroke-width:1.0;"/><!--MD5=[15b571a0dc8fce64ee8c4d9da3699888]
link PasswordResetRequest to User--><path codeLine="70" d="M1020.53,142.12 C1004.87,100.2 979.65,56.45 939.5,33.39 C899.03,10.15 139.97,10.15 99.5,33.39 C35.38,70.22 38.85,173.77 44.31,221.82 " fill="none" id="PasswordResetRequest-to-User" style="stroke:#383838;stroke-width:1.0;"/><polygon fill="#383838" points="44.91,226.85,47.7996,217.4346,44.3092,221.8862,39.8575,218.3959,44.91,226.85" style="stroke:#383838;stroke-width:1.0;"/><!--MD5=[c6100b592e29ab2a9436cfea8d37588a]
link User to Wallet--><path codeLine="76" d="M44.91,226.85 C39.2,181.41 33.04,71.56 99.5,33.39 C138.43,11.03 261.22,13.58 301.5,33.39 C333.52,49.14 361.05,74.45 383.94,102.22 " fill="none" id="User-to-Wallet" style="stroke:#383838;stroke-width:1.0;"/><polygon fill="#383838" points="387.28,106.34,384.7091,96.8326,384.127,102.4594,378.5002,101.8773,387.28,106.34" style="stroke:#383838;stroke-width:1.0;"/><!--MD5=[3e66a05358054381fd07fd2ef0a08db2]
link PasswordResetRequestAuthorizer to PasswordResetRequest--><path codeLine="89" d="M939.95,246.89 C949.85,246.89 959.75,246.89 969.65,246.89 " fill="none" id="PasswordResetRequestAuthorizer-to-PasswordResetRequest" style="stroke:#383838;stroke-width:1.0;"/><polygon fill="#383838" points="974.83,246.89,965.83,242.89,969.83,246.89,965.83,250.89,974.83,246.89" style="stroke:#383838;stroke-width:1.0;"/><!--MD5=[d5de2fd22dee1e94b7078bdeb38dae3d]
link PasswordResetRequestAuthorizer to User--><path codeLine="90" d="M755.83,181.16 C720.48,130.18 663.88,63.31 594.5,33.39 C544,11.61 147.19,6 99.5,33.39 C35.38,70.22 38.85,173.77 44.31,221.82 " fill="none" id="PasswordResetRequestAuthorizer-to-User" style="stroke:#383838;stroke-width:1.0;"/><polygon fill="#383838" points="44.91,226.85,47.7996,217.4346,44.3092,221.8862,39.8575,218.3959,44.91,226.85" style="stroke:#383838;stroke-width:1.0;"/><!--MD5=[2574842f1ae79448e6f58deab337d1cc]
@startuml hedera integration

skinparam monochrome true
skinparam backgroundColor transparent
skinparam classBackgroundColor transparent
skinparam style strictuml

set namespaceSeparator ::

package Account {

    class User {
    }

    Class WalletRecovery {
        + id: pk
        - -
        + wallet: Wallet
        + date_added: date
        + encrypted_key: varchar
        + recovery_key_hashes: ArrayField
        - -
        + get_encrypted_key_object()
    }

    Class Wallet {
        + id: pk
        - -
        + user: User
        + openpgp_key: Text
        + hedera_account_id: varchar
        + hedera_private_key: Text
        + hedera_public_key: Text
        + solidity_address: Text
        + token_balance: int
        + token_balance_last_update: datetime
        + allowance: int
        + allowance_last_update: datetime
        + contract_id: int
        + date_added: datetime
        + received_starter_tokens: bool
        - -
        - get_openpgp_key_object()
        - unlock_openpgp_key_object(password)
        - get_encrypted_hedera_private_key_object()
        - unlock_hedera_key(password)
    }

    WalletRecovery -> Wallet
}


package Support {
    Class PasswordResetRequest {
        + id: pk
        - -
        + date_added: datetime
        + date: date
        + user: User
        + kyc_image: Image
        + kyc_image_2: Image
        + kyc_date: Image
        + kyc_date_2: Image
        + status: Enum
        + reason: Text
        + added_by: User
        - partial_key: Text
        + assigned_to: User
    }

    PasswordResetRequest -> User

    class User {

    }

    User -> Wallet

    class PasswordResetRequestAuthorizer {
        + id: pk
        - -
        + password_reset_request: PasswordResetRequest
        + date: datetime
        + authorizer: User
        + added_by: User
        - password: temp
        + pgp_file: temp
    }

    PasswordResetRequestAuthorizer -> PasswordResetRequest
    PasswordResetRequestAuthorizer -> User
}

@enduml

PlantUML version 1.2021.7(Sun May 23 15:40:07 EAT 2021)
(GPL source distribution)
Java Runtime: OpenJDK Runtime Environment
JVM: OpenJDK 64-Bit Server VM
Default Encoding: UTF-8
Language: en
Country: GB
--></g></svg>