<?xml version="1.0" encoding="UTF-8" standalone="no"?><svg xmlns="http://www.w3.org/2000/svg" xmlns:xlink="http://www.w3.org/1999/xlink" contentScriptType="application/ecmascript" contentStyleType="text/css" height="269px" preserveAspectRatio="none" style="width:825px;height:269px;background:#00000000;" version="1.1" viewBox="0 0 825 269" width="825px" zoomAndPan="magnify"><defs/><g><rect fill="#FFFFFF" height="73.6211" style="stroke:#000000;stroke-width:2.0;" width="481" x="103" y="157.4883"/><line style="stroke:#383838;stroke-width:1.0;stroke-dasharray:5.0,5.0;" x1="23" x2="23" y1="84.4883" y2="262.1094"/><line style="stroke:#383838;stroke-width:1.0;stroke-dasharray:5.0,5.0;" x1="77" x2="77" y1="84.4883" y2="262.1094"/><line style="stroke:#383838;stroke-width:1.0;stroke-dasharray:5.0,5.0;" x1="175" x2="175" y1="84.4883" y2="262.1094"/><line style="stroke:#383838;stroke-width:1.0;stroke-dasharray:5.0,5.0;" x1="302" x2="302" y1="84.4883" y2="262.1094"/><line style="stroke:#383838;stroke-width:1.0;stroke-dasharray:5.0,5.0;" x1="423" x2="423" y1="84.4883" y2="262.1094"/><line style="stroke:#383838;stroke-width:1.0;stroke-dasharray:5.0,5.0;" x1="531" x2="531" y1="84.4883" y2="262.1094"/><line style="stroke:#383838;stroke-width:1.0;stroke-dasharray:5.0,5.0;" x1="701" x2="701" y1="84.4883" y2="262.1094"/><text fill="#000000" font-family="sans-serif" font-size="14" lengthAdjust="spacing" textLength="31" x="5" y="81.5352">User</text><ellipse cx="23.5" cy="15" fill="#F8F8F8" rx="8" ry="8" style="stroke:#383838;stroke-width:2.0;"/><path d="M23.5,23 L23.5,50 M10.5,31 L36.5,31 M23.5,50 L10.5,65 M23.5,50 L36.5,65 " fill="none" style="stroke:#383838;stroke-width:2.0;"/><rect fill="#F8F8F8" height="30.4883" style="stroke:#383838;stroke-width:1.5;" width="51" x="52" y="53"/><text fill="#000000" font-family="sans-serif" font-size="14" lengthAdjust="spacing" textLength="37" x="59" y="73.5352">Email</text><rect fill="#F8F8F8" height="30.4883" style="stroke:#383838;stroke-width:1.5;" width="124" x="113" y="53"/><text fill="#000000" font-family="sans-serif" font-size="14" lengthAdjust="spacing" textLength="110" x="120" y="73.5352">SupportRequest</text><text fill="#000000" font-family="sans-serif" font-size="14" lengthAdjust="spacing" textLength="105" x="247" y="81.5352">HearoSupport1</text><ellipse cx="302.5" cy="15" fill="#F8F8F8" rx="8" ry="8" style="stroke:#383838;stroke-width:2.0;"/><path d="M302.5,23 L302.5,50 M289.5,31 L315.5,31 M302.5,50 L289.5,65 M302.5,50 L315.5,65 " fill="none" style="stroke:#383838;stroke-width:2.0;"/><text fill="#000000" font-family="sans-serif" font-size="14" lengthAdjust="spacing" textLength="105" x="368" y="81.5352">HearoSupport2</text><ellipse cx="423.5" cy="15" fill="#F8F8F8" rx="8" ry="8" style="stroke:#383838;stroke-width:2.0;"/><path d="M423.5,23 L423.5,50 M410.5,31 L436.5,31 M423.5,50 L410.5,65 M423.5,50 L436.5,65 " fill="none" style="stroke:#383838;stroke-width:2.0;"/><rect fill="#F8F8F8" height="30.4883" style="stroke:#383838;stroke-width:1.5;" width="85" x="489" y="53"/><text fill="#000000" font-family="sans-serif" font-size="14" lengthAdjust="spacing" textLength="71" x="496" y="73.5352">UnlockKey</text><rect fill="#F8F8F8" height="30.4883" style="stroke:#383838;stroke-width:1.5;" width="235" x="584" y="53"/><text fill="#000000" font-family="sans-serif" font-size="14" lengthAdjust="spacing" textLength="221" x="591" y="73.5352">SendUserPassAndKeyResetEmail</text><line style="stroke:#383838;stroke-width:1.0;" x1="75.5" x2="65.5" y1="100.4883" y2="96.4883"/><line style="stroke:#383838;stroke-width:1.0;" x1="75.5" x2="65.5" y1="100.4883" y2="104.4883"/><line style="stroke:#383838;stroke-width:1.0;" x1="23.5" x2="76.5" y1="100.4883" y2="100.4883"/><line style="stroke:#383838;stroke-width:1.0;" x1="173" x2="163" y1="114.4883" y2="110.4883"/><line style="stroke:#383838;stroke-width:1.0;" x1="173" x2="163" y1="114.4883" y2="118.4883"/><line style="stroke:#383838;stroke-width:1.0;" x1="77.5" x2="174" y1="114.4883" y2="114.4883"/><polygon fill="#383838" points="186,124.4883,176,128.4883,186,132.4883" style="stroke:#383838;stroke-width:1.0;"/><line style="stroke:#383838;stroke-width:1.0;stroke-dasharray:2.0,2.0;" x1="180" x2="301.5" y1="128.4883" y2="128.4883"/><polygon fill="#383838" points="186,138.4883,176,142.4883,186,146.4883" style="stroke:#383838;stroke-width:1.0;"/><line style="stroke:#383838;stroke-width:1.0;stroke-dasharray:2.0,2.0;" x1="180" x2="422.5" y1="142.4883" y2="142.4883"/><path d="M103,157.4883 L177,157.4883 L177,164.4883 L167,174.4883 L103,174.4883 L103,157.4883 " fill="#EEEEEE" style="stroke:#000000;stroke-width:1.0;"/><rect fill="none" height="73.6211" style="stroke:#000000;stroke-width:2.0;" width="481" x="103" y="157.4883"/><text fill="#000000" font-family="sans-serif" font-size="13" font-weight="bold" lengthAdjust="spacing" textLength="29" x="118" y="171.0566">loop</text><text fill="#000000" font-family="sans-serif" font-size="11" font-weight="bold" lengthAdjust="spacing" textLength="63" x="192" y="170.123">[ValidKeys]</text><line style="stroke:#383838;stroke-width:1.0;stroke-dasharray:2.0,2.0;" x1="175" x2="217" y1="196.1094" y2="196.1094"/><line style="stroke:#383838;stroke-width:1.0;stroke-dasharray:2.0,2.0;" x1="217" x2="217" y1="196.1094" y2="209.1094"/><line style="stroke:#383838;stroke-width:1.0;stroke-dasharray:2.0,2.0;" x1="176" x2="217" y1="209.1094" y2="209.1094"/><polygon fill="#383838" points="186,205.1094,176,209.1094,186,213.1094" style="stroke:#383838;stroke-width:1.0;"/><text fill="#000000" font-family="sans-serif" font-size="13" lengthAdjust="spacing" textLength="84" x="182" y="191.3672">check if valid</text><line style="stroke:#383838;stroke-width:1.0;" x1="529.5" x2="519.5" y1="223.1094" y2="219.1094"/><line style="stroke:#383838;stroke-width:1.0;" x1="529.5" x2="519.5" y1="223.1094" y2="227.1094"/><line style="stroke:#383838;stroke-width:1.0;" x1="175" x2="530.5" y1="223.1094" y2="223.1094"/><line style="stroke:#383838;stroke-width:1.0;" x1="699.5" x2="689.5" y1="244.1094" y2="240.1094"/><line style="stroke:#383838;stroke-width:1.0;" x1="699.5" x2="689.5" y1="244.1094" y2="248.1094"/><line style="stroke:#383838;stroke-width:1.0;" x1="531.5" x2="700.5" y1="244.1094" y2="244.1094"/><!--MD5=[9f7c117a660388c653d3f899457cee62]
@startuml Hearo request support

skinparam monochrome true
skinparam backgroundColor transparent
skinparam classBackgroundColor transparent
skinparam style strictuml

actor User
User ->> Email
Email ->> SupportRequest

actor HearoSupport1
actor HearoSupport2

HearoSupport1 - -> SupportRequest
HearoSupport2 - -> SupportRequest

loop ValidKeys
    SupportRequest- ->SupportRequest: check if valid
    SupportRequest->> UnlockKey
end
UnlockKey ->> SendUserPassAndKeyResetEmail
@enduml

PlantUML version 1.2021.7(Sun May 23 15:40:07 EAT 2021)
(GPL source distribution)
Java Runtime: OpenJDK Runtime Environment
JVM: OpenJDK 64-Bit Server VM
Default Encoding: UTF-8
Language: en
Country: GB
--></g></svg>