<?xml version="1.0" encoding="utf-8"?>
<!-- Generator: Adobe Illustrator 15.0.0, SVG Export Plug-In . SVG Version: 6.00 Build 0)  -->
<!DOCTYPE svg PUBLIC "-//W3C//DTD SVG 1.1//EN" "http://www.w3.org/Graphics/SVG/1.1/DTD/svg11.dtd">
<svg version="1.1" id="main" xmlns:mondrian="http://mondrian.io/xml"
	 xmlns="http://www.w3.org/2000/svg" xmlns:xlink="http://www.w3.org/1999/xlink" x="0px" y="0px" width="1000px" height="750px"
	 viewBox="0 0 1000 750" enable-background="new 0 0 1000 750" xml:space="preserve">
<path d="M-52.5-44.5h1080v817h-1080V-44.5"/>
<path fill="#FF0000" d="M215.298,372.071c0.059,16.688,7.646,21.583,17.03,24.032h6.242l0.007-53.067
	c0.005-28.856-16.457-39.022-32.165-39.024c-5.868,0-11.354,1.222-16.085,3.811c-4.731,2.405-8.704,5.016-11.544,9.914h-0.38
	l0.005-32.496c-0.032-15.833-9.458-19.93-21.801-20.581l-1.472,0.007l-0.02,131.398l5.055,0.007
	c13.185-2.027,17.358-8.312,18.223-16.246l0.005-37.723c0-2.404,0.191-4.801,0.948-6.836c2.652-6.845,9.086-12.756,18.169-12.756
	c12.87,0.002,17.787,9.984,17.785,22.933L215.298,372.071z"/>
<path fill="#FF0000" d="M509.541,304.57v-0.064c-2.449-0.37-3.576-0.676-5.846-0.676c-10.028-0.005-21.175,6.558-25.721,18.803
	h-0.566l-0.174-3.153c-1.239-11.292-9.563-13.21-20.792-13.486c0.535,7.288,0.717,16.861,0.715,28.805l-0.008,61.307h4.1
	c14.019-2.449,18.354-8.327,19.179-16.541l0.005-30.198c0-2.404,0.19-4.8,0.567-6.835c1.736-8.641,7.436-14.813,15.642-16.629
	c2.595,1.683,5.894,2.693,9.49,2.693c8.344,0,15.466-5.425,15.466-12.114C521.598,310.528,516.888,305.589,509.541,304.57z"/>
<path fill="#FF0000" d="M312.028,380.729c-1.227,0.05-2.496,0.073-3.813,0.073c-14.948-0.002-27.815-7.033-28.381-23.312
	l61.689,0.01c0.377-2.035,0.759-5.363,0.759-9.617c0.002-19.793-9.833-43.842-39.732-43.847
	c-29.52-0.005-45.042,23.482-45.044,48.456c-0.005,27.561,17.591,45.507,47.488,45.512c13.061,0,23.897-2.339,31.817-5.594
	C336.004,381.568,325.642,380.74,312.028,380.729 M301.223,319.575c15.517,0.002,19.298,13.691,19.109,22.017l-40.496-0.008
	C280.782,332.334,286.84,319.572,301.223,319.575z"/>
<path fill="#FF0000" d="M652.987,379.775c2.454,0,4.55,0.866,6.284,2.602c1.735,1.733,2.601,3.854,2.601,6.359
	c0,2.457-0.867,4.564-2.601,6.322c-1.734,1.76-3.83,2.639-6.284,2.639c-2.459,0-4.554-0.879-6.286-2.639
	c-1.734-1.758-2.603-3.865-2.603-6.322c0-2.503,0.867-4.626,2.603-6.359C648.435,380.643,650.528,379.775,652.987,379.775z"/>
<path fill="#FF0000" d="M715.204,286.702v9.899c-3.713-1.589-6.89-2.385-9.539-2.385c-1.978,0-3.615,0.396-4.915,1.193
	c-1.298,0.796-2.121,1.711-2.457,2.745c-0.34,1.036-0.507,3.793-0.507,8.273l-0.01,10.623h16.413v8.743h-16.418l-0.057,69.877
	h-10.117v-69.875h-10.332v-8.742h10.332v-12.284c0-5.638,0.518-9.659,1.557-12.069c1.033-2.407,2.794-4.347,5.273-5.816
	c2.479-1.47,5.478-2.204,8.995-2.204C706.698,284.68,710.624,285.355,715.204,286.702z"/>
<path fill="#FF0000" d="M729.222,317.053h10.116v13.584c3.522-5.008,7.137-8.672,10.853-10.982
	c5.113-3.083,10.491-4.624,16.134-4.624c3.812,0,7.426,0.747,10.852,2.241c3.424,1.493,6.225,3.479,8.394,5.961
	c2.17,2.482,4.051,6.033,5.643,10.657c3.365-6.167,7.57-10.85,12.615-14.055c5.05-3.204,10.477-4.806,16.293-4.806
	c5.429,0,10.225,1.374,14.383,4.119c4.155,2.745,7.241,6.575,9.26,11.487c2.019,4.913,3.026,12.284,3.026,22.112v42.923h-10.332
	v-42.923c0-8.43-0.604-14.224-1.8-17.378c-1.2-3.154-3.255-5.696-6.159-7.624c-2.904-1.927-6.375-2.89-10.408-2.89
	c-4.897,0-9.372,1.444-13.431,4.337c-4.056,2.89-7.021,6.745-8.896,11.562c-1.873,4.817-2.807,12.862-2.807,24.135v30.784H782.84
	v-40.252c0-9.489-0.591-15.933-1.772-19.329s-3.237-6.118-6.177-8.165c-2.938-2.048-6.432-3.07-10.478-3.07
	c-4.672,0-9.044,1.407-13.114,4.227s-7.082,6.612-9.031,11.381c-1.951,4.771-2.927,12.068-2.927,21.895v33.312h-10.117v-78.619
	H729.222L729.222,317.053z"/>
<path fill="#FF0000" d="M622.224,352.291c0-26.469-20.643-47.927-46.104-47.927c-25.46,0-46.101,21.458-46.101,47.927
	c0,18.221,9.815,33.999,24.219,42.101c3.713,2.761,7.795,3.7,11.079,2.102c5.77-2.81,6.897-12.369,2.526-21.354
	c-4.374-8.981-12.598-13.985-18.367-11.177c-1.285,0.627-2.328,1.604-3.145,2.818c-2.155-3.734-3.39-7.925-3.39-12.372
	c0-15.607,14.88-28.259,33.236-28.259c18.354,0,33.235,12.65,33.235,28.259c0,4.68-1.359,9.081-3.729,12.965
	c-0.898-1.599-2.141-2.851-3.726-3.58c-5.831-2.685-13.944,2.498-18.124,11.576c-4.174,9.071-2.836,18.606,2.99,21.289
	c3.046,1.403,6.71,0.642,10.116-1.684C611.923,387.071,622.224,370.96,622.224,352.291z"/>
<path fill="#FF0000" d="M411.188,383.873c2.139,10.455,8.985,12.267,22.856,12.262c-1.122-5.547-1.499-13.496-1.497-21.603
	l0.006-32.37c0.002-19.793-8.511-38.106-38.031-38.111c-14.476-0.002-26.327,3.828-33.162,7.869c3.884,8.299,10.178,10.1,17.346,9.7
	c3.823-0.924,7.788-1.479,11.765-1.479c16.275,0.003,18.658,9.807,18.658,15.726v1.479c-34.285-0.188-54.619,11.461-54.622,34.028
	c-0.002,13.688,10.44,26.888,28.983,26.888c9.622,0.003,17.672-2.942,23.344-7.821C409.39,387.87,410.918,385.406,411.188,383.873
	 M377.225,368.976c0.002-13.688,17.214-17.016,31.908-16.826v12.395c0,1.665,0.354,3.331-0.216,4.994
	c-2.272,6.475-8.718,12.392-18.179,12.392C383.357,381.924,377.225,377.854,377.225,368.976z"/>
<rect x="109.5" y="508.5" fill="none" width="781" height="122"/>
</svg>
