<?xml version="1.0" encoding="UTF-8"?>
<svg width="160px" height="160px" viewBox="0 0 160 160" version="1.1" xmlns="http://www.w3.org/2000/svg" xmlns:xlink="http://www.w3.org/1999/xlink">
    <g id="Page-1" stroke="none" stroke-width="1" fill="none" fill-rule="evenodd">
        <g id="Group" fill="#FFFFFF">
            <g id="butterchurnicon2" transform="translate(-0.000000, 0.000000)">
                <path d="M51.05961,58.5642357 C51.8012273,44.9679326 57.5425649,32.09628 67.2189319,22.4164475 C72.528738,16.7002192 78.9534269,12.2484262 86.0170215,9.27482842 C84.0193272,9.10388541 81.9980177,9.01563681 79.9565312,9.01352081 C49.6698802,9.01352081 23.816129,27.9930214 13.6401935,54.7071068 L13.8038675,54.7071068 C13.8038675,71.9197998 28.0286149,91.4386538 48.1415398,97.7603348 L32.9115626,82.5303576 C31.3049457,80.9237407 31.3049457,78.3189 32.9115626,76.712283 L51.05961,58.5642357 Z M61.9927328,47.6311128 L76.5909627,33.032883 C78.1975796,31.426266 80.8024204,31.426266 82.4090373,33.032883 L100.388529,51.0123745 C114.372355,51.5066859 127.660319,57.2612223 137.59009,67.1333343 C143.265932,72.3768882 147.69536,78.7134455 150.669184,85.6797476 C150.820037,83.7910198 150.896912,81.8814381 150.896912,79.9539011 C150.865851,49.9866643 132.275221,24.367112 106,13.970221 L106,14.0172125 C88.297732,14.0172125 68.1895064,27.9794258 61.9927328,47.6311128 Z M110.859371,61.4832168 L126.088437,76.712283 C127.695054,78.3189 127.695054,80.9237407 126.088437,82.5303576 L108.932914,99.6858812 C108.178529,113.591374 102.479815,126.792959 92.8339915,136.891564 C87.5331582,142.875974 81.0273946,147.537221 73.8345947,150.633808 C75.8523178,150.806273 77.8941469,150.894281 79.9565313,150.894281 C110.050456,150.894281 135.767719,132.15556 146.076707,105.70973 L145.990786,105.70973 C145.990786,87.6437249 131.306261,67.0706992 110.859371,61.4832168 Z M98.2816266,110.337168 L82.4090373,126.209758 C80.8024204,127.816375 78.1975796,127.816375 76.5909627,126.209758 L58.9465995,108.565395 C45.4050486,107.594126 32.6047359,102.038751 22.7971654,92.8182235 C16.9136852,87.6820402 12.313298,81.4218883 9.22167805,74.5132058 C9.08548765,76.3089211 9.01615096,78.1233139 9.01615096,79.9539011 C9.01615096,110.009412 27.7070639,135.699427 54.0994689,146.034524 C71.9888933,145.979653 92.2911032,131.133885 98.2816266,110.337168 Z M79.9565313,159.913062 C35.7977584,159.913062 -1.42108547e-14,124.115304 -1.42108547e-14,79.9565313 C-1.42108547e-14,35.7977584 35.7977584,0 79.9565313,0 C124.115304,0 159.913063,35.7977584 159.913063,79.9565313 C159.862334,124.094274 124.094274,159.862334 79.9565313,159.913062 Z M47.0536982,76.2980695 C45.4470813,77.9046864 45.4470813,80.5095271 47.0536982,82.1161441 L76.5909627,111.653409 C78.1975796,113.260025 80.8024204,113.260025 82.4090373,111.653409 L111.946302,82.1161441 C113.552919,80.5095271 113.552919,77.9046864 111.946302,76.2980695 L82.4090373,46.760805 C80.8024204,45.1541881 78.1975796,45.1541881 76.5909627,46.760805 L47.0536982,76.2980695 Z" id="Combined-Shape"></path>
            </g>
        </g>
    </g>
</svg>
