<?xml version="1.0" encoding="UTF-8"?>
<svg width="300px" height="300px" viewBox="0 0 300 300" version="1.1" xmlns="http://www.w3.org/2000/svg" xmlns:xlink="http://www.w3.org/1999/xlink">
    <g id="Page-1" stroke="none" stroke-width="1" fill="none" fill-rule="evenodd">
        <g id="default-music-listing" fill-rule="nonzero">
            <rect id="Rectangle" fill="#222222" x="0" y="0" width="300" height="300"></rect>
            <path d="M220.095,152.171 C220.095,111.927 188.713,79.3 149.999,79.3 C111.287,79.3 79.905,111.927 79.905,152.171 C79.905,179.869 94.828,203.862 116.726,216.182 C122.373,220.379 128.58,221.808 133.573,219.374 C142.344,215.105 144.06,200.567 137.416,186.909 C130.765,173.252 118.26,165.644 109.489,169.913 C107.532,170.866 105.947,172.353 104.707,174.2 C101.431,168.523 99.554,162.153 99.554,155.39 C99.554,131.66 122.176,112.424 150.088,112.424 C177.991,112.424 200.624,131.66 200.624,155.39 C200.624,162.505 198.559,169.197 194.95,175.102 C193.583,172.669 191.692,170.768 189.286,169.659 C180.42,165.579 168.086,173.455 161.729,187.259 C155.38,201.051 157.417,215.553 166.275,219.629 C170.908,221.764 176.477,220.604 181.656,217.069 C204.437,205.051 220.095,180.554 220.095,152.171 Z" id="Path" fill="#111111"></path>
        </g>
    </g>
</svg>
