<?xml version="1.0" encoding="utf-8"?>
<!-- Generator: Adobe Illustrator 16.0.0, SVG Export Plug-In . SVG Version: 6.00 Build 0)  -->
<!DOCTYPE svg PUBLIC "-//W3C//DTD SVG 1.1//EN" "http://www.w3.org/Graphics/SVG/1.1/DTD/svg11.dtd">
<svg version="1.1" id="Layer_1" xmlns="http://www.w3.org/2000/svg" xmlns:xlink="http://www.w3.org/1999/xlink" x="0px" y="0px"
	 width="30px" height="30px" viewBox="0 0 30 30" enable-background="new 0 0 30 30" xml:space="preserve">
<g>
	<path fill-rule="evenodd" clip-rule="evenodd" fill="#FFFFFF" d="M18.848,8.772c-3.09,0-6.18,0-9.269,0
		c-0.713,0-0.829-0.112-0.831-0.818C8.743,7.11,8.741,6.266,8.75,5.421C8.755,4.873,8.899,4.73,9.449,4.73
		c6.28-0.003,12.56-0.003,18.841,0c0.554,0,0.698,0.14,0.703,0.687c0.01,0.861,0.009,1.722,0.002,2.583
		c-0.005,0.643-0.137,0.771-0.778,0.772C25.094,8.772,21.971,8.772,18.848,8.772z"/>
	<path fill-rule="evenodd" clip-rule="evenodd" fill="#FFFFFF" d="M18.893,12.836c3.09,0,6.18-0.001,9.269,0
		c0.719,0,0.831,0.108,0.834,0.816c0.004,0.844,0.009,1.688-0.002,2.532c-0.007,0.553-0.149,0.693-0.698,0.693
		c-6.28,0.002-12.562,0.002-18.841,0c-0.551,0-0.697-0.143-0.704-0.688c-0.01-0.86-0.007-1.722-0.002-2.583
		c0.003-0.646,0.128-0.77,0.775-0.77C12.646,12.835,15.77,12.836,18.893,12.836z"/>
	<path fill-rule="evenodd" clip-rule="evenodd" fill="#FFFFFF" d="M18.895,20.944c3.089,0,6.178-0.002,9.268,0
		c0.718,0.001,0.83,0.109,0.834,0.816c0.004,0.845,0.008,1.688-0.003,2.532c-0.007,0.552-0.151,0.693-0.7,0.693
		c-6.28,0.003-12.56,0.003-18.84,0c-0.55,0-0.698-0.145-0.704-0.689c-0.01-0.86-0.007-1.722-0.002-2.582
		c0.004-0.646,0.129-0.77,0.777-0.771C12.647,20.942,15.771,20.944,18.895,20.944z"/>
	<path fill-rule="evenodd" clip-rule="evenodd" fill="#FFFFFF" d="M0.644,14.857c-0.004-1.676,1.328-3.017,3.013-3.033
		c1.66-0.017,3.022,1.332,3.038,3.008c0.016,1.668-1.324,3.042-2.987,3.059C2.017,17.91,0.647,16.553,0.644,14.857z"/>
	<path fill-rule="evenodd" clip-rule="evenodd" fill="#FFFFFF" d="M6.69,23.035c-0.052,1.685-1.429,3.011-3.079,2.963
		c-1.712-0.05-3.026-1.437-2.963-3.128c0.062-1.686,1.435-2.985,3.103-2.938C5.424,19.979,6.743,21.371,6.69,23.035z"/>
	<path fill-rule="evenodd" clip-rule="evenodd" fill="#FFFFFF" d="M6.694,6.754C6.688,8.43,5.345,9.779,3.676,9.784
		C1.992,9.789,0.625,8.406,0.644,6.717c0.018-1.673,1.378-3.014,3.044-3.001C5.361,3.728,6.7,5.081,6.694,6.754z"/>
</g>
</svg>
