<?xml version="1.0" encoding="utf-8"?>
<!-- Generator: Adobe Illustrator 16.0.0, SVG Export Plug-In . SVG Version: 6.00 Build 0)  -->
<!DOCTYPE svg PUBLIC "-//W3C//DTD SVG 1.1//EN" "http://www.w3.org/Graphics/SVG/1.1/DTD/svg11.dtd">
<svg version="1.1" id="Layer_1" xmlns="http://www.w3.org/2000/svg" xmlns:xlink="http://www.w3.org/1999/xlink" x="0px" y="0px"
	 width="30px" height="30px" viewBox="0 0 30 30" enable-background="new 0 0 30 30" xml:space="preserve">
<path fill-rule="evenodd" clip-rule="evenodd" fill="#FFFFFF" d="M13.918,14.733c0,2.879,0,5.757-0.002,8.636
	c0,0.253,0.002,0.511-0.045,0.757c-0.129,0.689-0.899,1.061-1.509,0.723c-0.217-0.12-0.405-0.304-0.583-0.48
	c-1.668-1.661-3.337-3.321-4.988-4.997C6.527,19.102,6.261,19,5.89,19.007c-1.195,0.021-2.39,0.01-3.585,0.008
	c-0.996-0.003-1.4-0.386-1.403-1.36c-0.007-1.992-0.007-3.983,0-5.975c0.003-0.955,0.403-1.343,1.361-1.346
	c1.25-0.004,2.499,0.015,3.748-0.014c0.237-0.006,0.528-0.127,0.697-0.292c1.705-1.676,3.388-3.373,5.08-5.059
	c0.166-0.165,0.34-0.333,0.54-0.449c0.632-0.368,1.409-0.007,1.549,0.714c0.042,0.21,0.04,0.432,0.041,0.648
	C13.919,8.831,13.918,11.783,13.918,14.733z"/>
<path fill-rule="evenodd" clip-rule="evenodd" fill="#FFFFFF" d="M29.102,14.675c-0.205,5.395-2.652,9.378-7.514,11.82
	c-0.129,0.064-0.264,0.123-0.4,0.17c-0.508,0.173-1.037-0.026-1.307-0.489c-0.264-0.449-0.199-0.981,0.254-1.307
	c0.436-0.312,0.947-0.518,1.408-0.799c3.285-2.012,5.117-4.924,5.385-8.779c0.314-4.489-2.324-8.691-6.295-10.502
	c-0.295-0.135-0.582-0.379-0.766-0.646c-0.266-0.382-0.164-0.809,0.141-1.148c0.352-0.391,0.789-0.474,1.283-0.277
	c4.322,1.713,7.697,6.55,7.809,11.198C29.107,14.168,29.102,14.422,29.102,14.675z"/>
<path fill-rule="evenodd" clip-rule="evenodd" fill="#FFFFFF" d="M24.787,14.675c-0.182,3.618-1.812,6.312-5.121,7.918
	c-0.621,0.301-1.258,0.093-1.531-0.464c-0.275-0.558-0.102-1.124,0.539-1.446c1.521-0.765,2.711-1.834,3.406-3.422
	c1.297-2.962,0.188-6.477-2.588-8.134C19.197,8.951,18.889,8.8,18.598,8.62c-0.568-0.351-0.734-0.901-0.449-1.436
	c0.273-0.51,0.877-0.712,1.451-0.461c1.586,0.691,2.848,1.772,3.779,3.226C24.299,11.384,24.787,12.952,24.787,14.675z"/>
<path fill-rule="evenodd" clip-rule="evenodd" fill="#FFFFFF" d="M20.432,14.949c-0.094,1.485-0.834,2.822-2.432,3.615
	c-0.617,0.308-1.195,0.162-1.518-0.356c-0.314-0.509-0.174-1.087,0.422-1.488c0.676-0.454,1.303-0.904,1.352-1.83
	c0.043-0.824-0.188-1.49-0.9-1.951c-0.168-0.108-0.334-0.217-0.492-0.337c-0.541-0.412-0.686-0.967-0.383-1.46
	c0.307-0.502,0.865-0.648,1.467-0.385C19.455,11.416,20.449,12.993,20.432,14.949z"/>
</svg>
