<?xml version="1.0" encoding="utf-8"?>
<!-- Generator: Adobe Illustrator 15.0.0, SVG Export Plug-In  -->
<!DOCTYPE svg PUBLIC "-//W3C//DTD SVG 1.1//EN" "http://www.w3.org/Graphics/SVG/1.1/DTD/svg11.dtd" [
	<!ENTITY ns_flows "http://ns.adobe.com/Flows/1.0/">
]>
<svg version="1.1"
	 xmlns="http://www.w3.org/2000/svg" xmlns:xlink="http://www.w3.org/1999/xlink" xmlns:a="http://ns.adobe.com/AdobeSVGViewerExtensions/3.0/"
	 x="0px" y="0px" width="1024px" height="768px" viewBox="-127.75 0.25 1024 768"
	 overflow="visible" enable-background="new -127.75 0.25 1024 768" xml:space="preserve">
<defs>
</defs>
<g id="XMLID_2_">
	<g>
		<path fill="#FFFFFF" d="M768.25,768.25H620.6c0-342.24-278.209-620.74-620.06-620.74V0.25C423.8,0.25,768.25,344.89,768.25,768.25
			z"/>
		<path fill="#FFFFFF" d="M507.27,768.25H359.39c0-96.24-37.44-186.77-105.22-254.5C186.3,445.83,96.2,408.35,0.35,408.35V261.13
			C279.8,261.13,507.27,488.6,507.27,768.25z"/>
		<path fill="#FFFFFF" d="M204.87,665.39c0,56.4-45.79,101.9-102.38,101.9c-56.4,0-102.24-45.5-102.24-101.9
			c0-56.069,45.84-102,102.24-102C159.08,563.39,204.83,609.42,204.87,665.39z"/>
	</g>
	<g>
	</g>
</g>
</svg>
