<?xml version="1.0" encoding="utf-8"?>
<!-- Generator: Adobe Illustrator 15.1.0, SVG Export Plug-In . SVG Version: 6.00 Build 0)  -->
<!DOCTYPE svg PUBLIC "-//W3C//DTD SVG 1.1//EN" "http://www.w3.org/Graphics/SVG/1.1/DTD/svg11.dtd">
<svg version="1.1" id="Layer_1" xmlns="http://www.w3.org/2000/svg" xmlns:xlink="http://www.w3.org/1999/xlink" x="0px" y="0px"
	 width="40px" height="40px" viewBox="0 0 40 40" enable-background="new 0 0 40 40" xml:space="preserve">
<g>
	<path fill="#E6E7E8" d="M27.38,13H12.619C11.725,13,11,13.672,11,14.5s0.725,1.5,1.619,1.5H27.38c0.895,0,1.62-0.672,1.62-1.5
		S28.274,13,27.38,13z"/>
	<path fill="#E6E7E8" d="M27.38,25H12.619C11.725,25,11,25.672,11,26.501C11,27.328,11.725,28,12.619,28H27.38
		c0.895,0,1.62-0.672,1.62-1.499C29,25.672,28.274,25,27.38,25z"/>
	<path fill="#E6E7E8" d="M27.38,19H12.619C11.725,19,11,19.672,11,20.501C11,21.329,11.725,22,12.619,22H27.38
		c0.895,0,1.62-0.671,1.62-1.499C29,19.672,28.274,19,27.38,19z"/>
</g>
</svg>
