<?xml version="1.0" encoding="utf-8"?>
<!-- Generator: Adobe Illustrator 15.1.0, SVG Export Plug-In . SVG Version: 6.00 Build 0)  -->
<!DOCTYPE svg PUBLIC "-//W3C//DTD SVG 1.1//EN" "http://www.w3.org/Graphics/SVG/1.1/DTD/svg11.dtd">
<svg version="1.1" id="Layer_1" xmlns="http://www.w3.org/2000/svg" xmlns:xlink="http://www.w3.org/1999/xlink" x="0px" y="0px"
	 width="40px" height="40px" viewBox="0 0 40 40" enable-background="new 0 0 40 40" xml:space="preserve">
<path id="gear-3-icon" fill="#E6E7E8" d="M30,18.161h-1.252c-0.272,0-1.254-0.172-1.616-1.142c-0.361-0.971,0.147-1.681,0.361-1.895
	c0.15-0.151,0.886-0.886,0.886-0.886l-2.615-2.617c0,0-0.693,0.694-0.887,0.886c-0.191,0.192-0.996,0.768-1.939,0.338
	c-0.941-0.43-1.074-1.291-1.074-1.593c0-0.301,0-1.253,0-1.253h-3.74c0,0,0,0.981,0,1.253c0,0.272-0.151,1.253-1.122,1.615
	c-0.97,0.362-1.671-0.146-1.884-0.36c0,0-0.882-0.887-0.882-0.887l-2.626,2.614l0.88,0.892c0.277,0.28,0.77,1,0.341,1.938
	c-0.43,0.94-1.28,1.062-1.583,1.063c0,0.001-1.247,0-1.247,0V21.9c0,0,0.98,0,1.253,0c0.271,0,1.24,0.141,1.602,1.111
	c0.362,0.971-0.131,1.637-0.361,1.864l-0.885,0.892l2.625,2.612c0,0,0.695-0.694,0.888-0.887s0.99-0.769,1.933-0.339
	c0.942,0.431,1.069,1.29,1.069,1.592c0,0.301,0,1.254,0,1.254h3.74c0,0,0-0.981,0-1.253c0-0.272,0.158-1.253,1.129-1.615
	s1.674,0.146,1.888,0.359c0,0.001,0,0.001-0.001,0.002l0.886,0.886l2.62-2.615l-0.881-0.886c-0.189-0.196-0.77-1.005-0.341-1.944
	s1.283-1.063,1.587-1.064c0-0.001,1.25,0,1.25,0V18.161L30,18.161z M20,23.691c-2.04,0-3.692-1.652-3.692-3.691
	c0-2.039,1.652-3.691,3.692-3.691c2.039,0,3.691,1.653,3.691,3.691C23.691,22.039,22.039,23.691,20,23.691z"/>
</svg>
