<?xml version="1.0" encoding="utf-8"?>
<!-- Generator: Adobe Illustrator 16.0.0, SVG Export Plug-In . SVG Version: 6.00 Build 0)  -->
<!DOCTYPE svg PUBLIC "-//W3C//DTD SVG 1.1//EN" "http://www.w3.org/Graphics/SVG/1.1/DTD/svg11.dtd">
<svg version="1.1" id="Layer_1" xmlns="http://www.w3.org/2000/svg" xmlns:xlink="http://www.w3.org/1999/xlink" x="0px" y="0px"
	 width="40px" height="40px" viewBox="0 0 40 40" enable-background="new 0 0 40 40" xml:space="preserve">
<path fill="#E6E7E8" d="M29.443,20.872c0.017-5.621-4.354-10.188-9.758-10.205c-5.406-0.016-9.801,4.527-9.817,10.146
	c-0.011,3.867,2.063,7.225,5.113,8.954c0.787,0.587,1.653,0.79,2.351,0.455c1.228-0.594,1.474-2.624,0.551-4.533
	c-0.923-1.911-2.666-2.978-3.894-2.385c-0.274,0.133-0.495,0.338-0.67,0.595c-0.455-0.793-0.713-1.683-0.712-2.627
	c0.011-3.315,3.178-5.99,7.074-5.979c3.896,0.01,7.049,2.707,7.04,6.02c-0.003,0.984-0.29,1.907-0.787,2.724
	c-0.189-0.335-0.454-0.6-0.788-0.755c-1.24-0.569-2.961,0.53-3.849,2.459c-0.885,1.926-0.602,3.949,0.637,4.518
	c0.647,0.302,1.431,0.137,2.156-0.363C27.256,28.219,29.432,24.814,29.443,20.872z"/>
</svg>
