<?xml version="1.0" encoding="utf-8"?>
<!-- Generator: Adobe Illustrator 16.0.0, SVG Export Plug-In . SVG Version: 6.00 Build 0)  -->
<!DOCTYPE svg PUBLIC "-//W3C//DTD SVG 1.1//EN" "http://www.w3.org/Graphics/SVG/1.1/DTD/svg11.dtd">
<svg version="1.1" id="Layer_1" xmlns="http://www.w3.org/2000/svg" xmlns:xlink="http://www.w3.org/1999/xlink" x="0px" y="0px"
	 width="40px" height="40px" viewBox="0 0 40 40" enable-background="new 0 0 40 40" xml:space="preserve">
<path fill-rule="evenodd" clip-rule="evenodd" fill="#E6E7E8" d="M29.98,20.952c-0.002,5.544-4.466,9.89-9.792,9.985
	c-5.579,0.1-10.151-4.4-10.168-9.943c-0.017-5.494,4.401-9.959,9.905-10.012C25.382,10.931,29.967,15.334,29.98,20.952z
	 M18.333,24.693c-0.079,0-0.142,0-0.205,0c-0.323,0-0.647-0.006-0.97,0.002c-0.324,0.005-0.479,0.143-0.483,0.454
	c-0.009,0.674-0.009,1.351,0,2.026c0.005,0.297,0.164,0.436,0.461,0.436c1.91,0.001,3.821,0.001,5.73,0
	c0.296,0,0.455-0.147,0.46-0.437c0.005-0.676,0.005-1.353,0-2.029c-0.004-0.297-0.155-0.442-0.469-0.449
	c-0.329-0.01-0.658-0.003-0.986-0.003c-0.064,0-0.128,0-0.207,0c0-0.09,0-0.159,0-0.226c0-2.117,0-4.234,0-6.349
	c0-0.338-0.146-0.485-0.482-0.485c-1.341-0.002-2.68-0.002-4.021,0c-0.337,0-0.486,0.14-0.487,0.479
	c-0.006,0.653-0.006,1.304,0,1.958c0.002,0.33,0.147,0.469,0.477,0.472c0.336,0.004,0.671,0.009,1.005,0
	c0.148-0.007,0.188,0.04,0.188,0.188c-0.006,1.263-0.002,2.527-0.002,3.79C18.341,24.567,18.336,24.614,18.333,24.693z
	 M20.003,15.97c0.4,0,0.801,0.001,1.199-0.001c0.303,0,0.459-0.152,0.462-0.453c0.001-0.67,0.001-1.339,0-2.009
	c-0.003-0.276-0.142-0.442-0.416-0.446c-0.829-0.011-1.657-0.012-2.486-0.001c-0.288,0.002-0.42,0.164-0.421,0.455
	c-0.001,0.669-0.001,1.339,0,2.01c0,0.293,0.151,0.444,0.447,0.444C19.193,15.973,19.597,15.97,20.003,15.97z"/>
</svg>
