<?xml version="1.0" encoding="utf-8"?>
<!-- Generator: Adobe Illustrator 16.0.0, SVG Export Plug-In . SVG Version: 6.00 Build 0)  -->
<!DOCTYPE svg PUBLIC "-//W3C//DTD SVG 1.1//EN" "http://www.w3.org/Graphics/SVG/1.1/DTD/svg11.dtd">
<svg version="1.1" id="Layer_1" xmlns="http://www.w3.org/2000/svg" xmlns:xlink="http://www.w3.org/1999/xlink" x="0px" y="0px"
	 width="40px" height="40px" viewBox="0 0 40 40" enable-background="new 0 0 40 40" xml:space="preserve">
<path fill="#E6E7E8" d="M22.605,25.107c-0.52-0.082-0.532-1.512-0.532-1.512s1.527-1.512,1.861-3.545
	c0.895,0,1.447-2.161,0.553-2.923c0.036-0.8,1.151-6.284-4.487-6.284s-4.525,5.484-4.487,6.284
	c-0.895,0.762-0.342,2.923,0.553,2.923c0.333,2.033,1.861,3.545,1.861,3.545s-0.012,1.43-0.532,1.512
	c-1.674,0.267-7.926,3.024-7.926,6.049h21.062C30.531,28.132,24.279,25.374,22.605,25.107L22.605,25.107z"/>
</svg>
