<?xml version="1.0" encoding="UTF-8" standalone="no"?><svg xmlns="http://www.w3.org/2000/svg" xmlns:xlink="http://www.w3.org/1999/xlink" contentScriptType="application/ecmascript" contentStyleType="text/css" height="817px" preserveAspectRatio="none" style="width:639px;height:817px;background:#00000000;" version="1.1" viewBox="0 0 639 817" width="639px" zoomAndPan="magnify"><defs/><g><ellipse cx="415" cy="16" fill="#000000" rx="10" ry="10" style="stroke:none;stroke-width:1.0;"/><rect fill="#F8F8F8" height="34.1328" rx="12.5" ry="12.5" style="stroke:#383838;stroke-width:1.5;" width="151" x="339.5" y="67"/><text fill="#000000" font-family="sans-serif" font-size="12" lengthAdjust="spacing" textLength="131" x="349.5" y="88.6016">User logs in / registers</text><polygon fill="#F8F8F8" points="415,142,427,154,415,166,403,154,415,142" style="stroke:#383838;stroke-width:1.5;"/><rect fill="#F8F8F8" height="34.1328" rx="12.5" ry="12.5" style="stroke:#383838;stroke-width:1.5;" width="104" x="267" y="220"/><text fill="#000000" font-family="sans-serif" font-size="12" lengthAdjust="spacing" textLength="84" x="277" y="241.6016">Check balance</text><polygon fill="#F8F8F8" points="319,295,331,307,319,319,307,307,319,295" style="stroke:#383838;stroke-width:1.5;"/><rect fill="#F8F8F8" height="34.1328" rx="12.5" ry="12.5" style="stroke:#383838;stroke-width:1.5;" width="115" x="156.5" y="393"/><text fill="#000000" font-family="sans-serif" font-size="12" lengthAdjust="spacing" textLength="95" x="166.5" y="414.6016">Check allowance</text><polygon fill="#F8F8F8" points="214,468,226,480,214,492,202,480,214,468" style="stroke:#383838;stroke-width:1.5;"/><rect fill="#F8F8F8" height="34.1328" rx="12.5" ry="12.5" style="stroke:#383838;stroke-width:1.5;" width="128" x="7" y="566"/><text fill="#000000" font-family="sans-serif" font-size="12" lengthAdjust="spacing" textLength="108" x="17" y="587.6016">Allow user to listen</text><rect fill="#F8F8F8" height="34.1328" rx="12.5" ry="12.5" style="stroke:#383838;stroke-width:1.5;" width="288" x="155" y="566"/><text fill="#000000" font-family="sans-serif" font-size="12" lengthAdjust="spacing" textLength="268" x="165" y="587.6016">Unlock encrypted private keys using password</text><rect fill="#F8F8F8" height="34.1328" rx="12.5" ry="12.5" style="stroke:#383838;stroke-width:1.5;" width="128" x="295" y="641"/><text fill="#000000" font-family="sans-serif" font-size="12" lengthAdjust="spacing" textLength="108" x="305" y="662.6016">Increase allowance</text><rect fill="#F8F8F8" height="34.1328" rx="12.5" ry="12.5" style="stroke:#383838;stroke-width:1.5;" width="197" x="385.5" y="716"/><text fill="#000000" font-family="sans-serif" font-size="12" lengthAdjust="spacing" textLength="177" x="395.5" y="737.6016">Update balance and allowance</text><rect fill="#F8F8F8" height="34.1328" rx="12.5" ry="12.5" style="stroke:#383838;stroke-width:1.5;" width="189" x="291.5" y="393"/><text fill="#000000" font-family="sans-serif" font-size="12" lengthAdjust="spacing" textLength="169" x="301.5" y="414.6016">Prompt user to purchase JAM</text><rect fill="#F8F8F8" height="34.1328" rx="12.5" ry="12.5" style="stroke:#383838;stroke-width:1.5;" width="259" x="354.5" y="512"/><text fill="#000000" font-family="sans-serif" font-size="12" lengthAdjust="spacing" textLength="239" x="364.5" y="533.6016">Grant allowance to Hearo trading account</text><rect fill="#F8F8F8" height="34.1328" rx="12.5" ry="12.5" style="stroke:#383838;stroke-width:1.5;" width="242" x="391" y="220"/><text fill="#000000" font-family="sans-serif" font-size="12" lengthAdjust="spacing" textLength="222" x="401" y="241.6016">Create account with Hedera Spring API</text><rect fill="#F8F8F8" height="34.1328" rx="12.5" ry="12.5" style="stroke:#383838;stroke-width:1.5;" width="120" x="452" y="339"/><text fill="#000000" font-family="sans-serif" font-size="12" lengthAdjust="spacing" textLength="100" x="462" y="360.6016">Grant starter JAM</text><ellipse cx="484" cy="801" rx="10" ry="10" style="stroke:#000000;stroke-width:1.0;fill:none;"/><ellipse cx="484.5" cy="801.5" fill="#000000" rx="6" ry="6" style="stroke:none;stroke-width:1.0;"/><!--MD5=[fc2812057b5b80c801a96f05621acbf7]
link start to User logs in / registers--><path d="M415,26.18 C415,35.27 415,49.53 415,61.49 " fill="none" id="start-to-User logs in / registers" style="stroke:#383838;stroke-width:1.0;"/><polygon fill="#383838" points="415,66.79,419,57.79,415,61.79,411,57.79,415,66.79" style="stroke:#383838;stroke-width:1.0;"/><!--MD5=[ca28bc124aa9cadf8c53b0fa0e97d611]
link User logs in / registers to #5--><path d="M415,101.12 C415,111.92 415,126.08 415,136.88 " fill="none" id="User logs in / registers-to-#5" style="stroke:#383838;stroke-width:1.0;"/><polygon fill="#383838" points="415,141.89,419,132.89,415,136.89,411,132.89,415,141.89" style="stroke:#383838;stroke-width:1.0;"/><text fill="#000000" font-family="sans-serif" font-size="11" lengthAdjust="spacing" textLength="122" x="272.7938" y="134.684">User already has wallet</text><!--MD5=[fbcb33b7e3ad61b72b1f15f827ce1a55]
link #5 to Check balance--><path d="M408.99,160.07 C395.93,171.09 364.35,197.74 342.31,216.33 " fill="none" id="#5-to-Check balance" style="stroke:#383838;stroke-width:1.0;"/><polygon fill="#383838" points="338.31,219.71,347.7638,216.9485,342.1264,216.4796,342.5952,210.8423,338.31,219.71" style="stroke:#383838;stroke-width:1.0;"/><text fill="#000000" font-family="sans-serif" font-size="11" lengthAdjust="spacing" textLength="18" x="377" y="197.6348">yes</text><!--MD5=[a2284014d0dced833a26c5e6ca2c344e]
link Check balance to #10--><path d="M319,254.12 C319,264.92 319,279.08 319,289.88 " fill="none" id="Check balance-to-#10" style="stroke:#383838;stroke-width:1.0;"/><polygon fill="#383838" points="319,294.89,323,285.89,319,289.89,315,285.89,319,294.89" style="stroke:#383838;stroke-width:1.0;"/><text fill="#000000" font-family="sans-serif" font-size="11" lengthAdjust="spacing" textLength="176" x="122.65" y="289.4473">User balance is above threshold?</text><!--MD5=[8432336e25fa4e877ebbaab1344c5e27]
link #10 to Check allowance--><path d="M313.35,313.43 C298.8,327.43 259.42,365.31 234.83,388.96 " fill="none" id="#10-to-Check allowance" style="stroke:#383838;stroke-width:1.0;"/><polygon fill="#383838" points="231.02,392.63,240.2887,389.2996,234.6332,389.1739,234.7589,383.5184,231.02,392.63" style="stroke:#383838;stroke-width:1.0;"/><text fill="#000000" font-family="sans-serif" font-size="11" lengthAdjust="spacing" textLength="18" x="287" y="360.6348">yes</text><!--MD5=[b89f6691fb95f5852cd974dd8efed2a6]
link Check allowance to #15--><path d="M214,427.12 C214,437.92 214,452.08 214,462.88 " fill="none" id="Check allowance-to-#15" style="stroke:#383838;stroke-width:1.0;"/><polygon fill="#383838" points="214,467.89,218,458.89,214,462.89,210,458.89,214,467.89" style="stroke:#383838;stroke-width:1.0;"/><text fill="#000000" font-family="sans-serif" font-size="11" lengthAdjust="spacing" textLength="182" x="12.0938" y="462.6677">User allowance is above threshold</text><!--MD5=[d8d17d041aa450b69ab968385fc0f84f]
link #15 to Allow user to listen--><path d="M207.48,485.6 C188.5,499.01 132.44,538.6 98.36,562.67 " fill="none" id="#15-to-Allow user to listen" style="stroke:#383838;stroke-width:1.0;"/><polygon fill="#383838" points="93.91,565.82,103.5689,563.8951,97.994,562.9355,98.9537,557.3606,93.91,565.82" style="stroke:#383838;stroke-width:1.0;"/><text fill="#000000" font-family="sans-serif" font-size="11" lengthAdjust="spacing" textLength="18" x="169" y="533.6348">yes</text><!--MD5=[b1f1d8517e070fea79d667ee3c9dae91]
link #15 to Unlock encrypted private keys using password--><path d="M219.06,487.02 C231.23,501.47 262.54,538.67 282.17,562 " fill="none" id="#15-to-Unlock encrypted private keys using password" style="stroke:#383838;stroke-width:1.0;"/><polygon fill="#383838" points="285.45,565.9,282.7266,556.4352,282.235,562.0706,276.5996,561.5791,285.45,565.9" style="stroke:#383838;stroke-width:1.0;"/><text fill="#000000" font-family="sans-serif" font-size="11" lengthAdjust="spacing" textLength="14" x="268" y="533.6348">no</text><!--MD5=[0a5444f28fd079c79ecd04226df252fa]
link Unlock encrypted private keys using password to Increase allowance--><path d="M312.32,600.2 C321.17,610.98 332.87,625.21 342.34,636.73 " fill="none" id="Unlock encrypted private keys using password-to-Increase allowance" style="stroke:#383838;stroke-width:1.0;"/><polygon fill="#383838" points="345.72,640.84,343.111,631.343,342.5515,636.9721,336.9224,636.4126,345.72,640.84" style="stroke:#383838;stroke-width:1.0;"/><!--MD5=[3ceaa2e14da4949a2415503d930e5a7c]
link Increase allowance to Update balance and allowance--><path d="M386.43,675.02 C405.67,686.26 431.47,701.32 451.71,713.14 " fill="none" id="Increase allowance-to-Update balance and allowance" style="stroke:#383838;stroke-width:1.0;"/><polygon fill="#383838" points="456.2,715.76,450.4579,707.7582,451.8863,713.2318,446.4127,714.6601,456.2,715.76" style="stroke:#383838;stroke-width:1.0;"/><!--MD5=[cdf9b276922dacf331d48d2c3ff275c7]
link #10 to Prompt user to purchase JAM--><path d="M323.4,314.63 C333.17,329.36 357.03,365.33 372.31,388.36 " fill="none" id="#10-to-Prompt user to purchase JAM" style="stroke:#383838;stroke-width:1.0;"/><polygon fill="#383838" points="375.24,392.79,373.5913,383.0801,372.4731,388.6254,366.9278,387.5072,375.24,392.79" style="stroke:#383838;stroke-width:1.0;"/><text fill="#000000" font-family="sans-serif" font-size="11" lengthAdjust="spacing" textLength="14" x="362" y="360.6348">no</text><!--MD5=[849c850c31e220da4d8b71233f352beb]
link Prompt user to purchase JAM to Grant allowance to Hearo trading account--><path d="M399.63,427.27 C417.25,448.31 447.95,484.97 467.06,507.78 " fill="none" id="Prompt user to purchase JAM-to-Grant allowance to Hearo trading account" style="stroke:#383838;stroke-width:1.0;"/><polygon fill="#383838" points="470.49,511.87,467.7666,502.4052,467.275,508.0406,461.6396,507.5491,470.49,511.87" style="stroke:#383838;stroke-width:1.0;"/><!--MD5=[d020e0e18e63a7d88a392c27036080e1]
link Grant allowance to Hearo trading account to Update balance and allowance--><path d="M479.69,546.19 C475.62,582.39 475.44,669.88 479.16,710.55 " fill="none" id="Grant allowance to Hearo trading account-to-Update balance and allowance" style="stroke:#383838;stroke-width:1.0;"/><polygon fill="#383838" points="479.68,715.73,482.7327,706.3662,479.1655,710.7565,474.7751,707.1894,479.68,715.73" style="stroke:#383838;stroke-width:1.0;"/><!--MD5=[d020e0e18e63a7d88a392c27036080e1]
link Grant allowance to Hearo trading account to Update balance and allowance--><path d="M488.31,546.19 C492.38,582.39 492.56,669.88 488.84,710.55 " fill="none" id="Grant allowance to Hearo trading account-to-Update balance and allowance-1" style="stroke:#383838;stroke-width:1.0;"/><polygon fill="#383838" points="488.32,715.73,493.2249,707.1894,488.8345,710.7565,485.2673,706.3662,488.32,715.73" style="stroke:#383838;stroke-width:1.0;"/><!--MD5=[936e4642bb7816eaa3da75aaa15de692]
link #5 to Create account with Hedera Spring API--><path d="M421.07,160.07 C434.27,171.09 466.18,197.74 488.45,216.33 " fill="none" id="#5-to-Create account with Hedera Spring API" style="stroke:#383838;stroke-width:1.0;"/><polygon fill="#383838" points="492.49,219.71,488.1335,210.877,488.6477,216.5105,483.0143,217.0247,492.49,219.71" style="stroke:#383838;stroke-width:1.0;"/><text fill="#000000" font-family="sans-serif" font-size="11" lengthAdjust="spacing" textLength="14" x="467" y="197.6348">no</text><!--MD5=[f04c8f1312fc86b92df7073459d60a9f]
link Create account with Hedera Spring API to Grant starter JAM--><path d="M512,254.27 C512,274.96 512,310.75 512,333.63 " fill="none" id="Create account with Hedera Spring API-to-Grant starter JAM" style="stroke:#383838;stroke-width:1.0;"/><polygon fill="#383838" points="512,338.87,516,329.87,512,333.87,508,329.87,512,338.87" style="stroke:#383838;stroke-width:1.0;"/><!--MD5=[1c301c43a87e92872aa6c5d37e5b1479]
link Grant starter JAM to Grant allowance to Hearo trading account--><path d="M509.37,373.09 C504.3,404.02 493.2,471.81 487.51,506.55 " fill="none" id="Grant starter JAM-to-Grant allowance to Hearo trading account" style="stroke:#383838;stroke-width:1.0;"/><polygon fill="#383838" points="486.65,511.83,492.0636,503.6024,487.465,506.8969,484.1706,502.2983,486.65,511.83" style="stroke:#383838;stroke-width:1.0;"/><!--MD5=[fe10769867c6e99d213be7b4106bfd48]
link Update balance and allowance to end--><path d="M484,750.31 C484,761.24 484,775.47 484,785.9 " fill="none" id="Update balance and allowance-to-end" style="stroke:#383838;stroke-width:1.0;"/><polygon fill="#383838" points="484,790.97,488,781.97,484,785.97,480,781.97,484,790.97" style="stroke:#383838;stroke-width:1.0;"/><!--MD5=[afab3112dbcefb814e24e7dbafbe2dea]
@startuml Account registration / login / private key unlocking

skinparam monochrome true
skinparam backgroundColor transparent
skinparam classBackgroundColor transparent
skinparam style strictuml

(*) - -> "User logs in / registers"

if "User already has wallet" then
    - -> [yes] Check balance
    if "User balance is above threshold?"  then
        - -> [yes] Check allowance
        if "User allowance is above threshold" then
            - -> [yes] Allow user to listen
        else
            - -> [no] Unlock encrypted private keys using password
            - -> Increase allowance
            - -> Update balance and allowance
        endif
    else
        - -> [no] Prompt user to purchase JAM
        - -> Grant allowance to Hearo trading account
        - -> Update balance and allowance
    endif
else
    - -> [no] Create account with Hedera Spring API
    - -> Grant starter JAM
    - -> Grant allowance to Hearo trading account
    - -> Update balance and allowance
endif

- ->(*)

@enduml

PlantUML version 1.2021.7(Sun May 23 15:40:07 EAT 2021)
(GPL source distribution)
Java Runtime: OpenJDK Runtime Environment
JVM: OpenJDK 64-Bit Server VM
Default Encoding: UTF-8
Language: en
Country: GB
--></g></svg>