<?xml version="1.0" encoding="UTF-8" standalone="no"?>
<svg
   xmlns:dc="http://purl.org/dc/elements/1.1/"
   xmlns:cc="http://creativecommons.org/ns#"
   xmlns:rdf="http://www.w3.org/1999/02/22-rdf-syntax-ns#"
   xmlns:svg="http://www.w3.org/2000/svg"
   xmlns="http://www.w3.org/2000/svg"
   xmlns:sodipodi="http://sodipodi.sourceforge.net/DTD/sodipodi-0.dtd"
   xmlns:inkscape="http://www.inkscape.org/namespaces/inkscape"
   version="1.1"
   x="0px"
   y="0px"
   viewBox="0 0 100 100"
   enable-background="new 0 0 100 100"
   xml:space="preserve"
   id="svg2"
   inkscape:version="0.91 r13725"
   sodipodi:docname="noun_116812.svg"><metadata
     id="metadata16"><rdf:RDF><cc:Work
         rdf:about=""><dc:format>image/svg+xml</dc:format><dc:type
           rdf:resource="http://purl.org/dc/dcmitype/StillImage" /></cc:Work></rdf:RDF></metadata><defs
     id="defs14" /><sodipodi:namedview
     pagecolor="#ffffff"
     bordercolor="#666666"
     borderopacity="1"
     objecttolerance="10"
     gridtolerance="10"
     guidetolerance="10"
     inkscape:pageopacity="0"
     inkscape:pageshadow="2"
     inkscape:window-width="640"
     inkscape:window-height="480"
     id="namedview12"
     showgrid="false"
     inkscape:zoom="2.36"
     inkscape:cx="50"
     inkscape:cy="50"
     inkscape:window-x="100"
     inkscape:window-y="215"
     inkscape:window-maximized="0"
     inkscape:current-layer="svg2" /><g
     id="g4"
     style="fill:#808080"><path
       d="M87.885,18.592c-14.359-19.689-30.857-2.92-30.857-2.92C55.27,26.215,78.08,50.578,86.357,41.336   C96.211,30.337,87.885,18.592,87.885,18.592z"
       id="path6"
       style="fill:#808080" /><path
       d="M54.277,19.949c-3.972,10.388-0.426,17.417,5.549,23.648c7.207,7.517,19.199,2.017,19.199,2.017   C58.479,40.878,54.277,19.949,54.277,19.949z"
       id="path8"
       style="fill:#808080" /><path
       d="M51.221,31.407L8.829,79.07c0.96,9.891,10.617,11.916,10.617,11.916l49.802-42.299   C55.576,48.517,51.221,31.407,51.221,31.407z"
       id="path10"
       style="fill:#808080" /></g></svg>