<?xml version="1.0" encoding="UTF-8" standalone="no"?>
<svg
   xmlns:dc="http://purl.org/dc/elements/1.1/"
   xmlns:cc="http://creativecommons.org/ns#"
   xmlns:rdf="http://www.w3.org/1999/02/22-rdf-syntax-ns#"
   xmlns:svg="http://www.w3.org/2000/svg"
   xmlns="http://www.w3.org/2000/svg"
   xmlns:sodipodi="http://sodipodi.sourceforge.net/DTD/sodipodi-0.dtd"
   xmlns:inkscape="http://www.inkscape.org/namespaces/inkscape"
   version="1.1"
   x="0px"
   y="0px"
   viewBox="0 0 39.59943 89.917831"
   enable-background="new 0 0 100 100"
   xml:space="preserve"
   id="svg3534"
   inkscape:version="0.91 r13725"
   sodipodi:docname="band.svg"
   width="39.59943"
   height="89.917831"><metadata
     id="metadata3546"><rdf:RDF><cc:Work
         rdf:about=""><dc:format>image/svg+xml</dc:format><dc:type
           rdf:resource="http://purl.org/dc/dcmitype/StillImage" /><dc:title /></cc:Work></rdf:RDF></metadata><defs
     id="defs3544" /><sodipodi:namedview
     pagecolor="#ffffff"
     bordercolor="#666666"
     borderopacity="1"
     objecttolerance="10"
     gridtolerance="10"
     guidetolerance="10"
     inkscape:pageopacity="0"
     inkscape:pageshadow="2"
     inkscape:window-width="640"
     inkscape:window-height="480"
     id="namedview3542"
     showgrid="false"
     fit-margin-top="0"
     fit-margin-left="0"
     fit-margin-right="0"
     fit-margin-bottom="0"
     inkscape:zoom="1.888"
     inkscape:cx="19.799586"
     inkscape:cy="32.447832"
     inkscape:window-x="60"
     inkscape:window-y="129"
     inkscape:window-maximized="0"
     inkscape:current-layer="svg3534" /><path
     d="m 13.213586,0 1.924,1.138 2.792,2.527 2.419,0.893 3.219,0.811 0.381,0.966 c 0,0 2.47,1.235 5.403,-0.698 0,0 5.027,-2.334 6.354,-1.644 0,0 6.156,1.911 2.888,9.391 0,0 2.833,3.547 -1.01,3.07 l -21.193,49.086 11.28,-20.6 c 0,0 4.21,-4.618 9.436,8.565 0,0 3.264,11.59 -0.883,15.883 0,0 -0.408,1.607 -4.898,-0.221 0,0 -2.636,1.539 -5.513,6.846 0,0 -4.114,9.008 -9.637,12.828 0,0 -4.009,3.531 -11.3820002,-2.195 0,0 -7.185,-3.662 -3.96200002,-14.521 L 29.913586,13.597 c 0,0 -1.466,-2.176 0.967,-2.826 0,0 0.938,-2.602 -5.821,-0.137 0,0 -2.011,0.179 -3.559,-0.356 0,0 -0.555,1.203 -2.827,-0.852 0,0 0.004,-0.966 -2.603,-1.192 0,0 -1.125,-0.5 -1.286,-2.63 -10e-4,0 0.101,-2.955 -1.571,-5.604 z"
     id="path3536"
     inkscape:connector-curvature="0"
     style="fill:#808080" /></svg>