<?xml version="1.0" encoding="UTF-8" standalone="no"?>
<svg
   xmlns:dc="http://purl.org/dc/elements/1.1/"
   xmlns:cc="http://creativecommons.org/ns#"
   xmlns:rdf="http://www.w3.org/1999/02/22-rdf-syntax-ns#"
   xmlns:svg="http://www.w3.org/2000/svg"
   xmlns="http://www.w3.org/2000/svg"
   xmlns:sodipodi="http://sodipodi.sourceforge.net/DTD/sodipodi-0.dtd"
   xmlns:inkscape="http://www.inkscape.org/namespaces/inkscape"
   version="1.0"
   x="0px"
   y="0px"
   viewBox="0 0 100 100"
   enable-background="new 0 0 100 100"
   xml:space="preserve"
   id="svg7"
   inkscape:version="0.91 r13725"
   sodipodi:docname="noun_97024.svg"><metadata
     id="metadata15"><rdf:RDF><cc:Work
         rdf:about=""><dc:format>image/svg+xml</dc:format><dc:type
           rdf:resource="http://purl.org/dc/dcmitype/StillImage" /></cc:Work></rdf:RDF></metadata><defs
     id="defs13" /><sodipodi:namedview
     pagecolor="#ffffff"
     bordercolor="#666666"
     borderopacity="1"
     objecttolerance="10"
     gridtolerance="10"
     guidetolerance="10"
     inkscape:pageopacity="0"
     inkscape:pageshadow="2"
     inkscape:window-width="640"
     inkscape:window-height="480"
     id="namedview11"
     showgrid="false"
     inkscape:zoom="2.36"
     inkscape:cx="50"
     inkscape:cy="50"
     inkscape:window-x="80"
     inkscape:window-y="172"
     inkscape:window-maximized="0"
     inkscape:current-layer="svg7" /><path
     d="M9.68,42.605c-0.132-0.75,0.292-1.478,0.969-1.757l21.565-10.175c0.412-0.193,0.863-0.299,1.348-0.299h9.562  c3.521,0,6.375,2.854,6.375,6.375v49.406c0.002,0.652-0.4,1.262-1.049,1.498c-0.179,0.064-0.365,0.096-0.545,0.096  c-0.652,0.002-1.262-0.4-1.498-1.049l-6.842-18.797L28.568,86.953c-0.294,0.51-0.832,0.795-1.381,0.797  c-0.456-0.055-0.629-0.117-0.796-0.213c-0.506-0.292-0.792-0.834-0.797-1.381l4.781-27.252l0-18.33l-18.849,3.324  c-0.771,0.137-1.513-0.314-1.774-1.024L9.68,42.605L9.68,42.605z M33.563,17.625c0-3.521,2.854-6.375,6.375-6.375  c3.521,0,6.375,2.854,6.375,6.375c0,3.521-2.854,6.375-6.375,6.375C36.417,24,33.563,21.146,33.563,17.625L33.563,17.625z   M57.469,20.812c0-3.521,2.854-6.375,6.375-6.375c3.521,0,6.375,2.854,6.375,6.375c0,3.521-2.854,6.375-6.375,6.375  C60.323,27.188,57.469,24.334,57.469,20.812L57.469,20.812z M86.953,21.823c0.244-0.143,0.525-0.212,0.797-0.214  c0.41-0.002,0.812,0.152,1.127,0.467c0.291,0.289,0.467,0.685,0.467,1.127c0.001,0.41-0.154,0.815-0.467,1.128L75,38.207  l0.001,20.696l4.757,26.977c0.119,0.677-0.212,1.331-0.773,1.657c-1.195,0.309-1.85-0.023-2.178-0.584L65.809,67.904l-6.842,18.797  c-0.221,0.614-0.808,1.049-1.498,1.049c-0.189,0-0.375-0.035-0.545-0.096c-0.613-0.222-1.049-0.807-1.049-1.497V43.125  c0-2.355,1.287-4.417,3.188-5.52L86.953,21.823L86.953,21.823z"
     id="path9"
     style="fill:#808080" /></svg>