<?xml version="1.0" encoding="UTF-8" standalone="no"?>
<svg
   xmlns:dc="http://purl.org/dc/elements/1.1/"
   xmlns:cc="http://creativecommons.org/ns#"
   xmlns:rdf="http://www.w3.org/1999/02/22-rdf-syntax-ns#"
   xmlns:svg="http://www.w3.org/2000/svg"
   xmlns="http://www.w3.org/2000/svg"
   xmlns:sodipodi="http://sodipodi.sourceforge.net/DTD/sodipodi-0.dtd"
   xmlns:inkscape="http://www.inkscape.org/namespaces/inkscape"
   version="1.1"
   x="0px"
   y="0px"
   viewBox="0 0 100 100"
   enable-background="new 0 0 100 100"
   xml:space="preserve"
   id="svg2"
   inkscape:version="0.91 r13725"
   sodipodi:docname="record_label.svg"
   width="100"
   height="100"><metadata
     id="metadata18"><rdf:RDF><cc:Work
         rdf:about=""><dc:format>image/svg+xml</dc:format><dc:type
           rdf:resource="http://purl.org/dc/dcmitype/StillImage" /><dc:title /></cc:Work></rdf:RDF></metadata><defs
     id="defs16" /><sodipodi:namedview
     pagecolor="#ffffff"
     bordercolor="#666666"
     borderopacity="1"
     objecttolerance="10"
     gridtolerance="10"
     guidetolerance="10"
     inkscape:pageopacity="0"
     inkscape:pageshadow="2"
     inkscape:window-width="640"
     inkscape:window-height="480"
     id="namedview14"
     showgrid="false"
     fit-margin-top="0"
     fit-margin-left="0"
     fit-margin-right="0"
     fit-margin-bottom="0"
     inkscape:zoom="1.888"
     inkscape:cx="50"
     inkscape:cy="37.5"
     inkscape:window-x="976"
     inkscape:window-y="159"
     inkscape:window-maximized="0"
     inkscape:current-layer="g4" /><g
     id="g4"
     style="fill:#999999"><circle
       cx="50"
       cy="50"
       r="2.75"
       id="circle6"
       style="fill:#999999" /><path
       d="M 50,0 C 22.386,0 0,22.386 0,50 0,77.614 22.386,100 50,100 77.614,100 100,77.614 100,50 100,22.386 77.614,0 50,0 Z M 15.284,37.634 11.362,36.849 c 0.058,-0.289 1.509,-7.168 9.622,-15.281 8.113,-8.113 14.992,-9.564 15.281,-9.622 l 0.393,1.961 0.403,1.959 c -0.06,0.013 -6.067,1.35 -13.249,8.53 -7.266,7.266 -8.516,13.179 -8.528,13.238 z m 12.842,1.552 -3.918,-0.804 c 0.084,-0.423 0.957,-4.261 5.497,-8.8 4.54,-4.54 8.377,-5.412 8.8,-5.497 l 0.392,1.961 0.412,1.957 c -0.03,0.007 -3.087,0.718 -6.776,4.407 -3.689,3.689 -4.4,6.746 -4.407,6.776 z M 50,65 c -8.284,0 -15,-6.716 -15,-15 0,-8.284 6.716,-15 15,-15 8.284,0 15,6.716 15,15 0,8.284 -6.716,15 -15,15 z m 11.25,7.286 c 0.011,-0.003 3.067,-0.714 6.757,-4.402 3.711,-3.711 4.397,-6.728 4.403,-6.757 l 3.922,0.785 c -0.084,0.422 -0.957,4.26 -5.497,8.8 -4.539,4.539 -8.378,5.412 -8.8,5.496 L 61.25,72.286 Z m 17.599,7.147 c -8.113,8.112 -14.992,9.563 -15.281,9.621 l -0.785,-3.922 c 0.049,-0.011 6.058,-1.348 13.238,-8.527 7.266,-7.267 8.517,-13.18 8.528,-13.238 l 3.922,0.785 c -0.058,0.288 -1.509,7.167 -9.622,15.281 z"
       id="path8"
       inkscape:connector-curvature="0"
       style="fill:#808080" /></g></svg>