<?xml version="1.0" encoding="UTF-8" standalone="no"?>
<svg
   xmlns:dc="http://purl.org/dc/elements/1.1/"
   xmlns:cc="http://creativecommons.org/ns#"
   xmlns:rdf="http://www.w3.org/1999/02/22-rdf-syntax-ns#"
   xmlns:svg="http://www.w3.org/2000/svg"
   xmlns="http://www.w3.org/2000/svg"
   xmlns:sodipodi="http://sodipodi.sourceforge.net/DTD/sodipodi-0.dtd"
   xmlns:inkscape="http://www.inkscape.org/namespaces/inkscape"
   version="1.1"
   x="0px"
   y="0px"
   viewBox="0 0 87.116997 90.75"
   enable-background="new 0 0 100 100"
   xml:space="preserve"
   id="svg3548"
   inkscape:version="0.91 r13725"
   sodipodi:docname="venue.svg"
   width="87.116997"
   height="90.75"><metadata
     id="metadata3582"><rdf:RDF><cc:Work
         rdf:about=""><dc:format>image/svg+xml</dc:format><dc:type
           rdf:resource="http://purl.org/dc/dcmitype/StillImage" /><dc:title /></cc:Work></rdf:RDF></metadata><defs
     id="defs3580" /><sodipodi:namedview
     pagecolor="#ffffff"
     bordercolor="#666666"
     borderopacity="1"
     objecttolerance="10"
     gridtolerance="10"
     guidetolerance="10"
     inkscape:pageopacity="0"
     inkscape:pageshadow="2"
     inkscape:window-width="1142"
     inkscape:window-height="819"
     id="namedview3578"
     showgrid="false"
     fit-margin-top="0"
     fit-margin-left="0"
     fit-margin-right="0"
     fit-margin-bottom="0"
     inkscape:zoom="1.888"
     inkscape:cx="43.558"
     inkscape:cy="32.875004"
     inkscape:window-x="180"
     inkscape:window-y="387"
     inkscape:window-maximized="0"
     inkscape:current-layer="svg3548" /><g
     id="g3550"
     transform="translate(-6.4419999,-4.625)"
     style="fill:#999999"><g
       id="g3552"
       style="fill:#999999"><rect
         x="6.4419999"
         y="81.105003"
         width="87.116997"
         height="14.27"
         id="rect3554"
         style="fill:#999999" /><path
         d="m 45.975,32.161 0,-11.224 c 0,-2.223 1.802,-4.025 4.025,-4.025 2.223,0 4.025,1.802 4.025,4.025 l 0,11.224 -8.05,0 z"
         id="path3556"
         inkscape:connector-curvature="0"
         style="fill:#999999" /><g
         id="g3558"
         style="fill:#999999"><path
           d="m 65.086,27.082 7.936,-7.936 c 1.572,-1.572 4.121,-1.572 5.692,0 1.571,1.572 1.572,4.121 0,5.692 l -7.937,7.936 -5.691,-5.692 z"
           id="path3560"
           inkscape:connector-curvature="0"
           style="fill:#999999" /><path
           d="m 34.914,27.082 -7.936,-7.936 c -1.572,-1.572 -4.121,-1.572 -5.692,0 -1.571,1.572 -1.572,4.121 0,5.692 l 7.936,7.936 5.692,-5.692 z"
           id="path3562"
           inkscape:connector-curvature="0"
           style="fill:#999999" /></g><g
         id="g3564"
         style="fill:#999999"><rect
           x="47.195999"
           y="78.775002"
           width="6.5310001"
           height="2.6600001"
           id="rect3566"
           style="fill:#999999" /><path
           d="m 53.545,48.798 c -0.652,0.218 -1.355,-0.135 -1.574,-0.786 l 0,0 c -0.217,-0.651 0.135,-1.354 0.788,-1.572 l 1.974,-0.659 c 0.651,-0.217 1.356,0.136 1.574,0.787 l 0,0 c 0.219,0.651 -0.137,1.355 -0.785,1.572 l -1.977,0.658 z"
           id="path3568"
           inkscape:connector-curvature="0"
           style="fill:#999999" /><path
           d="m 50.995,79.905 -1.048,0 0,-28.286 c 0,-1.676 0.708,-3.07 2.045,-4.033 l 0.611,0.851 c -1.067,0.769 -1.609,1.839 -1.609,3.183 l 10e-4,28.285 0,0 z"
           id="path3570"
           inkscape:connector-curvature="0"
           style="fill:#999999" /></g><path
         d="m 92.809,4.625 -85.617,0 c -0.414,0 -0.75,0.336 -0.75,0.75 l 0,14.27 0,71.346 1.5,0 0,-70.597 84.117,0 0,70.596 1.5,0 0,-71.346 0,-14.269 c 0,-0.414 -0.336,-0.75 -0.75,-0.75 z m -13.521,1.5 11.709,0 -11.709,11.709 0,-11.709 z m -1.5,11.709 -11.708,-11.709 11.709,0 -0.001,11.709 0,0 z M 50.75,6.125 l 11.709,0 -11.709,11.709 0,-11.709 z m -1.5,11.709 -11.709,-11.709 11.709,0 0,11.709 z M 22.212,6.125 l 11.708,0 -11.708,11.709 0,-11.709 z m -1.5,11.709 -11.709,-11.709 11.709,0 0,11.709 z m 14.269,-10.649 0,11.709 -11.709,0 11.709,-11.709 z m 1.5,0 11.709,11.709 -11.709,0 0,-11.709 z m 27.039,0 0,11.709 -11.709,0 L 63.52,7.185 Z m 1.5,0 11.709,11.709 -11.709,0 0,-11.709 z m 27.039,0 0,11.709 -11.709,0 11.709,-11.709 z m -84.117,0 11.709,11.709 -11.709,0 0,-11.709 z"
         id="path3572"
         inkscape:connector-curvature="0"
         style="fill:#999999" /></g></g></svg>