<?xml version="1.0" encoding="utf-8"?>
<!-- Generator: Adobe Illustrator 15.1.0, SVG Export Plug-In . SVG Version: 6.00 Build 0)  -->
<!DOCTYPE svg PUBLIC "-//W3C//DTD SVG 1.1//EN" "http://www.w3.org/Graphics/SVG/1.1/DTD/svg11.dtd">
<svg version="1.1" id="Layer_1" xmlns="http://www.w3.org/2000/svg" xmlns:xlink="http://www.w3.org/1999/xlink" x="0px" y="0px"
	 width="120px" height="40px" viewBox="0 0 120 40" enable-background="new 0 0 120 40" xml:space="preserve">
<g>
	<path fill="#ED2224" d="M8.9,15.237c-1.018,0-1.97,0.212-2.791,0.661c-0.821,0.417-1.51,0.87-2.003,1.72H4.041l0-5.638
		C4.036,9.234,2.4,8.523,0.259,8.41L0.003,8.412L0,31.208l0.877,0.002c2.288-0.353,3.012-1.442,3.162-2.819l0.001-6.544
		c0-0.417,0.033-0.833,0.165-1.186c0.46-1.188,1.576-2.213,3.152-2.213c2.233,0,3.086,1.732,3.085,3.978l0,4.619
		c0.01,2.896,1.326,3.745,2.955,4.17h1.083l0.001-9.207C14.481,17.001,11.625,15.238,8.9,15.237z"/>
	<path fill="#ED2224" d="M61.49,15.334v-0.011c-0.425-0.064-0.621-0.117-1.014-0.117c-1.74,0-3.674,1.138-4.462,3.263h-0.099
		l-0.03-0.547c-0.215-1.959-1.659-2.292-3.607-2.34c0.093,1.265,0.125,2.926,0.125,4.998L52.4,31.215h0.711
		c2.432-0.425,3.185-1.445,3.328-2.869l0-5.239c0-0.417,0.033-0.833,0.099-1.187c0.302-1.499,1.29-2.57,2.714-2.884
		c0.45,0.292,1.022,0.467,1.646,0.467c1.448,0,2.683-0.941,2.683-2.102C63.582,16.368,62.765,15.511,61.49,15.334z"/>
	<path fill="#ED2224" d="M25.579,15.242c-5.122-0.001-7.814,4.074-7.815,8.406c-0.001,4.782,3.052,7.896,8.239,7.896
		c2.266,0,4.146-0.406,5.521-0.971c-0.141-1.881-1.938-2.025-4.3-2.027c-0.213,0.009-0.433,0.014-0.662,0.014
		c-2.594,0-4.826-1.221-4.924-4.045l10.703,0.002c0.065-0.354,0.131-0.931,0.131-1.668C32.473,19.415,30.766,15.243,25.579,15.242z
		 M21.638,21.756c0.165-1.604,1.215-3.819,3.711-3.818c2.692,0,3.348,2.375,3.315,3.819L21.638,21.756z"/>
	<path fill="#ED2224" d="M86.377,28.382c-0.426,0-0.79,0.15-1.091,0.451s-0.451,0.669-0.451,1.104c0,0.426,0.15,0.792,0.451,1.097
		s0.665,0.458,1.091,0.458s0.79-0.153,1.091-0.458c0.302-0.305,0.451-0.671,0.451-1.097c0-0.435-0.149-0.803-0.451-1.104
		C87.167,28.532,86.803,28.382,86.377,28.382z"/>
	<path fill="#ED2224" d="M93.566,12.266c-0.43,0.255-0.735,0.592-0.914,1.009c-0.181,0.418-0.271,1.116-0.271,2.094V17.5H90.59
		v1.517h1.792v12.124h1.755l0.01-12.124h2.85V17.5h-2.848l0.001-1.843c0-0.777,0.029-1.256,0.088-1.436
		c0.058-0.18,0.201-0.338,0.427-0.477c0.225-0.138,0.51-0.207,0.852-0.207c0.46,0,1.012,0.138,1.655,0.414v-1.718
		c-0.794-0.234-1.476-0.351-2.044-0.351C94.518,11.883,93.996,12.011,93.566,12.266z"/>
	<path fill="#ED2224" d="M119.475,19.857c-0.35-0.853-0.885-1.517-1.606-1.993c-0.722-0.477-1.554-0.715-2.495-0.715
		c-1.01,0-1.951,0.278-2.827,0.833c-0.876,0.556-1.604,1.369-2.188,2.438c-0.276-0.802-0.603-1.418-0.979-1.849
		c-0.377-0.43-0.862-0.775-1.457-1.034c-0.594-0.259-1.221-0.389-1.882-0.389c-0.979,0-1.912,0.268-2.8,0.802
		c-0.644,0.401-1.271,1.037-1.882,1.906V17.5h-1.755v13.641h1.755v-5.78c0-1.704,0.169-2.972,0.508-3.798
		c0.339-0.828,0.86-1.486,1.567-1.975c0.705-0.489,1.464-0.733,2.275-0.733c0.701,0,1.307,0.178,1.817,0.533
		c0.51,0.355,0.866,0.827,1.071,1.417c0.205,0.589,0.308,1.706,0.308,3.353v6.984h1.755v-5.342c0-1.955,0.162-3.352,0.487-4.188
		c0.325-0.835,0.839-1.504,1.544-2.005c0.703-0.502,1.48-0.752,2.33-0.752c0.699,0,1.301,0.167,1.805,0.501s0.861,0.775,1.068,1.323
		c0.209,0.547,0.312,1.552,0.312,3.015v7.447H120v-7.447C120,21.988,119.824,20.709,119.475,19.857z"/>
	<path fill="#ED2224" d="M73.041,15.299c-4.418,0-7.998,3.723-7.998,8.314c0,3.162,1.703,5.898,4.201,7.305
		c0.645,0.479,1.352,0.643,1.922,0.365c1.002-0.488,1.197-2.146,0.439-3.705c-0.76-1.559-2.186-2.426-3.188-1.939
		c-0.223,0.109-0.404,0.278-0.545,0.49c-0.374-0.648-0.588-1.376-0.588-2.146c0-2.709,2.582-4.903,5.766-4.903
		c3.186,0,5.768,2.194,5.768,4.903c0,0.812-0.236,1.575-0.648,2.249c-0.156-0.277-0.371-0.495-0.646-0.622
		c-1.012-0.465-2.419,0.434-3.145,2.009c-0.724,1.573-0.492,3.228,0.52,3.694c0.527,0.242,1.164,0.11,1.754-0.293
		c2.6-1.372,4.387-4.168,4.387-7.406C81.039,19.022,77.459,15.299,73.041,15.299z"/>
	<path fill="#ED2224" d="M48.133,21.856c0-3.434-1.477-6.611-6.598-6.612c-2.511,0-4.567,0.665-5.753,1.365
		c0.674,1.44,1.766,1.752,3.009,1.683c0.663-0.16,1.351-0.257,2.041-0.257c2.824,0,3.237,1.702,3.237,2.729v0.257
		c-5.948-0.033-9.476,1.988-9.476,5.903c0,2.374,1.811,4.665,5.028,4.665c1.669,0,3.066-0.51,4.05-1.357
		c0.443-0.446,0.708-0.873,0.755-1.14c0.371,1.813,1.559,2.128,3.965,2.128c-0.195-0.963-0.26-2.342-0.26-3.748L48.133,21.856z
		 M44.033,26.605c-0.394,1.123-1.513,2.149-3.154,2.149c-1.28,0-2.344-0.706-2.344-2.247c0-2.374,2.986-2.951,5.536-2.919v2.149
		C44.07,26.028,44.131,26.316,44.033,26.605z"/>
</g>
</svg>
