<?xml version="1.0" encoding="UTF-8"?>
<svg width="20px" height="20px" viewBox="0 0 20 20" version="1.1" xmlns="http://www.w3.org/2000/svg" xmlns:xlink="http://www.w3.org/1999/xlink">
    <g id="Page-1" stroke="none" stroke-width="1" fill="none" fill-rule="evenodd">
        <g id="24px-(4)" fill="#FFFFFF" fill-rule="nonzero">
            <path d="M10,0 C4.48,0 0,4.48 0,10 C0,15.52 4.48,20 10,20 C15.52,20 20,15.52 20,10 C20,4.48 15.52,0 10,0 Z M8,14 C7.45,14 7,13.55 7,13 L7,7 C7,6.45 7.45,6 8,6 C8.55,6 9,6.45 9,7 L9,13 C9,13.55 8.55,14 8,14 Z M12,14 C11.45,14 11,13.55 11,13 L11,7 C11,6.45 11.45,6 12,6 C12.55,6 13,6.45 13,7 L13,13 C13,13.55 12.55,14 12,14 Z" id="Shape"></path>
        </g>
    </g>
</svg>
