<?xml version="1.0" encoding="UTF-8" standalone="no"?><svg xmlns="http://www.w3.org/2000/svg" xmlns:xlink="http://www.w3.org/1999/xlink" contentScriptType="application/ecmascript" contentStyleType="text/css" height="444px" preserveAspectRatio="none" style="width:660px;height:444px;background:#00000000;" version="1.1" viewBox="0 0 660 444" width="660px" zoomAndPan="magnify"><defs/><g><!--MD5=[42591781c74864aa6bd8b9830e23a81c]
cluster Docker--><path d="M44.7107,120.1964 C55.8831,103.4984 73.7011,101.3983 82.8365,122.2638 C91.3388,104.1916 109.681,103.3355 121.2139,118.7953 C137.4287,99.3157 151.9035,95.1298 168.4151,118.4682 C178.0386,99.3619 193.0235,97.4866 206.4027,114.5206 C221.1166,93.4589 237.7294,99.1449 247.7212,119.2591 C256.5579,100.727 277.1552,96.8079 290.0613,114.503 C302.6027,97.7717 317.6839,95.2688 329.7152,115.0569 C343.453,96.8623 361.4637,98.1052 373.3802,117.1902 C386.0528,96.4439 403.7547,94.8537 416.0276,117.5823 C426.3792,99.8406 439.358,98.8655 451.5474,115.6939 C467.0786,97.7944 480.4574,96.7059 494.2628,117.5944 C508.348,99.9003 529.8469,99.1326 540.424,121.6241 C549.3813,98.4199 564.402,97.1985 579.7382,115.5959 C596.7055,98.1399 612.9484,98.863 623.4209,122.5 C629.1239,121.2262 631.4182,123.84 629.9492,129.3758 C647.0549,142.1549 649.3215,158.7032 629.1637,170.7754 C653.5654,186.8053 651.7044,204.8555 630.7474,222.2802 C652.9983,233.4651 648.0625,249.6876 632.2266,262.281 C652.3941,279.4412 649.4412,295.4262 627.4016,308.1464 C649.9209,324.022 649.2168,338.4779 627.7663,354.6981 C653.5161,375.4608 647.3794,398.9221 616.4209,407.5 C620.4021,408.8301 620.4824,412.0727 617.3743,414.3846 C604.8474,435.0276 586.7536,432.2436 576.6947,411.9332 C563.368,430.3293 549.0992,435.898 534.5388,413.1988 C522.4807,428.8123 507.7508,430.394 496.3033,412.5021 C481.1787,433.4422 465.6085,428.733 452.6275,410.1341 C441.8458,429.0247 428.4686,430.7012 413.0142,415.5757 C399.2145,432.4178 383.8023,437.5896 370.507,415.0316 C358.3956,431.4823 339.5185,426.9183 331.8684,409.8836 C323.1821,428.3539 303.4126,435.1801 289.8736,415.1809 C273.4852,435.3423 258.8194,430.3378 248.2408,409.3087 C236.9303,429.4445 224.4505,427.8269 210.5812,411.9872 C196.8484,430.843 178.0685,434.0661 166.6007,409.6833 C152.1819,429.0083 135.2496,432.363 121.088,409.4064 C107.3333,429.9578 94.7656,427.7178 81.6297,408.7879 C65.3294,428.6728 40.0622,427.0139 31.4209,400.5 C34.8601,400.1961 36.8838,402.5594 35.373,405.887 C6.5896,393.7732 12.0799,371.3379 31.4404,355.469 C9.8728,341.6965 10.9874,327.5655 30.1669,312.583 C6,300.8315 9.1756,277.5047 29.3981,265.0354 C7.8431,246.5485 7.6605,232.2665 33.6794,218.1211 C10.9709,202.9584 11.9039,186.407 33.1609,170.7629 C9.8696,149.9396 13.0904,131.6955 38.4209,115.5 C42.3312,113.7587 45.3283,115.8733 44.7107,120.1964 " style="stroke:#000000;stroke-width:1.5;fill:none;"/><text fill="#000000" font-family="sans-serif" font-size="14" font-weight="bold" lengthAdjust="spacing" textLength="50" x="302.4209" y="134.0352">Docker</text><!--MD5=[6e8f311b0aa23032184ffba0ef926f91]
entity App--><rect fill="#F8F8F8" height="46.4883" style="stroke:#383838;stroke-width:1.5;" width="68" x="287.4209" y="142.5"/><rect fill="#F8F8F8" height="10" style="stroke:#383838;stroke-width:1.5;" width="15" x="335.4209" y="147.5"/><rect fill="#F8F8F8" height="2" style="stroke:#383838;stroke-width:1.5;" width="4" x="333.4209" y="149.5"/><rect fill="#F8F8F8" height="2" style="stroke:#383838;stroke-width:1.5;" width="4" x="333.4209" y="153.5"/><text fill="#000000" font-family="sans-serif" font-size="14" lengthAdjust="spacing" textLength="28" x="302.4209" y="176.0352">App</text><!--MD5=[1d68c5ae11fc8ee436bfc8abea2c6cdf]
entity HTS--><rect fill="#F8F8F8" height="46.4883" style="stroke:#383838;stroke-width:1.5;" width="67" x="547.9209" y="248.5"/><rect fill="#F8F8F8" height="10" style="stroke:#383838;stroke-width:1.5;" width="15" x="594.9209" y="253.5"/><rect fill="#F8F8F8" height="2" style="stroke:#383838;stroke-width:1.5;" width="4" x="592.9209" y="255.5"/><rect fill="#F8F8F8" height="2" style="stroke:#383838;stroke-width:1.5;" width="4" x="592.9209" y="259.5"/><text fill="#000000" font-family="sans-serif" font-size="14" lengthAdjust="spacing" textLength="27" x="562.9209" y="282.0352">HTS</text><!--MD5=[c153daea551de8036d2c6d3c7e3d3f88]
entity TarTar--><rect fill="#F8F8F8" height="46.4883" style="stroke:#383838;stroke-width:1.5;" width="86" x="39.4209" y="248.5"/><rect fill="#F8F8F8" height="10" style="stroke:#383838;stroke-width:1.5;" width="15" x="105.4209" y="253.5"/><rect fill="#F8F8F8" height="2" style="stroke:#383838;stroke-width:1.5;" width="4" x="103.4209" y="255.5"/><rect fill="#F8F8F8" height="2" style="stroke:#383838;stroke-width:1.5;" width="4" x="103.4209" y="259.5"/><text fill="#000000" font-family="sans-serif" font-size="14" lengthAdjust="spacing" textLength="46" x="54.4209" y="282.0352">TarTar</text><!--MD5=[7fbd20eab0f047d95d8cf961cd333b40]
entity Postgres--><path d="M160.9209,259 C160.9209,249 200.4209,249 200.4209,249 C200.4209,249 239.9209,249 239.9209,259 L239.9209,284.4883 C239.9209,294.4883 200.4209,294.4883 200.4209,294.4883 C200.4209,294.4883 160.9209,294.4883 160.9209,284.4883 L160.9209,259 " fill="#F8F8F8" style="stroke:#000000;stroke-width:1.5;"/><path d="M160.9209,259 C160.9209,269 200.4209,269 200.4209,269 C200.4209,269 239.9209,269 239.9209,259 " fill="none" style="stroke:#000000;stroke-width:1.5;"/><text fill="#000000" font-family="sans-serif" font-size="14" lengthAdjust="spacing" textLength="59" x="170.9209" y="286.5352">Postgres</text><!--MD5=[8cc4e426e7644d7228ab70cd4de609e8]
entity Rethinkdb--><path d="M135.4209,364.5 C135.4209,354.5 180.4209,354.5 180.4209,354.5 C180.4209,354.5 225.4209,354.5 225.4209,364.5 L225.4209,389.9883 C225.4209,399.9883 180.4209,399.9883 180.4209,399.9883 C180.4209,399.9883 135.4209,399.9883 135.4209,389.9883 L135.4209,364.5 " fill="#F8F8F8" style="stroke:#000000;stroke-width:1.5;"/><path d="M135.4209,364.5 C135.4209,374.5 180.4209,374.5 180.4209,374.5 C180.4209,374.5 225.4209,374.5 225.4209,364.5 " fill="none" style="stroke:#000000;stroke-width:1.5;"/><text fill="#000000" font-family="sans-serif" font-size="14" lengthAdjust="spacing" textLength="70" x="145.4209" y="392.0352">Rethinkdb</text><!--MD5=[783dc9e3eeef317a9da1c323dfb778fc]
entity Elasticsearch--><path d="M312.4209,259 C312.4209,249 366.4209,249 366.4209,249 C366.4209,249 420.4209,249 420.4209,259 L420.4209,284.4883 C420.4209,294.4883 366.4209,294.4883 366.4209,294.4883 C366.4209,294.4883 312.4209,294.4883 312.4209,284.4883 L312.4209,259 " fill="#F8F8F8" style="stroke:#000000;stroke-width:1.5;"/><path d="M312.4209,259 C312.4209,269 366.4209,269 366.4209,269 C366.4209,269 420.4209,269 420.4209,259 " fill="none" style="stroke:#000000;stroke-width:1.5;"/><text fill="#000000" font-family="sans-serif" font-size="14" lengthAdjust="spacing" textLength="88" x="322.4209" y="286.5352">Elasticsearch</text><!--MD5=[f96d690baea4a0823d36c98ba0c3a2b4]
entity Redis--><path d="M455.9209,259 C455.9209,249 484.4209,249 484.4209,249 C484.4209,249 512.9209,249 512.9209,259 L512.9209,284.4883 C512.9209,294.4883 484.4209,294.4883 484.4209,294.4883 C484.4209,294.4883 455.9209,294.4883 455.9209,284.4883 L455.9209,259 " fill="#F8F8F8" style="stroke:#000000;stroke-width:1.5;"/><path d="M455.9209,259 C455.9209,269 484.4209,269 484.4209,269 C484.4209,269 512.9209,269 512.9209,259 " fill="none" style="stroke:#000000;stroke-width:1.5;"/><text fill="#000000" font-family="sans-serif" font-size="14" lengthAdjust="spacing" textLength="37" x="465.9209" y="286.5352">Redis</text><!--MD5=[fee662a292a0353a69bd162820bae93b]
entity User--><ellipse cx="321.4209" cy="14" fill="#F8F8F8" rx="8" ry="8" style="stroke:#383838;stroke-width:1.5;"/><path d="M321.4209,22 L321.4209,49 M308.4209,30 L334.4209,30 M321.4209,49 L308.4209,64 M321.4209,49 L334.4209,64 " fill="none" style="stroke:#383838;stroke-width:1.5;"/><text fill="#000000" font-family="sans-serif" font-size="14" lengthAdjust="spacing" textLength="31" x="305.9209" y="80.0352">User</text><!--MD5=[e1f6487853e33a6d79e610ecab338ced]
entity HederaNetwork--><rect fill="#F8F8F8" height="46.4883" style="stroke:#383838;stroke-width:1.5;" width="146" x="508.4209" y="20.5"/><rect fill="#F8F8F8" height="10" style="stroke:#383838;stroke-width:1.5;" width="15" x="634.4209" y="25.5"/><rect fill="#F8F8F8" height="2" style="stroke:#383838;stroke-width:1.5;" width="4" x="632.4209" y="27.5"/><rect fill="#F8F8F8" height="2" style="stroke:#383838;stroke-width:1.5;" width="4" x="632.4209" y="31.5"/><text fill="#000000" font-family="sans-serif" font-size="14" lengthAdjust="spacing" textLength="106" x="523.4209" y="54.0352">HederaNetwork</text><!--MD5=[0214f9738810ef8e203a2a515b7b8642]
link User to App--><path d="M321.4209,82.8 C321.4209,100.42 321.4209,120.94 321.4209,137 " fill="none" id="User-to-App" style="stroke:#383838;stroke-width:1.0;"/><polygon fill="#383838" points="321.4209,142.26,325.4209,133.26,321.4209,137.26,317.4209,133.26,321.4209,142.26" style="stroke:#383838;stroke-width:1.0;"/><!--MD5=[5d722af13dc70147d33ee89344f5dd94]
link App to HTS--><path d="M360.3309,181.32 C402.4209,197.46 471.4209,224.21 530.4209,248.5 C534.5509,250.2 538.8509,252 543.1209,253.82 " fill="none" id="App-HTS" style="stroke:#383838;stroke-width:1.0;"/><polygon fill="#383838" points="547.7409,255.79,541.0253,248.5858,543.14,253.8325,537.8932,255.9472,547.7409,255.79" style="stroke:#383838;stroke-width:1.0;"/><polygon fill="#383838" points="355.5909,179.5,362.5693,186.4499,360.2613,181.2853,365.4258,178.9773,355.5909,179.5" style="stroke:#383838;stroke-width:1.0;"/><!--MD5=[9d20775f5ee9b48082c04061b8b97ff4]
link HederaNetwork to HTS--><path d="M581.4209,71.6 C581.4209,115.02 581.4209,199.7 581.4209,243.23 " fill="none" id="HederaNetwork-HTS" style="stroke:#383838;stroke-width:1.0;stroke-dasharray:7.0,7.0;"/><polygon fill="#383838" points="581.4209,248.33,585.4209,239.33,581.4209,243.33,577.4209,239.33,581.4209,248.33" style="stroke:#383838;stroke-width:1.0;"/><polygon fill="#383838" points="581.4209,66.58,577.4209,75.58,581.4209,71.58,585.4209,75.58,581.4209,66.58" style="stroke:#383838;stroke-width:1.0;"/><!--MD5=[2cdd8e4f14713721c596b93c2e6b7ff5]
link App to TarTar--><path d="M282.5809,183.4 C241.0109,201.49 175.0509,230.19 130.3009,249.66 " fill="none" id="App-TarTar" style="stroke:#383838;stroke-width:1.0;"/><polygon fill="#383838" points="125.5009,251.75,135.3495,251.8073,130.0816,249.7459,132.143,244.478,125.5009,251.75" style="stroke:#383838;stroke-width:1.0;"/><polygon fill="#383838" points="287.1809,181.4,277.3322,181.3315,282.5978,183.3988,280.5304,188.6644,287.1809,181.4" style="stroke:#383838;stroke-width:1.0;"/><!--MD5=[e2e83a96065c1e66a5f26f90a610fa3f]
link App to Postgres--><path d="M291.7909,191.97 C272.9309,208.18 248.6109,229.08 229.8009,245.25 " fill="none" id="App-Postgres" style="stroke:#383838;stroke-width:1.0;"/><polygon fill="#383838" points="225.6309,248.83,235.0621,245.9923,229.4211,245.569,229.8444,239.928,225.6309,248.83" style="stroke:#383838;stroke-width:1.0;"/><polygon fill="#383838" points="295.7609,188.56,286.3296,191.3977,291.9706,191.821,291.5473,197.462,295.7609,188.56" style="stroke:#383838;stroke-width:1.0;"/><!--MD5=[6b068484a31652158037c34cc2173809]
link App to Rethinkdb--><path d="M310.5909,193.71 C299.2909,220.54 280.0809,262.11 257.4209,294.5 C243.1209,314.94 223.8509,335.34 208.1609,350.61 " fill="none" id="App-Rethinkdb" style="stroke:#383838;stroke-width:1.0;"/><polygon fill="#383838" points="204.2509,354.38,213.506,351.0122,207.8501,350.9093,207.9529,345.2534,204.2509,354.38" style="stroke:#383838;stroke-width:1.0;"/><polygon fill="#383838" points="312.6109,188.88,305.4496,195.6414,310.6827,193.4933,312.8308,198.7264,312.6109,188.88" style="stroke:#383838;stroke-width:1.0;"/><!--MD5=[339378c6896890fbb512acfe1258f913]
reverse link App to Elasticsearch--><path d="M333.0109,193.28 C340.4809,210.54 350.0609,232.69 357.0409,248.83 " fill="none" id="App-backto-Elasticsearch" style="stroke:#383838;stroke-width:1.0;"/><polygon fill="#383838" points="330.9609,188.56,330.8554,198.4083,332.9425,193.1505,338.2002,195.2377,330.9609,188.56" style="stroke:#383838;stroke-width:1.0;"/><!--MD5=[e0bcd0ff16a9d02d84fb5f923c9bb3cc]
reverse link App to Redis--><path d="M359.8509,191.02 C389.2309,209.76 429.0909,235.2 455.7309,252.2 " fill="none" id="App-backto-Redis" style="stroke:#383838;stroke-width:1.0;"/><polygon fill="#383838" points="355.5909,188.3,361.0111,196.5232,359.8009,190.9973,365.3268,189.7871,355.5909,188.3" style="stroke:#383838;stroke-width:1.0;"/><!--MD5=[05d799b9c77db526b86514ec4515acee]
link TarTar to Rethinkdb--><path d="M107.0509,298.51 C122.0409,314.34 141.1209,334.49 156.0609,350.28 " fill="none" id="TarTar-Rethinkdb" style="stroke:#383838;stroke-width:1.0;"/><polygon fill="#383838" points="159.7709,354.19,156.4779,344.908,156.3294,350.5629,150.6745,350.4144,159.7709,354.19" style="stroke:#383838;stroke-width:1.0;"/><polygon fill="#383838" points="103.4409,294.7,106.7338,303.982,106.8823,298.3271,112.5373,298.4756,103.4409,294.7" style="stroke:#383838;stroke-width:1.0;"/><!--MD5=[20b4a33e4d6a701e82b7eb437eb2465d]
@startuml Hearo components

skinparam monochrome true
skinparam backgroundColor transparent
skinparam classBackgroundColor transparent
skinparam style strictuml

actor User

cloud "Docker" {
  [App]
  [HTS]
  [TarTar]
  database Postgres
  database Rethinkdb
  database Elasticsearch
  database Redis
}
[HederaNetwork]

User - -> App
App <- -> HTS
HederaNetwork <...> HTS
App <- -> TarTar
App <- -> Postgres
App <- -> Rethinkdb
App <- - Elasticsearch
App <- - Redis
TarTar <- -> Rethinkdb


@enduml

PlantUML version 1.2021.7(Sun May 23 15:40:07 EAT 2021)
(GPL source distribution)
Java Runtime: OpenJDK Runtime Environment
JVM: OpenJDK 64-Bit Server VM
Default Encoding: UTF-8
Language: en
Country: GB
--></g></svg>